<svg width="81" height="80" viewBox="0 0 81 80" fill="none" xmlns="http://www.w3.org/2000/svg">
<path d="M17.3616 -0.00292969C13.8246 -0.00292969 10.3725 1.07966 7.46839 3.09852C5.95634 4.10276 7.51979 6.35464 8.98921 5.28862C11.4468 3.58018 14.3685 2.6636 17.3616 2.6636C25.4775 2.6636 32.0281 9.21434 32.0281 17.3302C32.0281 25.4461 25.4775 31.9967 17.3616 31.9967C9.24561 31.9967 2.69498 25.4461 2.69498 17.3302C2.69498 14.3363 3.61063 11.4132 5.31997 8.95523C6.38559 7.48607 4.13417 5.92272 3.12988 7.43442C1.10991 10.3391 0.0283203 13.7923 0.0283203 17.3302C0.0283203 26.8873 7.80446 34.6634 17.3616 34.6634C26.9186 34.6634 34.6947 26.8873 34.6947 17.3302C34.6947 7.77314 26.9186 -0.00292969 17.3616 -0.00292969ZM17.3616 5.31461C16.6947 5.31461 16.0282 5.75861 16.0282 6.64795V8.18183C13.7399 8.7802 12.0335 10.8588 12.0335 13.3276C12.0335 16.2573 14.4266 18.661 17.3563 18.661C18.8449 18.661 20.023 19.8389 20.023 21.3275C20.023 22.8161 18.8449 23.9968 17.3563 23.9968C15.8677 23.9968 14.7001 22.8161 14.7001 21.3275C14.7404 19.5094 11.9927 19.5094 12.0335 21.3275C12.0335 23.7964 13.7399 25.875 16.0282 26.4734V27.9916C16.0282 29.7698 18.6949 29.7698 18.6949 27.9916V26.4708C20.9805 25.869 22.6922 23.7928 22.6922 21.3275C22.6922 18.3978 20.286 15.9943 17.3563 15.9943C15.8677 15.9943 14.7001 14.8162 14.7001 13.3276C14.7001 11.839 15.8677 10.6583 17.3563 10.6583C18.8449 10.6583 20.023 11.839 20.023 13.3276C20.023 15.1071 22.6922 15.1071 22.6922 13.3276C22.6922 10.8623 20.9805 8.78624 18.6949 8.18445V6.64795C18.6949 5.75886 18.0284 5.31461 17.3616 5.31461ZM62.6919 7.99175H70.3195C67.1014 12.0665 40.7829 43.9967 5.35903 43.9967C3.54134 43.9563 3.54134 46.7037 5.35903 46.6633C40.8121 46.6633 66.9804 16.4167 72.033 10.1402V17.3328C72.0733 19.0711 74.6606 19.0711 74.6996 17.3328V6.66364C74.697 5.92729 74.0974 5.33275 73.3611 5.33552H62.6281C60.9286 5.53911 61.0441 7.9462 62.6919 7.99175Z" fill="white"/>
<path d="M1.36186 79.9967H78.6946C80.5121 80.037 80.5121 77.2899 78.6946 77.3302H74.6998V43.9944C74.7099 43.2423 74.0925 42.6314 73.3404 42.6454C72.6077 42.6605 72.0248 43.2615 72.0332 43.9944V77.3302H64.0306V34.6638H72.0332V38.6586C72.0332 40.4367 74.6998 40.4367 74.6998 38.6586V33.3252C74.6972 32.5886 74.0979 31.9943 73.3613 31.9971H62.6921C61.9593 31.9998 61.364 32.5924 61.3614 33.3252V77.3302H56.0281V43.9944C56.0254 43.2621 55.4323 42.6692 54.7 42.6663H43.9618C43.2107 42.7348 42.6916 43.3089 42.6922 43.9944V77.3302H37.3564V54.6636C37.359 53.9273 36.7646 53.328 36.0282 53.325H25.3591C24.6227 53.3277 24.0281 53.9273 24.0309 54.6636V77.3302H18.695V65.3328C18.6977 64.5924 18.0969 63.9914 17.3565 63.9943H6.69771C5.95733 63.9916 5.35639 64.5924 5.35921 65.3328V77.3302H1.29413C-0.506954 77.4602 -0.375579 80.0431 1.36186 79.9967ZM45.3589 45.333H53.3615V77.3302H45.3589V45.333ZM26.6976 55.9917H34.7001V77.3302H26.6976V55.9917ZM8.02588 66.6609H16.0284V77.3302H8.02588V66.6609Z" fill="#F4A641"/>
</svg>
