<svg width="81" height="81" viewBox="0 0 81 81" fill="none" xmlns="http://www.w3.org/2000/svg">
<path d="M24.8916 65.4935C24.8917 68.6293 25.8439 71.6912 27.6222 74.274C29.4005 76.8568 31.9211 78.8388 34.8505 79.9577C37.7799 81.0767 40.9799 81.2798 44.0273 80.5402C47.0746 79.8007 49.8256 78.1533 51.9162 75.8161L49.9937 74.0961C47.9831 76.3443 45.2485 77.8171 42.2649 78.2587C39.2814 78.7004 36.2374 78.0829 33.6617 76.5136C31.0861 74.9442 29.1415 72.5222 28.1659 69.6683C27.1903 66.8144 27.2453 63.7089 28.3213 60.8913C29.3973 58.0736 31.4263 55.722 34.0559 54.2448C36.6855 52.7676 39.7494 52.2582 42.7155 52.8052C45.6816 53.3521 48.3623 54.9208 50.2921 57.2388C52.2218 59.5567 53.2786 62.4774 53.2788 65.4935C53.2788 65.8935 53.2401 66.2883 53.204 66.6844L51.7304 64.7193L49.6659 66.2677L53.5369 71.429C53.6571 71.5892 53.8129 71.7193 53.9921 71.8089C54.1713 71.8985 54.3688 71.9451 54.5692 71.9451C54.7695 71.9451 54.967 71.8985 55.1462 71.8089C55.3254 71.7193 55.4812 71.5892 55.6014 71.429L59.4724 66.2677L57.4079 64.7193L55.7717 66.9012C55.813 66.4341 55.8595 65.9657 55.8595 65.4935C55.8595 61.3869 54.2282 57.4485 51.3244 54.5447C48.4205 51.6409 44.4821 50.0095 40.3755 50.0095C36.2689 50.0095 32.3305 51.6409 29.4267 54.5447C26.5229 57.4485 24.8916 61.3869 24.8916 65.4935Z" fill="#F4A641"/>
<path d="M39.0845 65.9864L34.6367 68.2096L35.7903 70.5193L40.9516 67.9387C41.1661 67.8315 41.3465 67.6666 41.4725 67.4627C41.5985 67.2587 41.6653 67.0236 41.6651 66.7838V56.4612H39.0845V65.9864Z" fill="white"/>
<path d="M62.3105 64.2031H80.3752V66.7838H62.3105V64.2031Z" fill="white"/>
<path d="M0.375 64.2031H22.3106V66.7838H0.375V64.2031Z" fill="white"/>
<path d="M15.8593 61.6225V33.2353C15.8593 32.8931 15.7234 32.5649 15.4814 32.3229C15.2394 32.0809 14.9112 31.9449 14.569 31.9449H4.24638C3.90417 31.9449 3.57597 32.0809 3.33398 32.3229C3.092 32.5649 2.95605 32.8931 2.95605 33.2353V61.6225H5.53671V34.5256H13.2787V61.6225H15.8593Z" fill="white"/>
<path d="M35.2135 19.0416H24.8909C24.5487 19.0416 24.2205 19.1776 23.9785 19.4196C23.7365 19.6615 23.6006 19.9897 23.6006 20.332V53.8805H26.1812V21.6223H33.9232V47.4289H36.5039V20.332C36.5039 19.9897 36.3679 19.6615 36.1259 19.4196C35.884 19.1776 35.5558 19.0416 35.2135 19.0416Z" fill="#F4A641"/>
<path d="M57.1494 53.8805V33.2353C57.1494 32.8931 57.0134 32.5649 56.7715 32.3229C56.5295 32.0809 56.2013 31.9449 55.8591 31.9449H45.5364C45.1942 31.9449 44.866 32.0809 44.624 32.3229C44.382 32.5649 44.2461 32.8931 44.2461 33.2353V47.4289H46.8268V34.5256H54.5687V53.8805H57.1494Z" fill="white"/>
<path d="M77.7949 61.6225V20.332C77.7949 19.9897 77.6589 19.6615 77.417 19.4196C77.175 19.1776 76.8468 19.0416 76.5046 19.0416H66.1819C65.8397 19.0416 65.5115 19.1776 65.2695 19.4196C65.0275 19.6615 64.8916 19.9897 64.8916 20.332V61.6225H67.4723V21.6223H75.2142V61.6225H77.7949Z" fill="#F4A641"/>
<path d="M71.3432 11.2997C72.364 11.2997 73.3619 10.997 74.2107 10.4298C75.0594 9.86271 75.721 9.05663 76.1116 8.11352C76.5023 7.17041 76.6045 6.13264 76.4053 5.13145C76.2062 4.13025 75.7146 3.21059 74.9928 2.48877C74.271 1.76694 73.3513 1.27538 72.3501 1.07623C71.3489 0.877076 70.3111 0.979287 69.368 1.36993C68.4249 1.76058 67.6188 2.42212 67.0517 3.2709C66.4846 4.11967 66.1819 5.11756 66.1819 6.13837C66.1875 6.66473 66.2745 7.18704 66.4399 7.68676L54.2386 15.2997C53.2665 14.3694 51.9679 13.8581 50.6225 13.8757C49.2771 13.8933 47.9924 14.4385 47.045 15.3939L33.7043 7.54483C33.8431 7.08863 33.9169 6.61516 33.9236 6.13837C33.9232 5.37595 33.7539 4.6231 33.4279 3.93391C33.1018 3.24473 32.6272 2.63634 32.038 2.15247C31.4488 1.6686 30.7597 1.32127 30.0203 1.13545C29.2809 0.949628 28.5094 0.929931 27.7615 1.07777C27.0136 1.22561 26.3077 1.53732 25.6945 1.99049C25.0814 2.44365 24.5763 3.02703 24.2155 3.69867C23.8547 4.37032 23.6472 5.11355 23.6079 5.87496C23.5686 6.63636 23.6984 7.39701 23.9881 8.10225L11.3197 17.6068C10.4143 16.8703 9.28413 16.466 8.11707 16.461C7.0072 16.4596 5.92631 16.8151 5.03404 17.4752C4.14177 18.1352 3.48545 19.0648 3.16202 20.1265C2.83859 21.1882 2.8652 22.3257 3.23793 23.3712C3.61066 24.4166 4.30973 25.3144 5.2319 25.932C6.15406 26.5496 7.2504 26.8542 8.35899 26.8009C9.46758 26.7475 10.5296 26.3391 11.3882 25.6358C12.2469 24.9326 12.8565 23.9718 13.1272 22.8954C13.3978 21.8191 13.3151 20.6842 12.8913 19.6584L25.5649 10.1539C26.5494 10.9553 27.7972 11.3611 29.0647 11.2922C30.3323 11.2232 31.5287 10.6844 32.4204 9.78097L45.756 17.6352C45.6172 18.0914 45.5433 18.5649 45.5366 19.0417C45.5366 20.4105 46.0804 21.7233 47.0483 22.6913C48.0163 23.6592 49.3291 24.203 50.6979 24.203C52.0668 24.203 53.3796 23.6592 54.3475 22.6913C55.3155 21.7233 55.8592 20.4105 55.8592 19.0417C55.8536 18.5153 55.7666 17.993 55.6012 17.4933L67.8025 9.88032C68.7566 10.7907 70.0245 11.299 71.3432 11.2997ZM71.3432 3.55771C71.8536 3.55771 72.3525 3.70906 72.7769 3.99263C73.2013 4.2762 73.5321 4.67924 73.7274 5.15079C73.9227 5.62235 73.9738 6.14123 73.8743 6.64183C73.7747 7.14243 73.5289 7.60226 73.168 7.96317C72.8071 8.32408 72.3473 8.56986 71.8466 8.66944C71.3461 8.76902 70.8272 8.71791 70.3556 8.52259C69.8841 8.32726 69.481 7.99649 69.1974 7.5721C68.9139 7.14772 68.7625 6.64877 68.7625 6.13837C68.7625 5.45394 69.0344 4.79754 69.5184 4.31357C70.0023 3.8296 70.6588 3.55771 71.3432 3.55771ZM8.11707 24.203C7.60667 24.203 7.10772 24.0516 6.68334 23.7681C6.25895 23.4845 5.92818 23.0814 5.73286 22.6099C5.53753 22.1383 5.48643 21.6195 5.586 21.1189C5.68558 20.6183 5.93136 20.1584 6.29227 19.7975C6.65318 19.4366 7.11301 19.1908 7.61361 19.0912C8.11421 18.9917 8.63309 19.0428 9.10465 19.2381C9.5762 19.4334 9.97924 19.7642 10.2628 20.1886C10.5464 20.613 10.6977 21.1119 10.6977 21.6223C10.6977 22.3067 10.4258 22.9631 9.94187 23.4471C9.45791 23.9311 8.80151 24.203 8.11707 24.203ZM28.7623 8.71903C28.2519 8.71903 27.753 8.56767 27.3286 8.28411C26.9042 8.00054 26.5734 7.5975 26.3781 7.12594C26.1828 6.65439 26.1317 6.13551 26.2313 5.63491C26.3308 5.13431 26.5766 4.67448 26.9375 4.31357C27.2984 3.95266 27.7583 3.70687 28.2589 3.6073C28.7595 3.50772 29.2784 3.55883 29.7499 3.75415C30.2215 3.94948 30.6245 4.28025 30.9081 4.70463C31.1916 5.12902 31.343 5.62796 31.343 6.13837C31.343 6.8228 31.0711 7.4792 30.5871 7.96317C30.1032 8.44714 29.4468 8.71903 28.7623 8.71903ZM50.6979 21.6223C50.1875 21.6223 49.6886 21.471 49.2642 21.1874C48.8398 20.9038 48.509 20.5008 48.3137 20.0292C48.1184 19.5577 48.0673 19.0388 48.1669 18.5382C48.2664 18.0376 48.5122 17.5778 48.8731 17.2169C49.234 16.8559 49.6939 16.6102 50.1945 16.5106C50.6951 16.411 51.2139 16.4621 51.6855 16.6574C52.1571 16.8528 52.5601 17.1835 52.8437 17.6079C53.1272 18.0323 53.2786 18.5313 53.2786 19.0417C53.2786 19.7261 53.0067 20.3825 52.5227 20.8665C52.0388 21.3504 51.3824 21.6223 50.6979 21.6223Z" fill="#F4A641"/>
</svg>
