<svg width="35" height="35" viewBox="0 0 35 35" fill="none" xmlns="http://www.w3.org/2000/svg">
<path d="M25.0833 17.5C20.8951 17.5 17.5 20.8951 17.5 25.0833C17.5 29.2715 20.8951 32.6667 25.0833 32.6667C29.2715 32.6667 32.6667 29.2715 32.6667 25.0833C32.6619 20.8972 29.2695 17.5048 25.0833 17.5ZM25.0833 31.5C21.5395 31.5 18.6667 28.6272 18.6667 25.0833C18.6667 21.5395 21.5395 18.6667 25.0833 18.6667C28.6272 18.6667 31.5 21.5395 31.5 25.0833C31.4958 28.6254 28.6254 31.4958 25.0833 31.5Z" fill="white"/>
<path d="M28.583 22.7499C28.583 21.7834 27.7995 20.9999 26.833 20.9999H26.2497V19.8333H25.083V20.9999H24.5043L24.5137 19.8379L23.347 19.8286L23.3377 20.9999H21.583V22.1666H22.7497V27.9999H21.583V29.1666H23.3377L23.347 30.3379L24.5137 30.3286L24.5043 29.1666H25.083V30.3333H26.2497V29.1666H26.833C27.7995 29.1666 28.583 28.3831 28.583 27.4166V26.2499C28.5815 25.8181 28.4193 25.4021 28.128 25.0833C28.4193 24.7644 28.5815 24.3485 28.583 23.9166V22.7499ZM27.4163 27.4166C27.4163 27.7388 27.1552 27.9999 26.833 27.9999H23.9163V25.6666H26.833C27.1552 25.6666 27.4163 25.9278 27.4163 26.2499V27.4166ZM27.4163 23.9166C27.4163 24.2388 27.1552 24.4999 26.833 24.4999H23.9163V22.1666H26.833C27.1552 22.1666 27.4163 22.4278 27.4163 22.7499V23.9166Z" fill="#F4A641"/>
<path d="M25.0837 15.1666C19.6068 15.1666 15.167 19.6064 15.167 25.0833C15.167 30.5601 19.6068 35 25.0837 35C30.5605 35 35.0003 30.5601 35.0003 25.0833C34.9942 19.609 30.558 15.1728 25.0837 15.1666ZM25.0837 33.8333C20.2512 33.8333 16.3337 29.9158 16.3337 25.0833C16.3337 20.2508 20.2512 16.3333 25.0837 16.3333C29.9161 16.3333 33.8337 20.2508 33.8337 25.0833C33.8282 29.9135 29.9139 33.8278 25.0837 33.8333Z" fill="#F4A641"/>
<path d="M9.91634 2.33337C5.72815 2.33337 2.33301 5.72852 2.33301 9.91671C2.33301 14.1049 5.72815 17.5 9.91634 17.5C14.1025 17.4952 17.4949 14.1029 17.4997 9.91671C17.4997 5.72852 14.1045 2.33337 9.91634 2.33337ZM9.91634 16.3334C6.37427 16.3292 3.50383 13.4588 3.49967 9.91671C3.49967 6.37288 6.37252 3.50004 9.91634 3.50004C13.4602 3.50004 16.333 6.37288 16.333 9.91671C16.333 13.4605 13.4602 16.3334 9.91634 16.3334Z" fill="white"/>
<path d="M9.91667 0C4.43982 0 0 4.43982 0 9.91667C0 15.3935 4.43982 19.8333 9.91667 19.8333C15.391 19.8272 19.8272 15.391 19.8333 9.91667C19.8333 4.43982 15.3935 0 9.91667 0ZM9.91667 18.6667C5.08645 18.6612 1.17214 14.7469 1.16667 9.91667C1.16667 5.08419 5.08419 1.16667 9.91667 1.16667C14.7491 1.16667 18.6667 5.08419 18.6667 9.91667C18.6667 14.7491 14.7491 18.6667 9.91667 18.6667Z" fill="#F4A641"/>
<path d="M9.91667 9.33329C8.96817 9.33329 8.16667 8.79896 8.16667 8.16663C8.16667 7.53429 8.96817 6.99996 9.91667 6.99996C10.8652 6.99996 11.6667 7.53429 11.6667 8.16663C11.6667 8.48877 11.9279 8.74996 12.25 8.74996C12.5721 8.74996 12.8333 8.48877 12.8333 8.16663C12.8333 7.03963 11.8294 6.09754 10.5 5.88054V4.66663H9.33333V5.88054C8.00392 6.09754 7 7.03963 7 8.16663C7 9.45346 8.30842 10.5 9.91667 10.5C10.8652 10.5 11.6667 11.0343 11.6667 11.6666C11.6667 12.299 10.8652 12.8333 9.91667 12.8333C8.96817 12.8333 8.16667 12.299 8.16667 11.6666C8.16667 11.3445 7.90548 11.0833 7.58333 11.0833C7.26119 11.0833 7 11.3445 7 11.6666C7 12.7936 8.00392 13.7357 9.33333 13.9527V15.1666H10.5V13.9527C11.8294 13.7357 12.8333 12.7936 12.8333 11.6666C12.8333 10.3798 11.5249 9.33329 9.91667 9.33329Z" fill="#F4A641"/>
<path d="M25.083 5.83334H22.4078L23.8866 4.35401L23.0617 3.52917L20.1748 6.41667L23.0617 9.30417L23.8866 8.47934L22.4078 7.00001H25.083C27.9811 7.00322 30.3298 9.35186 30.333 12.25V15.1667H31.4996V12.25C31.4955 8.70793 28.625 5.8375 25.083 5.83334Z" fill="#F4A641"/>
<path d="M11.3546 25.6959L10.5297 26.5207L12.0085 28H9.91667C7.01852 27.9968 4.66987 25.6482 4.66667 22.75V19.8334H3.5V22.75C3.50416 26.2921 6.37459 29.1626 9.91667 29.1667H12.0085L10.5297 30.646L11.3546 31.4709L14.2415 28.5834L11.3546 25.6959Z" fill="white"/>
</svg>
