<svg width="170" height="40" viewBox="0 0 170 40" fill="none" xmlns="http://www.w3.org/2000/svg">
<path d="M51.1758 27.9998H63.1278V24.3998H55.4238V10.8398H51.1758V27.9998Z" fill="#C3C4C3"/>
<path d="M70.2092 25.6C68.5052 25.6 67.6172 24.112 67.6172 21.88C67.6172 19.648 68.5052 18.136 70.2092 18.136C71.9132 18.136 72.8252 19.648 72.8252 21.88C72.8252 24.112 71.9132 25.6 70.2092 25.6ZM70.2332 28.384C74.1932 28.384 76.7852 25.576 76.7852 21.88C76.7852 18.184 74.1932 15.376 70.2332 15.376C66.2972 15.376 63.6572 18.184 63.6572 21.88C63.6572 25.576 66.2972 28.384 70.2332 28.384Z" fill="#C3C4C3"/>
<path d="M83.639 32.2481C85.463 32.2481 87.071 31.84 88.151 30.8801C89.135 29.9921 89.783 28.6481 89.783 26.8001V15.7121H86.039V17.0321H85.991C85.271 16.0001 84.167 15.3521 82.535 15.3521C79.487 15.3521 77.375 17.8961 77.375 21.4961C77.375 25.2641 79.943 27.3281 82.703 27.3281C84.191 27.3281 85.127 26.7281 85.847 25.9121H85.943V27.1361C85.943 28.6241 85.247 29.4881 83.591 29.4881C82.295 29.4881 81.647 28.9361 81.431 28.2881H77.639C78.023 30.8561 80.255 32.2481 83.639 32.2481ZM83.615 24.4241C82.151 24.4241 81.191 23.2241 81.191 21.3761C81.191 19.5041 82.151 18.3041 83.615 18.3041C85.247 18.3041 86.111 19.6961 86.111 21.3521C86.111 23.0801 85.319 24.4241 83.615 24.4241Z" fill="#C3C4C3"/>
<path d="M97.4817 25.6C95.7777 25.6 94.8897 24.112 94.8897 21.88C94.8897 19.648 95.7777 18.136 97.4817 18.136C99.1857 18.136 100.098 19.648 100.098 21.88C100.098 24.112 99.1857 25.6 97.4817 25.6ZM97.5057 28.384C101.466 28.384 104.058 25.576 104.058 21.88C104.058 18.184 101.466 15.376 97.5057 15.376C93.5697 15.376 90.9297 18.184 90.9297 21.88C90.9297 25.576 93.5697 28.384 97.5057 28.384Z" fill="#C3C4C3"/>
<path d="M105.199 27.9998H109.111V15.7118H105.199V27.9998ZM105.199 14.0078H109.111V10.8398H105.199V14.0078Z" fill="#C3C4C3"/>
<path d="M110.811 32.0561H114.723V26.7281H114.771C115.539 27.76 116.667 28.3841 118.251 28.3841C121.467 28.3841 123.603 25.8401 123.603 21.8561C123.603 18.1601 121.611 15.3521 118.347 15.3521C116.667 15.3521 115.467 16.0961 114.627 17.2001H114.555V15.7121H110.811V32.0561ZM117.243 25.3601C115.563 25.3601 114.603 23.9921 114.603 22.0001C114.603 20.0081 115.467 18.4961 117.171 18.4961C118.851 18.4961 119.643 19.8881 119.643 22.0001C119.643 24.0881 118.731 25.3601 117.243 25.3601Z" fill="#C3C4C3"/>
<path d="M129.971 28.3841C133.187 28.3841 135.563 26.9921 135.563 24.3041C135.563 21.1601 133.019 20.6081 130.859 20.2481C129.299 19.9601 127.907 19.8401 127.907 18.9761C127.907 18.2081 128.651 17.8481 129.611 17.8481C130.691 17.8481 131.435 18.1841 131.579 19.2881H135.179C134.987 16.8641 133.115 15.3521 129.635 15.3521C126.731 15.3521 124.331 16.6961 124.331 19.2881C124.331 22.1681 126.611 22.7441 128.747 23.1041C130.379 23.3921 131.867 23.5121 131.867 24.6161C131.867 25.4081 131.123 25.8401 129.947 25.8401C128.651 25.8401 127.835 25.2401 127.691 24.0161H123.995C124.115 26.7281 126.371 28.3841 129.971 28.3841Z" fill="#C3C4C3"/>
<path d="M140.877 28.3599C142.581 28.3599 143.661 27.6879 144.549 26.4879H144.621V27.9999H148.365V15.7119H144.453V22.5759C144.453 24.0399 143.637 25.0479 142.293 25.0479C141.045 25.0479 140.445 24.3039 140.445 22.9599V15.7119H136.557V23.7759C136.557 26.5119 138.045 28.3599 140.877 28.3599Z" fill="#C3C4C3"/>
<path d="M150.066 28.0001H153.978V21.1121C153.978 19.6481 154.698 18.6161 155.922 18.6161C157.098 18.6161 157.65 19.384 157.65 20.7041V28.0001H161.562V21.1121C161.562 19.6481 162.258 18.6161 163.506 18.6161C164.682 18.6161 165.234 19.384 165.234 20.7041V28.0001H169.146V20.0081C169.146 17.2481 167.754 15.3521 164.97 15.3521C163.386 15.3521 162.066 16.0241 161.106 17.5121H161.058C160.434 16.1921 159.21 15.3521 157.602 15.3521C155.826 15.3521 154.65 16.1921 153.882 17.4641H153.81V15.7121H150.066V28.0001Z" fill="#C3C4C3"/>
<path fill-rule="evenodd" clip-rule="evenodd" d="M20 40C31.0457 40 40 31.0457 40 20C40 8.95431 31.0457 0 20 0C8.95429 0 0 8.95431 0 20C0 31.0457 8.95429 40 20 40ZM26.2393 9.31684C26.543 8.23805 25.4961 7.60013 24.54 8.2813L11.1931 17.7896C10.1562 18.5283 10.3193 20 11.4381 20H14.9527V19.9728H21.8025L16.2212 21.9421L13.7607 30.6832C13.457 31.762 14.5038 32.3999 15.46 31.7187L28.8069 22.2105C29.8438 21.4718 29.6806 20 28.5619 20H23.2321L26.2393 9.31684Z" fill="#F4A641"/>
</svg>
