<svg width="81" height="81" viewBox="0 0 81 81" fill="none" xmlns="http://www.w3.org/2000/svg">
<path d="M63.3508 46.6199C54.5379 46.6199 47.3056 53.4574 46.6424 62.1038H45.2863C44.574 62.1038 43.996 61.5245 43.996 60.8135V40.1683C43.996 39.4574 44.574 38.878 45.2863 38.878H64.6411C68.1211 38.878 71.3882 37.3361 73.605 34.6483C75.8205 31.9606 76.7031 28.4251 76.0282 24.949C75.1392 20.367 71.4553 16.7154 66.8618 15.8599C65.8979 15.6793 64.9289 15.6212 63.9714 15.6754C62.3792 11.1606 58.0824 7.91027 53.0282 7.91027C51.636 7.91027 50.2798 8.15672 48.9831 8.64446C45.6889 3.38769 39.9276 0.168335 33.6734 0.168335C24.6682 0.168335 17.0669 6.8793 15.8076 15.6625C14.974 15.647 14.1327 15.7141 13.2927 15.878C8.74952 16.7606 5.10306 20.4058 4.22177 24.9477C3.54694 28.4251 4.42952 31.9606 6.645 34.6483C8.86177 37.3361 12.1289 38.878 15.6089 38.878H34.9637C35.676 38.878 36.254 39.4574 36.254 40.1683V58.2328C36.254 58.9438 35.676 59.5232 34.9637 59.5232H33.6734V47.9103C33.6734 44.3528 30.7792 41.4587 27.2218 41.4587H6.57661C3.01919 41.4587 0.125 44.3528 0.125 47.9103V73.7167C0.125 77.2741 3.01919 80.1683 6.57661 80.1683H27.2218C30.7792 80.1683 33.6734 77.2741 33.6734 73.7167V62.1038H34.9637C37.0979 62.1038 38.8347 60.367 38.8347 58.2328V40.1683C38.8347 38.0341 37.0979 36.2974 34.9637 36.2974H15.6089C12.9005 36.2974 10.3598 35.0974 8.63597 33.007C6.9121 30.9167 6.22694 28.158 6.75468 25.4406C7.43855 21.9206 10.2644 19.0961 13.7844 18.4109C16.5031 17.8845 19.2592 18.5683 21.3495 20.2922C23.4411 22.0161 24.6411 24.558 24.6411 27.2651H27.2218C27.2218 23.7838 25.6798 20.5167 22.9921 18.3012C21.6282 17.1774 20.0463 16.3993 18.3637 15.9916C19.4579 8.48188 25.9676 2.74898 33.6734 2.74898C39.3753 2.74898 44.5998 5.87027 47.3095 10.8961L47.9018 11.9941L49.0192 11.4393C50.2863 10.8096 51.6347 10.4909 53.0282 10.4909C58.0076 10.4909 62.0605 14.5425 62.0605 19.5232C62.0605 24.5038 58.0076 28.5554 53.0282 28.5554V31.1361C59.4321 31.1361 64.6411 25.9258 64.6411 19.5232C64.6411 19.0922 64.614 18.669 64.5676 18.2496C65.1727 18.2445 65.7805 18.2819 66.3895 18.3954C69.9495 19.0587 72.8063 21.8896 73.4953 25.4393C74.0231 28.1567 73.3379 30.9154 71.614 33.0058C69.8902 35.0974 67.3495 36.2974 64.6411 36.2974H45.2863C43.1521 36.2974 41.4153 38.0341 41.4153 40.1683V60.8135C41.4153 62.9477 43.1521 64.6845 45.2863 64.6845H46.6424C47.3056 73.3309 54.5379 80.1683 63.3508 80.1683C72.5998 80.1683 80.125 72.6432 80.125 63.3941C80.125 54.1451 72.5998 46.6199 63.3508 46.6199ZM6.57661 44.0393H27.2218C29.356 44.0393 31.0927 45.7761 31.0927 47.9103V67.2651H2.70565V47.9103C2.70565 45.7761 4.44242 44.0393 6.57661 44.0393ZM27.2218 77.5877H6.57661C4.44242 77.5877 2.70565 75.8509 2.70565 73.7167V69.8457H31.0927V73.7167C31.0927 75.8509 29.356 77.5877 27.2218 77.5877ZM63.3508 49.2006C71.1766 49.2006 77.5443 55.5683 77.5443 63.3941C77.5443 66.3232 76.6515 69.047 75.1263 71.3103C73.7908 68.4793 71.3844 66.3322 68.4618 65.3245C70.0708 63.9038 71.0927 61.8328 71.0927 59.5232C71.0927 55.2535 67.6205 51.7812 63.3508 51.7812C59.0811 51.7812 55.6089 55.2535 55.6089 59.5232C55.6089 61.8328 56.6308 63.9038 58.2411 65.3245C55.3185 66.3335 52.9134 68.4806 51.5766 71.3103C50.0502 69.047 49.1573 66.3232 49.1573 63.3941C49.1573 55.5683 55.525 49.2006 63.3508 49.2006ZM58.1895 59.5232C58.1895 56.6767 60.5044 54.3619 63.3508 54.3619C66.1973 54.3619 68.5121 56.6767 68.5121 59.5232C68.5121 62.3696 66.1973 64.6845 63.3508 64.6845C60.5044 64.6845 58.1895 62.3696 58.1895 59.5232ZM53.4798 73.5722C54.6605 69.8341 58.0785 67.2651 62.0605 67.2651H64.6411C68.6256 67.2651 72.0437 69.8341 73.2218 73.5722C70.6644 76.0522 67.1856 77.5877 63.3508 77.5877C59.516 77.5877 56.0373 76.0522 53.4798 73.5722Z" fill="#F4A641"/>
<path d="M7.86678 54.3619H25.9313C27.3545 54.3619 28.5119 53.2045 28.5119 51.7813V49.2006C28.5119 47.7774 27.3545 46.62 25.9313 46.62H7.86678C6.44355 46.62 5.28613 47.7774 5.28613 49.2006V51.7813C5.28613 53.2045 6.44355 54.3619 7.86678 54.3619ZM7.86678 49.2006H25.9313L25.9326 51.7813H7.86678V49.2006Z" fill="white"/>
<path d="M7.86678 64.6844H25.9313C27.3545 64.6844 28.5119 63.527 28.5119 62.1038V59.5231C28.5119 58.0999 27.3545 56.9425 25.9313 56.9425H7.86678C6.44355 56.9425 5.28613 58.0999 5.28613 59.5231V62.1038C5.28613 63.527 6.44355 64.6844 7.86678 64.6844ZM7.86678 59.5231H25.9313L25.9326 62.1038H7.86678V59.5231Z" fill="white"/>
<path d="M25.9316 72.4264H28.5123V75.007H25.9316V72.4264Z" fill="white"/>
<path d="M20.7705 72.4264H23.3512V75.007H20.7705V72.4264Z" fill="white"/>
<path d="M15.6084 72.4264H18.189V75.007H15.6084V72.4264Z" fill="white"/>
<path d="M19.4794 27.2651H22.06C22.06 23.7077 19.1658 20.8135 15.6084 20.8135V23.3941C17.7426 23.3941 19.4794 25.1309 19.4794 27.2651Z" fill="white"/>
<path d="M45.2351 12.496C43.0377 8.0754 38.608 5.32959 33.6738 5.32959V7.91023C37.6222 7.91023 41.1667 10.1077 42.9241 13.6457L45.2351 12.496Z" fill="white"/>
<path d="M56.8993 19.5232C56.8993 21.6574 55.1625 23.3942 53.0283 23.3942V25.9748C56.5857 25.9748 59.4799 23.0806 59.4799 19.5232H56.8993Z" fill="white"/>
<path d="M15.6084 31.1361H18.189V33.7168H15.6084V31.1361Z" fill="white"/>
<path d="M20.7705 31.1361H23.3512V33.7168H20.7705V31.1361Z" fill="white"/>
<path d="M25.9316 31.1361H28.5123V33.7168H25.9316V31.1361Z" fill="white"/>
</svg>
