<svg width="94" height="80" viewBox="0 0 94 80" fill="none" xmlns="http://www.w3.org/2000/svg">
<path d="M73.0906 50.9091C74.0942 50.9091 74.9088 50.0944 74.9088 49.0909C74.9088 48.0873 74.0942 47.2727 73.0906 47.2727C72.0871 47.2727 71.2725 48.0873 71.2725 49.0909C71.2725 50.0944 72.0871 50.9091 73.0906 50.9091Z" fill="white"/>
<path d="M19.9998 50.9091C21.0034 50.9091 21.818 50.0944 21.818 49.0909C21.818 48.0873 21.0034 47.2727 19.9998 47.2727C18.9963 47.2727 18.1816 48.0873 18.1816 49.0909C18.1816 50.0944 18.9963 50.9091 19.9998 50.9091Z" fill="white"/>
<path d="M28.0005 50.1072C27.2207 49.4751 26.0758 49.5951 25.4437 50.3756C24.8116 51.1555 24.9316 52.3003 25.7115 52.9324C27.8592 54.6725 29.0907 57.2485 29.0907 59.9999C29.0907 65.0127 25.0126 69.0908 19.9998 69.0908C18.9956 69.0908 18.1816 69.9047 18.1816 70.909C18.1816 71.9133 18.9956 72.7272 19.9998 72.7272C27.0176 72.7272 32.7271 67.0177 32.7271 59.9999C32.7271 56.1462 31.0041 52.5404 28.0005 50.1072Z" fill="white"/>
<path d="M89.9957 49.3097C72.5121 10.7827 73.3146 12.4943 73.1776 12.2805C71.8658 10.2443 69.8942 8.70099 67.6364 7.89915V7.27273C67.6364 3.26278 64.3736 0 60.3636 0C56.3537 0 53.0909 3.26278 53.0909 7.27273V21.8182H40C40 20.1229 40 9.48438 40 7.27273C40 3.26278 36.7372 0 32.7273 0C28.7173 0 25.4545 3.26278 25.4545 7.27273V7.89915C23.1953 8.7017 21.2251 10.245 19.9134 12.2805C19.777 12.4922 20.5838 10.7727 3.09446 49.3104C1.06179 52.5263 0 56.1903 0 60C0 71.0277 8.9723 80 20 80C31.0277 80 40 71.0277 40 60V54.5455H53.0909V60C53.0909 71.0277 62.0632 80 73.0909 80C84.1186 80 93.0909 71.0277 93.0909 60C93.0909 56.1967 92.032 52.5298 89.9957 49.3097ZM56.7273 32.7273C56.7273 26.7116 61.6207 21.8182 67.6364 21.8182C70.2436 21.8182 72.7436 22.745 74.718 24.4318L82.9567 42.5938C79.9993 40.9176 76.6179 40 73.0909 40C66.3338 40 60.3501 43.3686 56.7273 48.5142V32.7273ZM70.0511 14.1449L72.218 18.9205C70.7543 18.4354 69.2102 18.1818 67.6364 18.1818C63.2947 18.1818 59.3949 20.0959 56.7273 23.1215C56.7273 20.2962 56.7273 20.9524 56.7273 18.1818C56.7273 14.1719 59.9901 10.9091 64 10.9091C66.4553 10.9091 68.7159 12.1499 70.0511 14.1449ZM60.3636 3.63636C62.3686 3.63636 64 5.26776 64 7.27273C61.2081 7.27273 58.6591 8.32812 56.7273 10.0597V7.27273C56.7273 5.26776 58.3587 3.63636 60.3636 3.63636ZM53.0909 25.4545V43.6364H40V25.4545H53.0909ZM18.3729 24.4318C20.3473 22.745 22.8473 21.8182 25.4545 21.8182C31.4702 21.8182 36.3636 26.7116 36.3636 32.7273V48.5142C32.7408 43.3686 26.7571 40 20 40C16.473 40 13.0916 40.9176 10.1342 42.5945L18.3729 24.4318ZM32.7273 3.63636C34.7322 3.63636 36.3636 5.26776 36.3636 7.27273V10.0597C34.4318 8.32812 31.8828 7.27273 29.0909 7.27273C29.0909 5.26776 30.7223 3.63636 32.7273 3.63636ZM23.0398 14.1449C24.3743 12.1506 26.6342 10.9091 29.0909 10.9091C33.1009 10.9091 36.3636 14.1719 36.3636 18.1818V23.1215C33.696 20.0959 29.7962 18.1818 25.4545 18.1818C23.8814 18.1818 22.3366 18.4354 20.8729 18.9205L23.0398 14.1449ZM20 76.3636C10.9773 76.3636 3.63636 69.0227 3.63636 60C3.63636 56.843 4.52628 53.809 6.22656 51.1605C6.22727 51.1591 6.22798 51.1577 6.22869 51.1562C6.2294 51.1555 6.23011 51.1548 6.23011 51.1541C9.26278 46.4467 14.4105 43.6364 20 43.6364C29.0227 43.6364 36.3636 50.9773 36.3636 60C36.3636 69.0227 29.0227 76.3636 20 76.3636ZM40 50.9091V47.2727H53.0909V50.9091H40ZM73.0909 76.3636C64.0682 76.3636 56.7273 69.0227 56.7273 60C56.7273 50.9773 64.0682 43.6364 73.0909 43.6364C78.6804 43.6364 83.8274 46.446 86.8601 51.1534C86.8608 51.1548 86.8615 51.1562 86.8629 51.157C86.8629 51.1577 86.8636 51.1584 86.8643 51.1598C88.5625 53.8068 89.4546 56.8402 89.4546 60C89.4546 69.0227 82.1136 76.3636 73.0909 76.3636Z" fill="#F4A641"/>
<path d="M81.0942 50.0988C80.3144 49.4659 79.1688 49.586 78.5367 50.3658C77.9046 51.1456 78.0239 52.2905 78.8037 52.9233C80.8669 54.5959 82.1816 57.1364 82.1816 60C82.1816 65.0128 78.1034 69.0909 73.0906 69.0909C72.0864 69.0909 71.2725 69.9049 71.2725 70.9091C71.2725 71.9134 72.0864 72.7273 73.0906 72.7273C80.1084 72.7273 85.8179 67.0178 85.8179 60C85.8179 56.0313 84.0012 52.4567 81.0942 50.0988Z" fill="white"/>
</svg>
