<svg width="80" height="80" viewBox="0 0 80 80" fill="none" xmlns="http://www.w3.org/2000/svg">
<path d="M7.0325 80.0001C5.16819 79.9982 3.38079 79.2568 2.06241 77.9386C0.744022 76.6205 0.00231609 74.8332 0 72.9689L0 30.0001C0.00270144 28.3191 0.606645 26.6944 1.70269 25.4198C2.79873 24.1452 4.31456 23.3047 5.97625 23.0501C6.68944 22.9691 7.40779 22.9427 8.125 22.9714C8.25258 22.9713 8.37846 22.942 8.49305 22.8859C8.60763 22.8298 8.70791 22.7483 8.78625 22.6476L25.8838 0.661389C26.1603 0.306779 26.5648 0.0747572 27.0105 0.0151583C27.4562 -0.0444406 27.9075 0.0731376 28.2675 0.342638L37.1025 6.96764C37.2357 7.06766 37.3958 7.12561 37.5621 7.13407C37.7285 7.14254 37.8936 7.10112 38.0363 7.01514L49.3262 0.250139C49.7035 0.0228423 50.1537 -0.0507189 50.5837 0.0446774C51.0137 0.140074 51.3905 0.397125 51.6362 0.762639L66.325 22.7976C66.445 22.9772 66.6293 23.1038 66.84 23.1514C68.3951 23.5052 69.785 24.3743 70.7839 25.6176C71.7828 26.8609 72.3321 28.4053 72.3425 30.0001V40.0001C72.3425 40.2223 72.4307 40.4353 72.5878 40.5923C72.7449 40.7494 72.9579 40.8376 73.18 40.8376H78.285C78.7397 40.838 79.1758 41.0188 79.4973 41.3403C79.8189 41.6619 79.9997 42.0979 80 42.5526V57.8664C79.9993 58.321 79.8184 58.7569 79.497 59.0783C79.1755 59.3998 78.7396 59.5807 78.285 59.5814H60.4187C57.9751 59.5183 55.6527 58.5032 53.9466 56.7525C52.2406 55.0018 51.2858 52.654 51.2858 50.2095C51.2858 47.765 52.2406 45.4172 53.9466 43.6665C55.6527 41.9158 57.9751 40.9007 60.4187 40.8376H68.0762C68.2984 40.8376 68.5114 40.7494 68.6684 40.5923C68.8255 40.4353 68.9137 40.2223 68.9137 40.0001V30.0001C68.9124 29.0449 68.5323 28.1292 67.8567 27.4538C67.1811 26.7785 66.2653 26.3986 65.31 26.3976H7.0325C6.07736 26.3986 5.16163 26.7785 4.48624 27.4539C3.81086 28.1293 3.43099 29.045 3.43 30.0001V72.9689C3.43132 73.9238 3.81134 74.8392 4.48669 75.5143C5.16203 76.1895 6.07758 76.5691 7.0325 76.5701H65.31C66.2651 76.5695 67.181 76.1899 67.8566 75.5148C68.5322 74.8396 68.9124 73.924 68.9137 72.9689V65.5239C68.9076 65.2949 68.9473 65.0669 69.0307 64.8535C69.1141 64.6401 69.2394 64.4456 69.3992 64.2814C69.559 64.1172 69.7501 63.9867 69.9611 63.8976C70.1722 63.8085 70.399 63.7626 70.6281 63.7626C70.8572 63.7626 71.084 63.8085 71.2951 63.8976C71.5062 63.9867 71.6973 64.1172 71.8571 64.2814C72.0169 64.4456 72.1422 64.6401 72.2255 64.8535C72.3089 65.0669 72.3487 65.2949 72.3425 65.5239V72.9689C72.3405 74.8333 71.5989 76.6208 70.2805 77.939C68.962 79.2572 67.1744 79.9985 65.31 80.0001H7.0325ZM60.4187 44.2664C58.8427 44.2664 57.3312 44.8925 56.2168 46.0069C55.1023 47.1213 54.4762 48.6328 54.4762 50.2089C54.4762 51.7849 55.1023 53.2964 56.2168 54.4109C57.3312 55.5253 58.8427 56.1514 60.4187 56.1514H75.7325C75.9546 56.1514 76.1676 56.0632 76.3247 55.9061C76.4818 55.749 76.57 55.536 76.57 55.3139V45.1051C76.5702 44.9951 76.5486 44.886 76.5066 44.7843C76.4646 44.6825 76.4029 44.59 76.3251 44.5121C76.2474 44.4342 76.155 44.3724 76.0533 44.3303C75.9516 44.2881 75.8426 44.2664 75.7325 44.2664H60.4187ZM49 4.43514L41.5837 8.88889C41.4662 8.95975 41.3678 9.05839 41.2972 9.17615C41.2266 9.29392 41.186 9.42721 41.179 9.56432C41.172 9.70144 41.1987 9.83818 41.2568 9.96255C41.315 10.0869 41.4028 10.1951 41.5125 10.2776C59.1125 23.4026 58.1875 22.9714 58.7175 22.9714H60.75C60.9016 22.9713 61.0504 22.9301 61.1804 22.8522C61.3104 22.7742 61.4168 22.6624 61.4883 22.5287C61.5598 22.395 61.5936 22.2444 61.5862 22.093C61.5788 21.9416 61.5304 21.795 61.4463 21.6689L50.1325 4.68889C50.0126 4.509 49.828 4.38225 49.6171 4.33498C49.4062 4.28772 49.1852 4.32359 49 4.43514ZM30.7413 13.0501C46.3025 23.3626 45.3962 22.9714 45.8775 22.9714H50.21C50.3855 22.9704 50.5563 22.9144 50.6983 22.8113C50.8403 22.7082 50.9464 22.5631 51.0016 22.3965C51.0568 22.2299 51.0584 22.0502 51.0061 21.8827C50.9537 21.7151 50.8502 21.5682 50.71 21.4626L28.21 4.58764C28.0344 4.45575 27.8141 4.3981 27.5964 4.42709C27.3788 4.45608 27.1812 4.5694 27.0462 4.74264L13.9213 21.6176C13.8252 21.7415 13.7659 21.8899 13.7499 22.0458C13.7339 22.2017 13.7619 22.359 13.8307 22.4998C13.8996 22.6406 14.0065 22.7593 14.1394 22.8424C14.2722 22.9256 14.4258 22.9698 14.5825 22.9701H20.85C20.98 22.9698 21.1081 22.9394 21.2243 22.8813C21.3406 22.8232 21.4418 22.7389 21.52 22.6351L28.41 13.4476C28.6723 13.0936 29.0613 12.8545 29.4958 12.7804C29.9302 12.7064 30.3764 12.803 30.7413 13.0501ZM29.7137 17.4351L26.5675 21.6251C26.4743 21.7497 26.4176 21.8977 26.4037 22.0526C26.3898 22.2076 26.4192 22.3633 26.4887 22.5025C26.5582 22.6416 26.6651 22.7587 26.7973 22.8406C26.9295 22.9226 27.0819 22.9661 27.2375 22.9664H36.675C36.8545 22.9658 37.0291 22.9076 37.1732 22.8004C37.3172 22.6932 37.423 22.5426 37.475 22.3708C37.5271 22.199 37.5226 22.015 37.4623 21.8459C37.402 21.6768 37.289 21.5315 37.14 21.4314L30.8488 17.2364C30.67 17.1183 30.4528 17.0731 30.2417 17.11C30.0307 17.147 29.8418 17.2633 29.7137 17.4351Z" fill="#F4A641"/>
<path d="M62.9711 52.2999C64.1261 52.2999 65.0624 51.3636 65.0624 50.2087C65.0624 49.0537 64.1261 48.1174 62.9711 48.1174C61.8162 48.1174 60.8799 49.0537 60.8799 50.2087C60.8799 51.3636 61.8162 52.2999 62.9711 52.2999Z" fill="white"/>
<path d="M32.3429 69.7901C31.8879 69.7904 31.4514 69.6101 31.1294 69.2887C30.8073 68.9674 30.626 68.5313 30.6254 68.0763V65.5238C30.6254 65.3017 30.5371 65.0887 30.3801 64.9316C30.223 64.7746 30.01 64.6863 29.7879 64.6863H27.2391C27.0169 64.6863 26.8037 64.7745 26.6465 64.9315C26.4892 65.0886 26.4007 65.3016 26.4004 65.5238V68.0763C26.3883 68.523 26.2024 68.9473 25.8822 69.259C25.562 69.5706 25.1328 69.745 24.686 69.745C24.2392 69.745 23.81 69.5706 23.4898 69.259C23.1696 68.9473 22.9837 68.523 22.9716 68.0763V65.5238C22.9716 65.3017 22.8834 65.0887 22.7263 64.9316C22.5692 64.7746 22.3562 64.6863 22.1341 64.6863H19.5816C19.1268 64.6863 18.6905 64.5056 18.3689 64.184C18.0473 63.8624 17.8666 63.4262 17.8666 62.9713C17.8666 62.5165 18.0473 62.0803 18.3689 61.7586C18.6905 61.437 19.1268 61.2563 19.5816 61.2563H22.1341C22.2441 61.2563 22.353 61.2347 22.4546 61.1926C22.5562 61.1505 22.6485 61.0888 22.7263 61.011C22.8041 60.9333 22.8658 60.8409 22.9079 60.7393C22.9499 60.6377 22.9716 60.5288 22.9716 60.4188V45.1051C22.9718 44.995 22.9502 44.8859 22.9082 44.7842C22.8662 44.6824 22.8045 44.59 22.7268 44.5121C22.649 44.4342 22.5566 44.3724 22.4549 44.3302C22.3532 44.288 22.2442 44.2663 22.1341 44.2663H19.5816C19.3526 44.2725 19.1246 44.2327 18.9112 44.1494C18.6978 44.066 18.5033 43.9407 18.3391 43.7809C18.1749 43.6211 18.0444 43.43 17.9553 43.2189C17.8662 43.0079 17.8203 42.7811 17.8203 42.5519C17.8203 42.3228 17.8662 42.096 17.9553 41.885C18.0444 41.6739 18.1749 41.4828 18.3391 41.323C18.5033 41.1632 18.6978 41.0379 18.9112 40.9545C19.1246 40.8712 19.3526 40.8314 19.5816 40.8376H22.1341C22.3562 40.8376 22.5692 40.7493 22.7263 40.5923C22.8834 40.4352 22.9716 40.2222 22.9716 40.0001V37.4476C22.9654 37.2185 23.0052 36.9906 23.0886 36.7772C23.1719 36.5638 23.2972 36.3693 23.457 36.2051C23.6168 36.0409 23.8079 35.9104 24.019 35.8213C24.2301 35.7322 24.4569 35.6863 24.686 35.6863C24.9151 35.6863 25.1419 35.7322 25.353 35.8213C25.564 35.9104 25.7551 36.0409 25.9149 36.2051C26.0747 36.3693 26.2 36.5638 26.2834 36.7772C26.3668 36.9906 26.4065 37.2185 26.4004 37.4476V40.0001C26.4007 40.2223 26.4892 40.4353 26.6465 40.5924C26.8037 40.7494 27.0169 40.8376 27.2391 40.8376H29.7916C30.0131 40.8366 30.2251 40.7479 30.3814 40.591C30.5376 40.434 30.6254 40.2215 30.6254 40.0001V37.4476C30.6192 37.2185 30.6589 36.9906 30.7423 36.7772C30.8257 36.5638 30.951 36.3693 31.1108 36.2051C31.2706 36.0409 31.4617 35.9104 31.6728 35.8213C31.8838 35.7322 32.1106 35.6863 32.3397 35.6863C32.5688 35.6863 32.7956 35.7322 33.0067 35.8213C33.2178 35.9104 33.4089 36.0409 33.5687 36.2051C33.7285 36.3693 33.8538 36.5638 33.9371 36.7772C34.0205 36.9906 34.0603 37.2185 34.0541 37.4476V40.4701C34.0541 40.6429 34.1076 40.8114 34.2072 40.9526C34.3068 41.0938 34.4476 41.2008 34.6104 41.2588C35.5487 41.5843 36.4037 42.1129 37.1144 42.8068C37.825 43.5008 38.3737 44.343 38.7213 45.2734C39.069 46.2038 39.207 47.1995 39.1256 48.1893C39.0442 49.1792 38.7454 50.139 38.2504 51.0001C38.1429 51.1875 38.1121 51.4092 38.1642 51.6189C38.2164 51.8285 38.3476 52.0099 38.5304 52.1251C39.7752 52.9147 40.7304 54.0868 41.2525 55.4653C41.7747 56.8439 41.8357 58.3547 41.4263 59.7708C41.017 61.187 40.1594 62.4323 38.9823 63.3197C37.8052 64.2071 36.372 64.6888 34.8979 64.6926C34.6757 64.6926 34.4627 64.7808 34.3057 64.9379C34.1486 65.0949 34.0604 65.308 34.0604 65.5301V68.0826C34.058 68.5364 33.876 68.9709 33.5542 69.2909C33.2323 69.6109 32.7967 69.7904 32.3429 69.7901ZM27.2391 54.4763C27.0169 54.4763 26.8037 54.5645 26.6465 54.7215C26.4892 54.8786 26.4007 55.0916 26.4004 55.3138V60.4188C26.4007 60.6411 26.4892 60.8541 26.6465 61.0111C26.8037 61.1681 27.0169 61.2563 27.2391 61.2563H34.8954C39.3829 61.2563 39.3779 54.4763 34.8954 54.4763H27.2391ZM27.2391 44.2663C27.0167 44.2663 26.8033 44.3547 26.646 44.512C26.4887 44.6693 26.4004 44.8826 26.4004 45.1051V50.2088C26.4007 50.4312 26.4892 50.6443 26.6464 50.8015C26.8036 50.9588 27.0168 51.0472 27.2391 51.0476H32.3429C36.8304 51.0476 36.8254 44.2663 32.3429 44.2663H27.2391Z" fill="white"/>
</svg>
