<svg width="81" height="80" viewBox="0 0 81 80" fill="none" xmlns="http://www.w3.org/2000/svg">
<path d="M58.8637 46.7995V53.2962C58.8637 57.801 55.196 61.4712 50.6896 61.4721C50.6895 61.4721 50.6895 61.4721 50.6895 61.4721H27.1302C22.6239 61.4721 18.9561 57.8011 18.9561 53.2962V46.7995C18.9561 42.2937 22.6229 38.6235 27.1302 38.6235H50.6896C55.1959 38.6235 58.8637 42.2946 58.8637 46.7995ZM22.9467 46.7995V53.2962C22.9467 55.6046 24.8225 57.4805 27.1302 57.4805H50.6896C52.9963 57.4805 54.873 55.6047 54.873 53.2962V46.7995C54.873 44.491 52.9973 42.6151 50.6896 42.6151H27.1302C24.8225 42.6151 22.9467 44.491 22.9467 46.7995Z" fill="white" stroke="#F4A641"/>
<path d="M30.9284 48.0493H33.5893C34.6916 48.0493 35.5851 48.9421 35.5851 50.0451C35.5851 51.1481 34.6916 52.0409 33.5893 52.0409H30.9284C29.8261 52.0409 28.9326 51.1481 28.9326 50.0451C28.9326 48.9421 29.8261 48.0493 30.9284 48.0493Z" fill="white" stroke="#F4A641"/>
<path d="M44.2311 48.0493H46.892C47.9943 48.0493 48.8878 48.9421 48.8878 50.0451C48.8878 51.1481 47.9943 52.0409 46.892 52.0409H44.2311C43.1288 52.0409 42.2354 51.1481 42.2354 50.0451C42.2354 48.9421 43.1288 48.0493 44.2311 48.0493Z" fill="white" stroke="#F4A641"/>
<path d="M43 21.6907L43.5993 21.7206L43.5205 21.1257C43.4146 20.3256 43.3415 19.5271 43.3415 18.7156C43.3415 8.67383 51.5136 0.5 61.5571 0.5C71.6016 0.5 79.7737 8.67385 79.7737 18.7156C79.7737 27.2719 73.8317 34.4552 65.8584 36.3972L65.272 36.5401L65.5215 37.0897C66.3362 38.8846 66.9342 40.7639 67.3229 42.6922L67.4037 43.0934H67.813H68.2253C73.2172 43.0934 77.2788 47.1533 77.2788 52.146V60.8748C77.2788 63.2443 76.3583 65.5106 74.6787 67.2613C72.855 69.0086 70.5886 69.9274 68.2253 69.9274H66.92H66.5968L66.4641 70.222C64.0039 75.6835 58.5076 79.5 52.125 79.5H25.6739C19.2922 79.5 13.7949 75.6826 11.3348 70.222L11.202 69.9274H10.8789H9.55348C4.56157 69.9274 0.5 65.8674 0.5 60.8748V52.146C0.5 49.7857 1.41772 47.5191 3.09236 45.7636C4.92153 44.0119 7.18868 43.0934 9.55257 43.0934H9.97035H10.3804L10.4607 42.6913C12.8532 30.7127 23.4639 21.6576 36.1551 21.6576H41.694C42.1339 21.6576 42.568 21.6692 43 21.6907ZM5.9243 48.5724L5.91567 48.5807L5.90744 48.5893C5.02148 49.5198 4.49065 50.8124 4.49065 52.146V60.8748C4.49065 63.6591 6.75062 65.9238 9.53232 65.9349L10.0863 65.9371L10.0319 65.3858C9.98135 64.8732 9.95314 64.356 9.95314 63.8331V47.813C9.95314 47.787 9.9541 47.7598 9.95552 47.7218L9.95564 47.7186C9.95694 47.684 9.95861 47.6395 9.95861 47.5932V47.0826L9.44813 47.0933C8.14414 47.1206 6.8965 47.6443 5.9243 48.5724ZM62.6595 32.8595L62.7472 32.8838L62.8379 32.8756C70.0829 32.2252 75.7821 26.1291 75.7821 18.7156C75.7821 10.87 69.4008 4.49065 61.5571 4.49065C53.7134 4.49065 47.3331 10.87 47.3322 18.7146V18.7147C47.3322 26.5603 53.7134 32.9397 61.5571 32.9397C61.5921 32.9397 61.6238 32.9374 61.6387 32.9363L61.6413 32.9361C61.6502 32.9355 61.6544 32.9352 61.6558 32.9351H61.735L61.8129 32.9088C62.1509 32.7947 62.425 32.7944 62.6595 32.8595ZM44.937 26.1325L44.8232 25.8788L44.5476 25.8416C43.6142 25.7155 42.6715 25.6482 41.694 25.6482H36.1551C23.9091 25.6482 13.9447 35.5897 13.9447 47.813V63.8331C13.9447 70.2724 19.2079 75.5093 25.6739 75.5093H52.1241C56.0025 75.5093 59.4362 73.6168 61.5708 70.7252L62.1591 69.9283H61.1685H42.6326C41.5313 69.9283 40.6377 69.0356 40.6377 67.9325C40.6377 66.8293 41.5305 65.9367 42.6326 65.9367H63.2237H63.6561L63.7185 65.5089C63.7973 64.9688 63.8532 64.4105 63.8532 63.8331V47.813C63.8532 44.07 62.8924 40.4097 61.0755 37.1418L60.9405 36.8989L60.6629 36.8853C53.6496 36.5427 47.6693 32.2277 44.937 26.1325ZM71.8508 64.4484L71.859 64.4405L71.8669 64.4323C72.7572 63.5014 73.2872 62.213 73.2872 60.8748V52.146C73.2872 49.3955 71.0806 47.1629 68.349 47.0951L67.8301 47.0823L67.8366 47.6013C67.8372 47.6462 67.8396 47.69 67.8413 47.7224L67.8418 47.7307C67.8437 47.7676 67.8448 47.7915 67.8448 47.813V63.8331C67.8448 64.3551 67.8166 64.8722 67.766 65.3839L67.7113 65.9381L68.2682 65.933C69.593 65.9209 70.8636 65.3905 71.8508 64.4484Z" fill="white" stroke="#F4A641"/>
<path d="M63.2074 24.2664C63.2074 25.3697 62.3147 26.2622 61.2126 26.2622C60.1101 26.2622 59.2168 25.3702 59.2168 24.2664V19.7529C59.2168 18.65 60.1111 17.7571 61.2126 17.7571C62.3139 17.7571 63.2074 18.6498 63.2074 19.7529V24.2664Z" fill="white" stroke="#F4A641"/>
<path d="M63.1886 12.7425C63.1886 13.8342 62.3036 14.7191 61.212 14.7191C60.1203 14.7191 59.2354 13.8342 59.2354 12.7425C59.2354 11.6508 60.1203 10.7659 61.212 10.7659C62.3036 10.7659 63.1886 11.6508 63.1886 12.7425Z" fill="white" stroke="#F4A641"/>
</svg>
