<svg width="61" height="61" viewBox="0 0 61 61" fill="none" xmlns="http://www.w3.org/2000/svg">
<mask id="mask0_1004_659" style="mask-type:alpha" maskUnits="userSpaceOnUse" x="0" y="0" width="61" height="61">
<rect x="0.105469" y="0.402344" width="60" height="60" fill="black"/>
</mask>
<g mask="url(#mask0_1004_659)">
<path d="M30.1052 1.40234C18.2909 1.40234 8.67969 11.0136 8.67969 22.8278C8.67969 26.7172 10.424 30.9002 10.4971 31.0766C11.0604 32.4138 12.172 34.4908 12.9736 35.7083L27.6639 57.9668C28.2651 58.8793 29.1549 59.4023 30.1052 59.4023C31.0554 59.4023 31.9452 58.8793 32.5464 57.9681L47.238 35.7083C48.0408 34.4908 49.1511 32.4138 49.7145 31.0766C49.7876 30.9014 51.5306 26.7184 51.5306 22.8278C51.5306 11.0136 41.9194 1.40234 30.1052 1.40234ZM47.3905 30.0986C46.8876 31.2972 45.8529 33.2292 45.1332 34.3207L30.4417 56.5805C30.1518 57.0203 30.0598 57.0203 29.7699 56.5805L15.0783 34.3207C14.3587 33.2292 13.324 31.2959 12.8211 30.0973C12.7997 30.0457 11.2003 26.1954 11.2003 22.8278C11.2003 12.4037 19.681 3.92299 30.1052 3.92299C40.5293 3.92299 49.01 12.4037 49.01 22.8278C49.01 26.2004 47.4068 30.0608 47.3905 30.0986Z" fill="#F4A641" stroke="#F4A641" stroke-width="0.5"/>
<path d="M30.1046 11.4863C23.8496 11.4863 18.7617 16.5755 18.7617 22.8292C18.7617 29.0829 23.8496 34.1721 30.1046 34.1721C36.3596 34.1721 41.4475 29.0829 41.4475 22.8292C41.4475 16.5755 36.3596 11.4863 30.1046 11.4863ZM30.1046 31.6515C25.241 31.6515 21.2824 27.6941 21.2824 22.8292C21.2824 17.9644 25.241 14.007 30.1046 14.007C34.9682 14.007 38.9269 17.9644 38.9269 22.8292C38.9269 27.6941 34.9682 31.6515 30.1046 31.6515Z" fill="white" stroke="#F4A641" stroke-width="0.5"/>
</g>
</svg>
