<svg width="80" height="80" viewBox="0 0 80 80" fill="none" xmlns="http://www.w3.org/2000/svg">
<path d="M39.7931 80C46.683 80 53.4562 78.2204 59.4562 74.8334C65.4562 71.4465 70.4796 66.5672 74.0397 60.6683C77.5997 54.7694 79.5757 48.0509 79.7761 41.1639C79.9766 34.2768 78.3947 27.4548 75.1837 21.3588C75.0045 21.0271 74.7014 20.7796 74.3405 20.6704C73.9796 20.5612 73.5902 20.5991 73.2571 20.7759C72.9241 20.9526 72.6744 21.2539 72.5625 21.614C72.4507 21.9741 72.4857 22.3638 72.66 22.6981C75.4724 28.0314 76.9402 33.9706 76.9359 40C74.9002 89.2673 4.68557 89.2678 2.65023 39.9997C2.3062 12.4545 32.9363 -6.00808 57.0952 7.13359C57.43 7.31116 57.8215 7.34848 58.1838 7.23734C58.5461 7.1262 58.8493 6.8757 59.0269 6.54096C59.2045 6.20622 59.2418 5.81465 59.1306 5.4524C59.0195 5.09014 58.769 4.78687 58.4343 4.60931C52.6884 1.57827 46.2894 -0.00398144 39.7931 7.52365e-06C-13.2647 2.19224 -13.2641 77.8088 39.7931 80Z" fill="#F4A641"/>
<path d="M39.7929 28.5715C41.0298 28.5707 42.2583 28.776 43.4278 29.179C43.7859 29.3023 44.1784 29.2784 44.5189 29.1124C44.8594 28.9464 45.12 28.652 45.2435 28.2938C45.8711 25.7667 41.4217 25.8675 39.793 25.7141C20.8433 26.4973 20.8442 53.5034 39.793 54.2858C43.5805 54.2815 47.2116 52.775 49.8898 50.0969C52.5679 47.4187 54.0744 43.7875 54.0786 40C53.9327 38.3417 54.0293 33.9387 51.5132 34.564C51.3358 34.625 51.1721 34.7203 51.0316 34.8446C50.891 34.9689 50.7764 35.1197 50.6941 35.2883C50.6119 35.457 50.5637 35.6402 50.5524 35.8275C50.541 36.0147 50.5666 36.2024 50.6278 36.3798C51.0254 37.5452 51.226 38.7687 51.2214 40C50.6486 55.1381 28.937 55.1387 28.3643 39.9999C28.3678 36.9699 29.573 34.0651 31.7155 31.9226C33.8581 29.7801 36.7629 28.5749 39.7929 28.5715Z" fill="#F4A641"/>
<path d="M53.4716 18.1927C53.5626 18.0286 53.6203 17.8483 53.6416 17.6619C53.6629 17.4755 53.6472 17.2867 53.5955 17.1064C53.5439 16.9261 53.4571 16.7577 53.3404 16.6109C53.2236 16.464 53.079 16.3417 52.9149 16.2507C48.8986 14.0276 44.3839 12.86 39.7934 12.8572C3.78995 14.3452 3.79043 65.6555 39.7936 67.1429C44.5152 67.1456 49.1558 65.9159 53.2565 63.5754C57.3572 61.2348 60.7759 57.8645 63.1747 53.7976C65.5735 49.7307 66.8692 45.1081 66.9337 40.3869C66.9983 35.6657 65.8294 31.0094 63.5427 26.8785C63.4522 26.7136 63.3299 26.5683 63.1831 26.4508C63.0363 26.3333 62.8677 26.246 62.687 26.1938C62.5063 26.1416 62.3171 26.1256 62.1302 26.1467C61.9433 26.1679 61.7625 26.2257 61.598 26.3169C61.4335 26.4081 61.2887 26.5309 61.1718 26.6782C61.0548 26.8255 60.9682 26.9944 60.9167 27.1753C60.8652 27.3562 60.85 27.5455 60.8719 27.7323C60.8937 27.919 60.9523 28.0997 61.0441 28.2638C70.0991 43.9678 57.935 64.6003 39.793 64.2855C33.3543 64.2783 27.1814 61.7174 22.6286 57.1645C18.0757 52.6117 15.5148 46.4387 15.5077 40C15.1965 21.8586 35.8235 9.69301 51.5298 18.7497C51.6938 18.841 51.8742 18.899 52.0606 18.9204C52.2471 18.9418 52.436 18.9262 52.6164 18.8744C52.7968 18.8227 52.9652 18.7358 53.1119 18.6188C53.2587 18.5018 53.3809 18.357 53.4716 18.1927Z" fill="white"/>
<path d="M56.2554 14.1406L56.78 20.9925L38.7826 38.99C38.5238 39.2597 38.381 39.6201 38.3848 39.9939C38.3887 40.3677 38.5389 40.7251 38.8033 40.9894C39.0676 41.2538 39.425 41.404 39.7988 41.4078C40.1726 41.4116 40.533 41.2688 40.8028 41.01L58.8001 23.0126L65.652 23.5372C65.8573 23.5529 66.0636 23.5241 66.2568 23.4525C66.4499 23.381 66.6253 23.2686 66.7708 23.1229L77.1684 12.726C77.3576 12.5312 77.4878 12.2868 77.5439 12.0211C77.6 11.7554 77.5798 11.4793 77.4855 11.2246C77.3912 10.9699 77.2267 10.7472 77.0111 10.5821C76.7955 10.4169 76.5376 10.3163 76.2671 10.2916L69.9823 9.8103L69.501 3.52535C69.4763 3.25498 69.3755 2.99713 69.2103 2.78162C69.0452 2.5661 68.8224 2.40172 68.5678 2.30747C68.3132 2.21322 68.0371 2.19296 67.7714 2.24901C67.5058 2.30507 67.2614 2.43516 67.0666 2.62425L56.6697 13.0217C56.524 13.1672 56.4115 13.3426 56.3399 13.5357C56.2684 13.7289 56.2395 13.9352 56.2554 14.1406ZM66.8894 6.84148C67.4611 13.4943 66.336 12.3232 72.9511 12.9031L65.2153 20.6382L59.5855 20.2071L59.1544 14.5772L66.8894 6.84148Z" fill="white"/>
</svg>
