<svg width="61" height="61" viewBox="0 0 61 61" fill="none" xmlns="http://www.w3.org/2000/svg">
<mask id="mask0_1004_659" style="mask-type:alpha" maskUnits="userSpaceOnUse" x="0" y="0" width="61" height="61">
<rect x="0.894531" y="0.402344" width="60" height="60" fill="black"/>
</mask>
<g mask="url(#mask0_1004_659)">
<path d="M30.8942 10.1847C31.6116 10.1847 32.1985 9.59774 32.1985 8.88035V8.22818C32.1985 7.51078 31.6116 6.92383 30.8942 6.92383C30.1768 6.92383 29.5898 7.51078 29.5898 8.22818V8.88035C29.5898 9.59774 30.1768 10.1847 30.8942 10.1847Z" fill="white"/>
<path d="M30.8942 50.6191C30.1768 50.6191 29.5898 51.2061 29.5898 51.9235V52.5757C29.5898 53.2931 30.1768 53.88 30.8942 53.88C31.6116 53.88 32.1985 53.2931 32.1985 52.5757V51.9235C32.1985 51.2061 31.6116 50.6191 30.8942 50.6191Z" fill="white"/>
<path d="M9.37254 29.0977H8.72036C8.00297 29.0977 7.41602 29.6846 7.41602 30.402C7.41602 31.1194 8.00297 31.7064 8.72036 31.7064H9.37254C10.0899 31.7064 10.6769 31.1194 10.6769 30.402C10.6769 29.6846 10.0899 29.0977 9.37254 29.0977Z" fill="white"/>
<path d="M53.0678 29.0977H52.4157C51.6983 29.0977 51.1113 29.6846 51.1113 30.402C51.1113 31.1194 51.6983 31.7064 52.4157 31.7064H53.0678C53.7852 31.7064 54.3722 31.1194 54.3722 30.402C54.3722 29.6846 53.7852 29.0977 53.0678 29.0977Z" fill="white"/>
<path d="M16.1549 13.8366C15.6332 13.3149 14.8505 13.3149 14.3288 13.8366C13.8071 14.3584 13.8071 15.141 14.3288 15.6627L14.7853 16.1192C15.0462 16.3801 15.3723 16.5105 15.6984 16.5105C16.0245 16.5105 16.3505 16.3801 16.6114 16.1192C17.1332 15.5975 17.1332 14.8149 16.6114 14.2931L16.1549 13.8366Z" fill="white"/>
<path d="M14.7853 44.6843L14.3288 45.1408C13.8071 45.6625 13.8071 46.4451 14.3288 46.9669C14.5897 47.2278 14.9158 47.3582 15.2418 47.3582C15.5679 47.3582 15.894 47.2278 16.1549 46.9669L16.6114 46.5104C17.1332 45.9886 17.1332 45.206 16.6114 44.6843C16.0897 44.1625 15.3071 44.1625 14.7853 44.6843Z" fill="white"/>
<path d="M45.633 13.8366L45.1765 14.2931C44.6547 14.8149 44.6547 15.5975 45.1765 16.1192C45.4373 16.3801 45.7634 16.5105 46.0895 16.5105C46.4156 16.5105 46.7417 16.3801 47.0025 16.1192L47.4591 15.6627C47.9808 15.141 47.9808 14.3584 47.4591 13.8366C46.9373 13.3149 46.1547 13.3149 45.633 13.8366Z" fill="white"/>
<path d="M32.1985 29.8809V18.0114C32.1985 17.294 31.6116 16.707 30.8942 16.707C30.1768 16.707 29.5898 17.294 29.5898 18.0114V30.4027C29.5898 30.7288 29.7203 31.0549 29.9811 31.3157L44.2638 45.5983C44.5246 45.8592 44.8507 45.9896 45.1768 45.9896C45.5029 45.9896 45.829 45.8592 46.0898 45.5983C46.6116 45.0766 46.6116 44.294 46.0898 43.7722L32.1985 29.8809Z" fill="white"/>
<path d="M30.8945 0.402344C14.3293 0.402344 0.894531 13.8371 0.894531 30.4023C0.894531 46.9676 14.3293 60.4023 30.8945 60.4023C47.4598 60.4023 60.8945 46.9676 60.8945 30.4023C60.8945 13.8371 47.4598 0.402344 30.8945 0.402344ZM30.8945 57.7937C15.7641 57.7937 3.50323 45.5328 3.50323 30.4023C3.50323 15.2719 15.7641 3.01104 30.8945 3.01104C46.025 3.01104 58.2858 15.2719 58.2858 30.4023C58.2858 45.5328 46.025 57.7937 30.8945 57.7937Z" fill="#F4A641"/>
</g>
</svg>
