<svg width="53" height="55" viewBox="0 0 53 55" fill="none" xmlns="http://www.w3.org/2000/svg">
<path d="M32.5165 21.9022C32.6634 21.9765 32.8289 22.0062 32.9924 21.9876C33.156 21.9691 33.3106 21.9031 33.4371 21.7977L52.0066 6.33954C52.1305 6.23642 52.2222 6.09999 52.271 5.94637C52.3198 5.79276 52.3235 5.62839 52.2818 5.47271C52.2401 5.31703 52.1546 5.17656 52.0356 5.06791C51.9166 4.95926 51.7689 4.88697 51.6101 4.8596L27.7996 0.757384C27.6373 0.729411 27.4705 0.749521 27.3195 0.815235C27.1685 0.880949 27.0401 0.989396 26.95 1.12721C26.8599 1.26503 26.8121 1.42619 26.8125 1.59083C26.8129 1.75548 26.8614 1.91641 26.9522 2.05381L32.6779 10.7256L32.0556 21.0985C32.0456 21.2628 32.0839 21.4264 32.1658 21.5693C32.2477 21.7121 32.3696 21.8278 32.5165 21.9022ZM29.4349 2.75149L49.522 6.21224L33.8565 19.2527L34.3426 11.1527L41.9047 9.12646C42.0121 9.09811 42.1128 9.04884 42.2011 8.98148C42.2894 8.91411 42.3635 8.82998 42.4193 8.7339C42.475 8.63783 42.5112 8.5317 42.5258 8.4216C42.5404 8.3115 42.5331 8.19961 42.5044 8.09233C42.4756 7.98505 42.426 7.8845 42.3583 7.79645C42.2906 7.70839 42.2062 7.63457 42.1099 7.5792C42.0137 7.52384 41.9074 7.48803 41.7973 7.47383C41.6871 7.45962 41.5752 7.46731 41.4681 7.49643L33.9063 9.52291L29.4349 2.75149Z" fill="#F4A641"/>
<path d="M15.1855 35.3389V50.5264C15.1868 51.6449 15.6317 52.7172 16.4226 53.5081C17.2135 54.299 18.2858 54.7439 19.4043 54.7452H41.3419C42.4604 54.7439 43.5327 54.299 44.3236 53.5081C45.1145 52.7172 45.5594 51.6449 45.5606 50.5264V35.3389C45.5594 34.2204 45.1145 33.148 44.3236 32.3572C43.5327 31.5663 42.4604 31.1214 41.3419 31.1201H19.4043C18.2858 31.1214 17.2135 31.5663 16.4226 32.3572C15.6317 33.148 15.1868 34.2204 15.1855 35.3389ZM41.3419 53.0577H19.4043C18.7332 53.0569 18.0898 52.79 17.6153 52.3154C17.1408 51.8409 16.8738 51.1975 16.8731 50.5264V36.8899L28.0812 44.1423C28.7643 44.5832 29.5601 44.8178 30.3731 44.8178C31.1861 44.8178 31.9819 44.5832 32.6649 44.1423L43.8731 36.8899V50.5264C43.8723 51.1975 43.6054 51.8409 43.1309 52.3154C42.6563 52.79 42.013 53.0569 41.3419 53.0577ZM43.835 34.9045L31.7483 42.7254C31.3385 42.99 30.861 43.1308 30.3731 43.1308C29.8853 43.1308 29.4078 42.99 28.998 42.7254L16.9112 34.9045C17.0142 34.3177 17.3205 33.786 17.7764 33.4026C18.2323 33.0191 18.8086 32.8085 19.4043 32.8076H41.3419C41.9376 32.8085 42.514 33.0191 42.9699 33.4025C43.4258 33.7859 43.7321 34.3177 43.835 34.9045Z" fill="#F4A641"/>
<path d="M21.273 15.1394C21.3735 15.1395 21.4731 15.1216 21.5673 15.0866C22.3102 14.81 23.0732 14.5382 23.8349 14.28C23.9404 14.2449 24.0379 14.1892 24.1218 14.1163C24.2057 14.0433 24.2744 13.9545 24.3239 13.8549C24.3734 13.7554 24.4027 13.647 24.4101 13.536C24.4176 13.4251 24.403 13.3138 24.3673 13.2085C24.3316 13.1032 24.2754 13.006 24.202 12.9225C24.1286 12.839 24.0394 12.7708 23.9396 12.7218C23.8397 12.6729 23.7312 12.6442 23.6202 12.6373C23.5093 12.6305 23.398 12.6457 23.2929 12.6819C22.5151 12.9456 21.7362 13.2228 20.9779 13.5052C20.7923 13.5741 20.6368 13.7061 20.5386 13.8781C20.4405 14.0501 20.406 14.2511 20.4411 14.4459C20.4762 14.6408 20.5788 14.8171 20.7308 14.944C20.8828 15.0709 21.0746 15.1402 21.2726 15.14L21.273 15.1394Z" fill="white"/>
<path d="M3.71959 40.2609C3.64406 40.3419 3.58523 40.4371 3.54647 40.5409C3.50771 40.6447 3.48977 40.7551 3.49369 40.8659C3.49761 40.9766 3.5233 41.0855 3.5693 41.1863C3.6153 41.2871 3.6807 41.3779 3.76178 41.4534C4.39953 42.0472 5.10069 42.5691 5.8526 43.0095C6.04573 43.1225 6.27586 43.1542 6.49237 43.0976C6.70887 43.041 6.89401 42.9007 7.00706 42.7075C7.12011 42.5144 7.15181 42.2843 7.09518 42.0678C7.03855 41.8513 6.89824 41.6661 6.7051 41.5531C6.06028 41.1754 5.459 40.7278 4.91213 40.2186C4.83105 40.143 4.73589 40.0842 4.63208 40.0455C4.52827 40.0067 4.41784 39.9888 4.3071 39.9927C4.19636 39.9966 4.08748 40.0223 3.98668 40.0684C3.88587 40.1144 3.79512 40.1798 3.71959 40.2609Z" fill="white"/>
<path d="M25.9836 12.6964C26.0148 12.8027 26.0666 12.9019 26.1362 12.9882C26.2057 13.0744 26.2916 13.1462 26.3889 13.1992C26.4862 13.2523 26.5931 13.2856 26.7033 13.2974C26.8135 13.3091 26.9249 13.299 27.0312 13.2676C28.0746 12.9604 28.869 12.7499 29.3515 12.6275C29.4599 12.6012 29.5619 12.5536 29.6518 12.4876C29.7417 12.4216 29.8176 12.3384 29.8751 12.2428C29.9326 12.1473 29.9706 12.0413 29.9869 11.931C30.0032 11.8207 29.9975 11.7082 29.9701 11.6002C29.9427 11.4921 29.8941 11.3905 29.8272 11.3013C29.7602 11.2121 29.6763 11.137 29.5802 11.0805C29.4841 11.0239 29.3777 10.9869 29.2673 10.9717C29.1568 10.9565 29.0444 10.9634 28.9366 10.9919C28.4398 11.1184 27.6234 11.3341 26.5547 11.6486C26.4484 11.6799 26.3493 11.7319 26.2631 11.8014C26.1768 11.871 26.1052 11.9569 26.0521 12.0542C25.9991 12.1515 25.9657 12.2583 25.954 12.3685C25.9422 12.4787 25.9523 12.5901 25.9836 12.6964Z" fill="white"/>
<path d="M0.333804 30.0522C0.125904 30.896 0.0139605 31.7606 9.97752e-05 32.6295C-0.00333927 32.8533 0.0822456 33.0692 0.238027 33.2299C0.393808 33.3905 0.607025 33.4827 0.830774 33.4862H0.844063C1.06561 33.4862 1.27828 33.3991 1.43615 33.2436C1.59401 33.0882 1.68441 32.8769 1.68781 32.6554C1.69962 31.9137 1.79514 31.1757 1.97258 30.4554C2.02451 30.2387 1.98858 30.0102 1.87263 29.8198C1.75668 29.6295 1.57013 29.4928 1.35372 29.4395C1.1373 29.3862 0.908597 29.4207 0.717546 29.5355C0.526495 29.6503 0.388616 29.836 0.334015 30.0521L0.333804 30.0522Z" fill="white"/>
<path d="M17.8014 14.7683C17.0343 15.0942 16.2777 15.4318 15.5529 15.7718C15.4525 15.8188 15.3625 15.8852 15.2878 15.967C15.2131 16.0489 15.1553 16.1446 15.1176 16.2489C15.08 16.3531 15.0632 16.4637 15.0683 16.5743C15.0733 16.685 15.1002 16.7936 15.1472 16.894C15.2422 17.0966 15.4139 17.2531 15.6243 17.3292C15.7285 17.3669 15.8391 17.3836 15.9498 17.3785C16.0605 17.3735 16.1691 17.3466 16.2694 17.2996C16.9755 16.9683 17.713 16.6392 18.4611 16.3215C18.564 16.2788 18.6575 16.2162 18.7361 16.1372C18.8147 16.0582 18.8769 15.9645 18.919 15.8613C18.9612 15.7582 18.9825 15.6477 18.9818 15.5363C18.981 15.4249 18.9582 15.3147 18.9147 15.2121C18.8711 15.1096 18.8076 15.0167 18.728 14.9387C18.6483 14.8608 18.554 14.7995 18.4505 14.7582C18.347 14.717 18.2363 14.6966 18.1249 14.6983C18.0135 14.7001 17.9035 14.7239 17.8014 14.7683Z" fill="white"/>
<path d="M10.7915 20.1221C10.9476 20.1221 11.1005 20.0786 11.2332 19.9966C11.8871 19.594 12.5814 19.1918 13.2976 18.8014C13.494 18.6943 13.6399 18.5135 13.7031 18.2988C13.7663 18.0841 13.7416 17.8531 13.6345 17.6567C13.5274 17.4602 13.3466 17.3143 13.1319 17.2511C12.9172 17.1879 12.6863 17.2126 12.4898 17.3197C11.7477 17.7244 11.0271 18.1416 10.3488 18.5597C10.1923 18.6561 10.0715 18.8009 10.0048 18.9721C9.9381 19.1433 9.92914 19.3317 9.97926 19.5085C10.0294 19.6853 10.1359 19.8409 10.2825 19.9516C10.4292 20.0624 10.608 20.1222 10.7917 20.1221H10.7915Z" fill="white"/>
<path d="M8.58189 43.3284C8.55769 43.4365 8.55503 43.5483 8.57405 43.6575C8.59308 43.7666 8.63342 43.871 8.69277 43.9646C8.75212 44.0581 8.82931 44.1391 8.91995 44.2028C9.01059 44.2666 9.1129 44.3118 9.22103 44.336C10.0712 44.5257 10.9396 44.6213 11.8107 44.621C12.0345 44.621 12.2491 44.5321 12.4073 44.3739C12.5656 44.2156 12.6545 44.001 12.6545 43.7772C12.6545 43.5535 12.5656 43.3388 12.4073 43.1806C12.2491 43.0224 12.0345 42.9335 11.8107 42.9335C11.0636 42.9338 10.3187 42.8519 9.58954 42.6893C9.37118 42.6404 9.14234 42.6803 8.95337 42.8002C8.7644 42.92 8.63078 43.11 8.58189 43.3284Z" fill="white"/>
<path d="M7.48892 20.5C6.80021 21.0183 6.14946 21.5518 5.55515 22.0857C5.39359 22.2365 5.29764 22.4446 5.28793 22.6654C5.27821 22.8862 5.35551 23.102 5.50321 23.2664C5.6509 23.4308 5.8572 23.5307 6.07776 23.5446C6.29833 23.5585 6.51554 23.4853 6.68271 23.3407C7.24107 22.8392 7.85342 22.337 8.50353 21.848C8.68234 21.7135 8.80038 21.5134 8.83168 21.2919C8.86298 21.0703 8.80498 20.8453 8.67044 20.6665C8.53589 20.4877 8.33582 20.3697 8.11425 20.3384C7.89267 20.3071 7.66773 20.3651 7.48892 20.4996V20.5Z" fill="white"/>
<path d="M4.31831 24.4938C4.14393 24.3536 3.92099 24.2884 3.69854 24.3125C3.47609 24.3367 3.27233 24.4482 3.1321 24.6226C2.5962 25.2852 2.11284 25.9886 1.68644 26.7264C1.62937 26.8226 1.592 26.9292 1.5765 27.0399C1.561 27.1507 1.56768 27.2634 1.59614 27.3716C1.62461 27.4798 1.6743 27.5812 1.74232 27.67C1.81033 27.7588 1.89533 27.8332 1.99235 27.8888C2.08938 27.9444 2.1965 27.9802 2.30748 27.9941C2.41847 28.008 2.5311 27.9996 2.63883 27.9696C2.74657 27.9395 2.84725 27.8884 2.93503 27.819C3.02281 27.7497 3.09593 27.6636 3.15014 27.5658C3.53292 26.9044 3.96665 26.2739 4.44741 25.6799C4.58755 25.5055 4.65268 25.2826 4.62847 25.0601C4.60426 24.8377 4.4927 24.634 4.31831 24.4938Z" fill="white"/>
<path d="M2.11337 35.7274C2.08205 35.6206 2.02991 35.5211 1.95997 35.4345C1.89002 35.348 1.80364 35.2761 1.7058 35.2231C1.60796 35.17 1.5006 35.1369 1.3899 35.1255C1.27919 35.1141 1.16733 35.1248 1.06076 35.1568C0.954186 35.1889 0.855005 35.2417 0.768927 35.3122C0.682849 35.3828 0.611575 35.4696 0.559209 35.5678C0.506843 35.666 0.47442 35.7736 0.463807 35.8844C0.453194 35.9952 0.4646 36.1069 0.497369 36.2133C0.748481 37.0481 1.0916 37.8525 1.52042 38.6116C1.57494 38.708 1.64793 38.7928 1.73521 38.861C1.8225 38.9293 1.92237 38.9797 2.02914 39.0093C2.1359 39.039 2.24745 39.0473 2.35744 39.0339C2.46742 39.0204 2.57368 38.9854 2.67014 38.9309C2.7666 38.8764 2.85137 38.8034 2.91963 38.7161C2.98788 38.6288 3.03828 38.529 3.06793 38.4222C3.09759 38.3154 3.10592 38.2039 3.09247 38.0939C3.07901 37.9839 3.04402 37.8777 2.9895 37.7812C2.62224 37.1312 2.32839 36.4424 2.11337 35.7274Z" fill="white"/>
</svg>
