<svg width="70" height="70" viewBox="0 0 70 70" fill="none" xmlns="http://www.w3.org/2000/svg">
<path d="M6.32715 21.2798V48.7198C6.32715 50.4838 7.25115 52.0798 8.79115 52.9758L32.5631 66.6958C34.0751 67.5638 35.9511 67.5638 37.4632 66.6958L61.2351 52.9758C62.7472 52.1078 63.6992 50.4838 63.6992 48.7198V21.2798C63.6992 19.5158 62.7752 17.9198 61.2351 17.0238L37.4632 3.30383C35.9511 2.43583 34.0751 2.43583 32.5631 3.30383L8.79115 17.0238C7.27915 17.8918 6.35515 19.5158 6.35515 21.2798H6.32715Z" fill="#213147"/>
<path d="M40.1795 40.3199L36.7915 49.6159C36.7075 49.8679 36.7075 50.1479 36.7915 50.4279L42.6155 66.4159L49.3635 62.5239L41.2715 40.3199C41.0755 39.8159 40.3755 39.8159 40.1795 40.3199Z" fill="#12AAFF"/>
<path d="M46.9834 24.6959C46.7874 24.1919 46.0874 24.1919 45.8914 24.6959L42.5034 33.9919C42.4194 34.2439 42.4194 34.5239 42.5034 34.8039L52.0514 60.9839L58.7994 57.0919L46.9834 24.7239V24.6959Z" fill="#12AAFF"/>
<path d="M34.9996 4.34C35.1676 4.34 35.3356 4.396 35.4756 4.48L61.1796 19.32C61.4876 19.488 61.6556 19.824 61.6556 20.16V49.84C61.6556 50.176 61.4596 50.512 61.1796 50.68L35.4756 65.52C35.3356 65.604 35.1676 65.66 34.9996 65.66C34.8316 65.66 34.6636 65.604 34.5236 65.52L8.81959 50.68C8.51159 50.512 8.34359 50.176 8.34359 49.84V20.132C8.34359 19.796 8.53959 19.46 8.81959 19.292L34.5236 4.452C34.6636 4.368 34.8316 4.312 34.9996 4.312V4.34ZM34.9996 0C34.0756 0 33.1796 0.224 32.3396 0.7L6.63559 15.54C4.98359 16.492 3.97559 18.228 3.97559 20.132V49.812C3.97559 51.716 4.98359 53.452 6.63559 54.404L32.3396 69.244C33.1516 69.72 34.0756 69.944 34.9996 69.944C35.9236 69.944 36.8196 69.72 37.6596 69.244L63.3636 54.404C65.0156 53.452 66.0236 51.716 66.0236 49.812V20.132C66.0236 18.228 65.0156 16.492 63.3636 15.54L37.6316 0.7C36.8196 0.224 35.8956 0 34.9716 0H34.9996Z" fill="#9DCCED"/>
<path d="M17.9756 61.0121L20.3556 54.5161L25.1156 58.4641L20.6636 62.5521L17.9756 61.0121Z" fill="#213147"/>
<path d="M32.8155 18.0319H26.2915C25.8155 18.0319 25.3675 18.3399 25.1995 18.7879L11.2275 57.0919L17.9755 60.9839L33.3755 18.7879C33.5155 18.3959 33.2355 18.0039 32.8435 18.0039L32.8155 18.0319Z" fill="white"/>
<path d="M44.2391 18.0319H37.7151C37.2391 18.0319 36.7911 18.3399 36.6231 18.7879L20.6631 62.5239L27.4111 66.4159L44.7711 18.7879C44.9111 18.3959 44.6311 18.0039 44.2391 18.0039V18.0319Z" fill="white"/>
</svg>
