<svg width="84" height="82" viewBox="0 0 84 82" fill="none" xmlns="http://www.w3.org/2000/svg">
<path d="M30.2696 76.6668C24.5773 76.6668 19.9619 72.154 19.9619 66.6027C19.9619 61.0514 24.5901 56.5386 30.2696 56.5386C35.9491 56.5386 40.5773 61.0514 40.5773 66.6027C40.5773 72.154 35.9619 76.6668 30.2696 76.6668ZM30.2696 57.8078C25.2824 57.8078 21.2183 61.7565 21.2183 66.6027C21.2183 71.4488 25.2824 75.3975 30.2696 75.3975C35.2568 75.3975 39.3209 71.4488 39.3209 66.6027C39.3209 61.7565 35.2568 57.8078 30.2696 57.8078Z" fill="white" stroke="#F4A641" stroke-width="0.5"/>
<path d="M30.2693 66.7564C28.5642 66.7564 27.1924 65.3718 27.1924 63.6795C27.1924 61.9872 28.577 60.6025 30.2693 60.6025C31.9744 60.6025 33.3462 61.9872 33.3462 63.6795C33.3462 64.0256 33.0642 64.3077 32.718 64.3077C32.3719 64.3077 32.0898 64.0256 32.0898 63.6795C32.0898 62.6795 31.2693 61.8589 30.2693 61.8589C29.2693 61.8589 28.4488 62.6795 28.4488 63.6795C28.4488 64.6795 29.2693 65.5 30.2693 65.5C30.6155 65.5 30.8975 65.782 30.8975 66.1282C30.8975 66.4743 30.6155 66.7564 30.2693 66.7564Z" fill="white" stroke="white" stroke-width="0.5"/>
<path d="M30.2693 71.6538C28.5642 71.6538 27.1924 70.2692 27.1924 68.5769C27.1924 68.2308 27.4744 67.9487 27.8206 67.9487C28.1667 67.9487 28.4488 68.2308 28.4488 68.5769C28.4488 69.5769 29.2693 70.3974 30.2693 70.3974C31.2693 70.3974 32.0898 69.5769 32.0898 68.5769C32.0898 67.5769 31.2693 66.7564 30.2693 66.7564C29.9232 66.7564 29.6411 66.4744 29.6411 66.1282C29.6411 65.782 29.9232 65.5 30.2693 65.5C31.9744 65.5 33.3462 66.8846 33.3462 68.5769C33.3462 70.2692 31.9744 71.6538 30.2693 71.6538Z" fill="white" stroke="white" stroke-width="0.5"/>
<path d="M30.2688 61.8461C29.9227 61.8461 29.6406 61.5641 29.6406 61.2179V59.7564C29.6406 59.4102 29.9227 59.1282 30.2688 59.1282C30.615 59.1282 30.897 59.4102 30.897 59.7564V61.2179C30.897 61.5641 30.615 61.8461 30.2688 61.8461Z" fill="white" stroke="white" stroke-width="0.5"/>
<path d="M30.2688 73.1154C29.9227 73.1154 29.6406 72.8334 29.6406 72.4872V71.0257C29.6406 70.6795 29.9227 70.3975 30.2688 70.3975C30.615 70.3975 30.897 70.6795 30.897 71.0257V72.4872C30.897 72.8334 30.615 73.1154 30.2688 73.1154Z" fill="white" stroke="white" stroke-width="0.5"/>
<path d="M36.8588 80.9999H23.8076C22.2691 80.9999 21.0127 79.7435 21.0127 78.205C21.0127 76.6666 22.2691 75.4102 23.8076 75.4102H36.8588C38.3973 75.4102 39.6537 76.6666 39.6537 78.205C39.6537 79.7435 38.3973 80.9999 36.8588 80.9999ZM23.8076 76.6666C22.9614 76.6666 22.2691 77.3589 22.2691 78.205C22.2691 79.0512 22.9614 79.7435 23.8076 79.7435H36.8588C37.705 79.7435 38.3973 79.0512 38.3973 78.205C38.3973 77.3589 37.705 76.6666 36.8588 76.6666H23.8076Z" fill="#F4A641" stroke="#F4A641" stroke-width="0.5"/>
<path d="M51.9229 67.8076C46.2306 67.8076 41.6152 63.2948 41.6152 57.7435C41.6152 52.1923 46.2434 47.6794 51.9229 47.6794C57.6152 47.6794 62.2434 52.1923 62.2434 57.7435C62.2306 63.2948 57.6024 67.8076 51.9229 67.8076ZM51.9229 48.9487C46.9357 48.9487 42.8716 52.8974 42.8716 57.7435C42.8716 62.5897 46.9357 66.5384 51.9229 66.5384C56.9101 66.5384 60.9742 62.5897 60.9742 57.7435C60.9742 52.8974 56.9101 48.9487 51.9229 48.9487Z" fill="white" stroke="white" stroke-width="0.5"/>
<path d="M51.9226 57.8974C50.2175 57.8974 48.8457 56.5128 48.8457 54.8076C48.8457 53.1025 50.2303 51.7307 51.9226 51.7307C53.6278 51.7307 55.0124 53.1153 55.0124 54.8076C55.0124 55.1538 54.7303 55.4358 54.3842 55.4358C54.038 55.4358 53.756 55.1538 53.756 54.8076C53.756 53.8076 52.9354 52.9871 51.9354 52.9871C50.9354 52.9871 50.1149 53.8076 50.1149 54.8076C50.1149 55.8076 50.9354 56.6281 51.9354 56.6281C52.2816 56.6281 52.5637 56.9102 52.5637 57.2564C52.5508 57.6153 52.2688 57.8974 51.9226 57.8974Z" fill="white" stroke="white" stroke-width="0.5"/>
<path d="M51.9226 62.7948C50.2175 62.7948 48.8457 61.4102 48.8457 59.7051C48.8457 59.3589 49.1278 59.0769 49.4739 59.0769C49.8201 59.0769 50.1021 59.3589 50.1021 59.7051C50.1021 60.7051 50.9226 61.5256 51.9226 61.5256C52.9226 61.5256 53.7431 60.7051 53.7431 59.7051C53.7431 58.7051 52.9226 57.8846 51.9226 57.8846C51.5765 57.8846 51.2944 57.6025 51.2944 57.2564C51.2944 56.9102 51.5765 56.6282 51.9226 56.6282C53.6278 56.6282 55.0124 58.0128 55.0124 59.7051C54.9996 61.4102 53.6149 62.7948 51.9226 62.7948Z" fill="white" stroke="white" stroke-width="0.5"/>
<path d="M51.9231 52.9872C51.577 52.9872 51.2949 52.7052 51.2949 52.359V50.8975C51.2949 50.5513 51.577 50.2693 51.9231 50.2693C52.2693 50.2693 52.5513 50.5513 52.5513 50.8975V52.359C52.5513 52.7052 52.2693 52.9872 51.9231 52.9872Z" fill="white" stroke="white" stroke-width="0.5"/>
<path d="M51.9231 64.2565C51.577 64.2565 51.2949 63.9745 51.2949 63.6283V62.1668C51.2949 61.8206 51.577 61.5386 51.9231 61.5386C52.2693 61.5386 52.5513 61.8206 52.5513 62.1668V63.6283C52.5513 63.9745 52.2693 64.2565 51.9231 64.2565Z" fill="white" stroke="white" stroke-width="0.5"/>
<path d="M72.7434 59.3462C67.0511 59.3462 62.4229 54.8334 62.4229 49.2821C62.4229 43.7308 67.0511 39.218 72.7434 39.218C78.4357 39.218 83.0511 43.7308 83.0511 49.2821C83.0511 54.8334 78.4228 59.3462 72.7434 59.3462ZM72.7434 40.4744C67.7562 40.4744 63.6921 44.4231 63.6921 49.2693C63.6921 54.1155 67.7562 58.0642 72.7434 58.0642C77.7305 58.0642 81.7946 54.1155 81.7946 49.2693C81.7946 44.4231 77.7305 40.4744 72.7434 40.4744Z" fill="white" stroke="white" stroke-width="0.5"/>
<path d="M72.744 49.4231C71.0389 49.4231 69.6543 48.0385 69.6543 46.3462C69.6543 44.6539 71.0389 43.2693 72.744 43.2693C74.4492 43.2693 75.821 44.6539 75.821 46.3462C75.821 46.6924 75.5389 46.9744 75.1928 46.9744C74.8466 46.9744 74.5646 46.6924 74.5646 46.3462C74.5646 45.3462 73.744 44.5257 72.744 44.5257C71.744 44.5257 70.9235 45.3462 70.9235 46.3462C70.9235 47.3462 71.744 48.1667 72.744 48.1667C73.0902 48.1667 73.3722 48.4488 73.3722 48.7949C73.3722 49.1411 73.0902 49.4231 72.744 49.4231Z" fill="white" stroke="white" stroke-width="0.5"/>
<path d="M72.744 54.3334C71.0389 54.3334 69.6543 52.9488 69.6543 51.2437C69.6543 50.8975 69.9364 50.6155 70.2825 50.6155C70.6287 50.6155 70.9107 50.8975 70.9107 51.2437C70.9107 52.2437 71.7312 53.0642 72.7312 53.0642C73.7312 53.0642 74.5517 52.2437 74.5517 51.2437C74.5517 50.2437 73.7312 49.4232 72.7312 49.4232C72.3851 49.4232 72.103 49.1411 72.103 48.795C72.103 48.4488 72.3851 48.1667 72.7312 48.1667C74.4363 48.1667 75.8081 49.5514 75.8081 51.2437C75.821 52.9488 74.4363 54.3334 72.744 54.3334Z" fill="white" stroke="white" stroke-width="0.5"/>
<path d="M72.7434 44.5256C72.3973 44.5256 72.1152 44.2435 72.1152 43.8974V42.4358C72.1152 42.0897 72.3973 41.8076 72.7434 41.8076C73.0896 41.8076 73.3716 42.0897 73.3716 42.4358V43.8974C73.3716 44.2435 73.0896 44.5256 72.7434 44.5256Z" fill="white" stroke="white" stroke-width="0.5"/>
<path d="M72.7434 55.7822C72.3973 55.7822 72.1152 55.5001 72.1152 55.154V53.6924C72.1152 53.3463 72.3973 53.0642 72.7434 53.0642C73.0896 53.0642 73.3716 53.3463 73.3716 53.6924V55.154C73.3716 55.5001 73.0896 55.7822 72.7434 55.7822Z" fill="white" stroke="white" stroke-width="0.5"/>
<path d="M58.5004 80.9999H45.4492C43.9107 80.9999 42.6543 79.7435 42.6543 78.205C42.6543 76.6666 43.9107 75.4102 45.4492 75.4102H58.5004C60.0389 75.4102 61.2953 76.6666 61.2953 78.205C61.2953 79.7435 60.0517 80.9999 58.5004 80.9999ZM45.4492 76.6666C44.603 76.6666 43.9107 77.3589 43.9107 78.205C43.9107 79.0512 44.603 79.7435 45.4492 79.7435H58.5004C59.3466 79.7435 60.0389 79.0512 60.0389 78.205C60.0389 77.3589 59.3466 76.6666 58.5004 76.6666H45.4492Z" fill="#F4A641" stroke="#F4A641" stroke-width="0.5"/>
<path d="M58.5004 76.6666H45.4492C43.9107 76.6666 42.6543 75.4102 42.6543 73.8718C42.6543 72.3333 43.9107 71.0769 45.4492 71.0769H58.5004C60.0389 71.0769 61.2953 72.3333 61.2953 73.8718C61.2953 75.4102 60.0517 76.6666 58.5004 76.6666ZM45.4492 72.3333C44.603 72.3333 43.9107 73.0256 43.9107 73.8718C43.9107 74.7179 44.603 75.4102 45.4492 75.4102H58.5004C59.3466 75.4102 60.0389 74.7179 60.0389 73.8718C60.0389 73.0256 59.3466 72.3333 58.5004 72.3333H45.4492Z" fill="#F4A641" stroke="#F4A641" stroke-width="0.5"/>
<path d="M58.5004 72.3334H45.4492C43.9107 72.3334 42.6543 71.077 42.6543 69.5385C42.6543 68.0001 43.9107 66.7437 45.4492 66.7437H58.5004C60.0389 66.7437 61.2953 68.0001 61.2953 69.5385C61.2953 71.077 60.0517 72.3334 58.5004 72.3334ZM45.4492 68.0001C44.603 68.0001 43.9107 68.6924 43.9107 69.5385C43.9107 70.3847 44.603 71.077 45.4492 71.077H58.5004C59.3466 71.077 60.0389 70.3847 60.0389 69.5385C60.0389 68.6924 59.3466 68.0001 58.5004 68.0001H45.4492Z" fill="#F4A641" stroke="#F4A641" stroke-width="0.5"/>
<path d="M79.269 80.9999H66.2177C64.6793 80.9999 63.4229 79.7435 63.4229 78.205C63.4229 76.6666 64.6793 75.4102 66.2177 75.4102H79.269C80.8075 75.4102 82.0639 76.6666 82.0639 78.205C82.0639 79.7435 80.8075 80.9999 79.269 80.9999ZM66.2177 76.6666C65.3716 76.6666 64.6793 77.3589 64.6793 78.205C64.6793 79.0512 65.3716 79.7435 66.2177 79.7435H79.269C80.1152 79.7435 80.8075 79.0512 80.8075 78.205C80.8075 77.3589 80.1152 76.6666 79.269 76.6666H66.2177Z" fill="#F4A641" stroke="#F4A641" stroke-width="0.5"/>
<path d="M79.269 76.6666H66.2177C64.6793 76.6666 63.4229 75.4102 63.4229 73.8718C63.4229 72.3333 64.6793 71.0769 66.2177 71.0769H79.269C80.8075 71.0769 82.0639 72.3333 82.0639 73.8718C82.0639 75.4102 80.8075 76.6666 79.269 76.6666ZM66.2177 72.3333C65.3716 72.3333 64.6793 73.0256 64.6793 73.8718C64.6793 74.7179 65.3716 75.4102 66.2177 75.4102H79.269C80.1152 75.4102 80.8075 74.7179 80.8075 73.8718C80.8075 73.0256 80.1152 72.3333 79.269 72.3333H66.2177Z" fill="#F4A641" stroke="#F4A641" stroke-width="0.5"/>
<path d="M79.269 72.3334H66.2177C64.6793 72.3334 63.4229 71.077 63.4229 69.5385C63.4229 68.0001 64.6793 66.7437 66.2177 66.7437H79.269C80.8075 66.7437 82.0639 68.0001 82.0639 69.5385C82.0639 71.077 80.8075 72.3334 79.269 72.3334ZM66.2177 68.0001C65.3716 68.0001 64.6793 68.6924 64.6793 69.5385C64.6793 70.3847 65.3716 71.077 66.2177 71.077H79.269C80.1152 71.077 80.8075 70.3847 80.8075 69.5385C80.8075 68.6924 80.1152 68.0001 79.269 68.0001H66.2177Z" fill="#F4A641" stroke="#F4A641" stroke-width="0.5"/>
<path d="M79.269 67.9999H66.2177C64.6793 67.9999 63.4229 66.7435 63.4229 65.205C63.4229 63.6666 64.6793 62.4102 66.2177 62.4102H79.269C80.8075 62.4102 82.0639 63.6666 82.0639 65.205C82.0639 66.7435 80.8075 67.9999 79.269 67.9999ZM66.2177 63.6666C65.3716 63.6666 64.6793 64.3589 64.6793 65.205C64.6793 66.0512 65.3716 66.7435 66.2177 66.7435H79.269C80.1152 66.7435 80.8075 66.0512 80.8075 65.205C80.8075 64.3589 80.1152 63.6666 79.269 63.6666H66.2177Z" fill="#F4A641" stroke="#F4A641" stroke-width="0.5"/>
<path d="M79.269 63.6666H66.2177C64.6793 63.6666 63.4229 62.4102 63.4229 60.8718C63.4229 59.3333 64.6793 58.0769 66.2177 58.0769H79.269C80.8075 58.0769 82.0639 59.3333 82.0639 60.8718C82.0639 62.4102 80.8075 63.6666 79.269 63.6666ZM66.2177 59.3461C65.3716 59.3461 64.6793 60.0384 64.6793 60.8846C64.6793 61.7307 65.3716 62.4231 66.2177 62.4231H79.269C80.1152 62.4231 80.8075 61.7307 80.8075 60.8846C80.8075 60.0384 80.1152 59.3461 79.269 59.3461H66.2177Z" fill="#F4A641" stroke="#F4A641" stroke-width="0.5"/>
<path d="M21.6414 48.7565C21.4875 48.7565 21.3337 48.7052 21.2055 48.5898C20.9491 48.3462 20.9362 47.9488 21.1798 47.6924L38.4234 29.4488C38.6286 29.2309 38.9619 29.1924 39.2055 29.3462L56.026 39.6283L70.7824 24.8719H63.6285C63.2824 24.8719 63.0003 24.5898 63.0003 24.2437C63.0003 23.8975 63.2824 23.6155 63.6285 23.6155H72.308C72.5644 23.6155 72.7952 23.7693 72.885 24.0001C72.9875 24.2309 72.9234 24.5129 72.7439 24.6924L56.5644 40.8719C56.3593 41.077 56.0388 41.1155 55.7952 40.9616L38.9875 30.6796L22.0901 48.5514C21.9747 48.6924 21.808 48.7565 21.6414 48.7565Z" fill="#F4A641" stroke="#F4A641" stroke-width="0.5"/>
<path d="M72.3079 32.1924C71.9617 32.1924 71.6797 31.9103 71.6797 31.5642V24.2437C71.6797 23.8975 71.9617 23.6155 72.3079 23.6155C72.654 23.6155 72.9361 23.8975 72.9361 24.2437V31.5642C72.9361 31.9103 72.654 32.1924 72.3079 32.1924Z" fill="#F4A641" stroke="#F4A641" stroke-width="0.5"/>
<path d="M25.7179 29.5001H23.4487C23.1026 29.5001 22.8205 29.218 22.8205 28.8719C22.8205 28.5257 23.1026 28.2437 23.4487 28.2437H25.7179C26.5256 28.2437 27.1795 27.5898 27.1795 26.7693V13.8975C27.1795 13.0898 26.5256 12.436 25.7179 12.436H3.73077C2.92308 12.436 2.26923 13.0898 2.26923 13.8975V26.7693C2.26923 27.577 2.92308 28.2437 3.73077 28.2437H16.8974C17.2436 28.2437 17.5256 28.5257 17.5256 28.8719C17.5256 29.218 17.2436 29.5001 16.8974 29.5001H3.73077C2.21795 29.5001 1 28.2821 1 26.7693V13.8975C1 12.3975 2.21795 11.1667 3.73077 11.1667H25.7308C27.2308 11.1667 28.4615 12.3847 28.4615 13.8975V26.7693C28.4487 28.2821 27.2308 29.5001 25.7179 29.5001Z" fill="#F4A641" stroke="#F4A641" stroke-width="0.5"/>
<path d="M23.4486 35.359C23.2948 35.359 23.1409 35.3078 23.0255 35.1924L16.4614 29.3462C16.205 29.1154 16.1794 28.718 16.4101 28.4616C16.6409 28.2052 17.0383 28.1796 17.3076 28.4103L22.8204 33.3206V28.8719C22.8204 28.5257 23.1024 28.2437 23.4486 28.2437C23.7948 28.2437 24.0768 28.5257 24.0768 28.8719V34.718C24.0768 34.9616 23.9358 35.1924 23.705 35.2949C23.6281 35.3334 23.5383 35.359 23.4486 35.359Z" fill="#F4A641" stroke="#F4A641" stroke-width="0.5"/>
<path d="M14.7179 20.9616C13.1153 20.9616 11.8076 19.6539 11.8076 18.0514C11.8076 16.4488 13.1153 15.1411 14.7179 15.1411C16.3204 15.1411 17.6281 16.4488 17.6281 18.0514C17.6281 18.3975 17.3461 18.6796 16.9999 18.6796C16.6538 18.6796 16.3717 18.3975 16.3717 18.0514C16.3717 17.1411 15.6281 16.3975 14.7179 16.3975C13.8076 16.3975 13.064 17.1411 13.064 18.0514C13.064 18.9616 13.8076 19.7052 14.7179 19.7052C15.064 19.7052 15.3461 19.9873 15.3461 20.3334C15.3589 20.6796 15.0768 20.9616 14.7179 20.9616Z" fill="white" stroke="white" stroke-width="0.5"/>
<path d="M14.7179 25.5385C13.1153 25.5385 11.8076 24.2308 11.8076 22.6283C11.8076 22.2821 12.0897 22.0001 12.4358 22.0001C12.782 22.0001 13.064 22.2821 13.064 22.6283C13.064 23.5385 13.8076 24.2821 14.7179 24.2821C15.6281 24.2821 16.3717 23.5385 16.3717 22.6283C16.3717 21.718 15.6281 20.9744 14.7179 20.9744C14.3717 20.9744 14.0897 20.6924 14.0897 20.3462C14.0897 20.0001 14.3717 19.718 14.7179 19.718C16.3204 19.718 17.6281 21.0257 17.6281 22.6283C17.6281 24.2308 16.3333 25.5385 14.7179 25.5385Z" fill="white" stroke="white" stroke-width="0.5"/>
<path d="M14.718 16.3974C14.3719 16.3974 14.0898 16.1153 14.0898 15.7692V14.4102C14.0898 14.064 14.3719 13.782 14.718 13.782C15.0642 13.782 15.3463 14.064 15.3463 14.4102V15.7692C15.3591 16.1153 15.077 16.3974 14.718 16.3974Z" fill="white" stroke="white" stroke-width="0.5"/>
<path d="M14.718 26.8974C14.3719 26.8974 14.0898 26.6153 14.0898 26.2692V24.9102C14.0898 24.564 14.3719 24.282 14.718 24.282C15.0642 24.282 15.3463 24.564 15.3463 24.9102V26.2692C15.3591 26.6153 15.077 26.8974 14.718 26.8974Z" fill="white" stroke="white" stroke-width="0.5"/>
<path d="M64.4741 16.9487H53.1664C52.8202 16.9487 52.5382 16.6667 52.5382 16.3205C52.5382 15.9744 52.8202 15.6923 53.1664 15.6923H64.4741C65.1151 15.6923 65.6407 15.1667 65.6407 14.5128V3.4359C65.6407 2.79487 65.1151 2.26923 64.4741 2.26923H45.5638C44.9228 2.26923 44.3972 2.79487 44.3972 3.4359V14.5128C44.3972 15.1667 44.9228 15.6923 45.5638 15.6923H47.5125C47.8587 15.6923 48.1407 15.9744 48.1407 16.3205C48.1407 16.6667 47.8587 16.9487 47.5125 16.9487H45.5638C44.2177 16.9487 43.1279 15.859 43.1279 14.5128V3.4359C43.1279 2.08974 44.2177 1 45.5638 1H64.4741C65.8202 1 66.91 2.08974 66.91 3.4359V14.5128C66.91 15.8462 65.8202 16.9487 64.4741 16.9487Z" fill="#F4A641" stroke="#F4A641" stroke-width="0.5"/>
<path d="M47.513 22.5896C47.436 22.5896 47.3463 22.5768 47.2694 22.5383C47.0386 22.4358 46.8848 22.205 46.8848 21.9614V16.3204C46.8848 15.9742 47.1668 15.6922 47.513 15.6922C47.8591 15.6922 48.1412 15.9742 48.1412 16.3204V20.4358L52.7053 15.8717C52.9489 15.6281 53.3463 15.6281 53.6027 15.8717C53.8463 16.1152 53.8463 16.5127 53.6027 16.7691L47.9617 22.4101C47.8463 22.5255 47.6796 22.5896 47.513 22.5896Z" fill="#F4A641" stroke="#F4A641" stroke-width="0.5"/>
<path d="M59.9869 13.7435H50.0511C49.7049 13.7435 49.4229 13.4615 49.4229 13.1153V4.83328C49.4229 4.48713 49.7049 4.20508 50.0511 4.20508C50.3972 4.20508 50.6793 4.48713 50.6793 4.83328V12.4743H59.9869C60.3331 12.4743 60.6152 12.7564 60.6152 13.1025C60.628 13.4615 60.3459 13.7435 59.9869 13.7435Z" fill="white" stroke="white" stroke-width="0.5"/>
<path d="M52.6663 13.7435C52.3201 13.7435 52.0381 13.4615 52.0381 13.1153V10.3076C52.0381 9.96149 52.3201 9.67944 52.6663 9.67944C53.0124 9.67944 53.2945 9.96149 53.2945 10.3076V13.1153C53.2945 13.4615 53.0124 13.7435 52.6663 13.7435Z" fill="white" stroke="white" stroke-width="0.5"/>
<path d="M55.4485 13.7435C55.1024 13.7435 54.8203 13.4615 54.8203 13.1153V8.83328C54.8203 8.48713 55.1024 8.20508 55.4485 8.20508C55.7947 8.20508 56.0767 8.48713 56.0767 8.83328V13.1025C56.0767 13.4615 55.7947 13.7435 55.4485 13.7435Z" fill="white" stroke="white" stroke-width="0.5"/>
<path d="M58.2307 13.7436C57.8846 13.7436 57.6025 13.4615 57.6025 13.1154V6.73074C57.6025 6.38459 57.8846 6.10254 58.2307 6.10254C58.5769 6.10254 58.8589 6.38459 58.8589 6.73074V13.1154C58.8589 13.4615 58.5769 13.7436 58.2307 13.7436Z" fill="white" stroke="white" stroke-width="0.5"/>
</svg>
