<svg width="42" height="32" viewBox="0 0 42 32" fill="none" xmlns="http://www.w3.org/2000/svg">
<path d="M37.8343 28.6385C40.1254 26.1183 41.5 23.369 41.5 18.7868C41.5 10.7681 35.7723 3.66572 27.7535 -1.52588e-05L25.6915 2.97839C33.2521 7.10233 34.8559 12.3718 35.3141 15.8084C34.1685 15.1211 32.5648 14.892 30.961 15.1211C26.8371 15.5793 23.6296 18.7869 23.6296 23.1399C23.6296 25.2019 24.546 27.2639 25.9206 28.8676C27.5244 30.4714 29.3573 31.1587 31.6484 31.1587C34.1685 31.1587 36.4596 30.0131 37.8343 28.6385ZM14.9235 28.6385C17.2145 26.1183 18.5892 23.369 18.5892 18.7868C18.5892 10.7681 12.8615 3.66572 4.8427 -1.52588e-05L2.78072 2.97839C10.3413 7.10233 11.9451 12.3718 12.4033 15.8084C11.2577 15.1211 9.65397 14.892 8.05021 15.1211C3.92627 15.5793 0.71875 19.016 0.71875 23.1399C0.71875 25.2019 1.63518 27.2639 3.00983 28.8676C4.61359 30.4714 6.44645 31.1587 8.73754 31.1587C11.2577 31.1587 13.5488 30.0131 14.9235 28.6385Z" fill="#F4A641" fill-opacity="0.3"/>
</svg>
