<svg width="75" height="80" viewBox="0 0 75 80" fill="none" xmlns="http://www.w3.org/2000/svg">
<path d="M52.9112 41.2905C52.9112 41.2905 50.7063 41.2738 48.4631 42.3954C46.2199 43.517 43.8721 45.8498 43.8721 50.3297V55.4922C43.8721 55.4922 43.8554 57.6971 44.977 59.9404C46.0986 62.1836 48.4284 64.5219 52.9112 64.5219H73.5518V61.9406H52.9112C49.6519 61.9406 48.0959 60.406 47.282 58.7783C46.4682 57.1506 46.4533 55.4922 46.4533 55.4922V50.3297C46.4533 47.1224 47.9879 45.5238 49.6156 44.71C51.2433 43.8961 52.9112 43.8718 52.9112 43.8718H73.5518V41.2905H52.9112Z" fill="white"/>
<path d="M9.03918 25.8126C9.03918 25.8126 6.83426 25.7959 4.59103 26.9175C2.34781 28.0391 1.40076e-05 30.3658 1.40076e-05 34.8422V70.9703C1.40076e-05 70.9703 -0.0167033 73.1752 1.10491 75.4185C2.22652 77.6617 4.53867 80 9.03918 80H65.8078C65.8078 80 68.0127 80.0263 70.2559 78.9046C72.4992 77.783 74.8374 75.4757 74.8374 70.9703V34.8422C74.8374 34.8422 74.8638 32.6373 73.7421 30.3941C72.6205 28.1509 70.2961 25.8134 65.8078 25.8126L51.6163 25.8101V28.3913L65.8078 28.3939C69.0579 28.3944 70.6137 29.9189 71.4275 31.5466C72.2414 33.1743 72.2657 34.8422 72.2657 34.8422V70.9703C72.2657 74.2065 70.7311 75.7762 69.1034 76.59C67.4757 77.4039 65.8078 77.4187 65.8078 77.4187H9.03918C5.77471 77.4187 4.23332 75.8937 3.41947 74.266C2.60561 72.6382 2.58127 70.9703 2.58127 70.9703V34.8422C2.58127 31.6377 4.11584 30.0364 5.74355 29.2225C7.37126 28.4087 9.03918 28.3939 9.03918 28.3939L23.2294 28.3913V25.8107L9.03918 25.8126Z" fill="#F4A641"/>
<path d="M55.4831 47.7485C52.6479 47.7485 50.3301 50.0759 50.3301 52.911C50.3301 55.7462 52.6479 58.064 55.4831 58.064C58.3183 58.064 60.6456 55.7462 60.6456 52.911C60.6456 50.0759 58.3183 47.7485 55.4831 47.7485ZM55.4831 50.3298C56.9236 50.3298 58.0643 51.4705 58.0643 52.911C58.0643 54.3516 56.9236 55.4923 55.4831 55.4923C54.0425 55.4923 52.9113 54.3516 52.9113 52.911C52.9113 51.4705 54.0425 50.3298 55.4831 50.3298Z" fill="#F4A641"/>
<path d="M37.4233 0C27.4619 -5.8521e-07 19.3545 8.10742 19.3545 18.0688C19.3545 28.0302 27.4619 36.1376 37.4233 36.1376C47.3847 36.1376 55.4826 28.0302 55.4826 18.0688C55.4826 8.10742 47.3847 -5.21814e-06 37.4233 0ZM37.4233 2.58126C45.99 2.58125 52.9108 9.5021 52.9108 18.0688C52.9108 26.6355 45.99 33.5564 37.4233 33.5564C28.8566 33.5564 21.9357 26.6355 21.9357 18.0688C21.9357 9.5021 28.8566 2.58126 37.4233 2.58126Z" fill="#F4A641"/>
<path d="M33.5563 5.16261C32.8397 5.15985 32.2581 5.74144 32.2609 6.458V19.3548H28.3938C27.2351 19.3468 26.6539 20.7515 27.4794 21.5645L36.509 30.5942C37.0134 31.1007 37.8334 31.1007 38.3378 30.5942L47.3674 21.5645C48.1929 20.7515 47.6117 19.3468 46.453 19.3548H42.5859V6.458C42.5887 5.74144 42.0071 5.15985 41.2905 5.16261H33.5563ZM34.8421 7.74387H40.0047V20.6502C40.0072 21.3593 40.5814 21.9335 41.2905 21.936H43.3384L37.4234 27.851L31.4989 21.936H33.5563C34.2654 21.9335 34.8396 21.3593 34.8421 20.6502V7.74387Z" fill="white"/>
</svg>
