<svg width="49" height="44" viewBox="0 0 49 44" fill="none" xmlns="http://www.w3.org/2000/svg">
<path d="M2.51315 44H17.7905C19.1775 44 20.3032 42.8743 20.3032 41.4873V26.2099C20.3032 24.8228 19.1775 23.6972 17.7905 23.6972H10.4785C10.574 19.6969 11.5037 16.4957 13.2626 14.0885C14.6496 12.1889 16.7502 10.6159 19.5595 9.37465C20.851 8.80677 21.4088 7.27904 20.8058 6.00253L18.9966 2.18319C18.4137 0.957024 16.9714 0.41925 15.7251 0.957024C12.3982 2.3943 9.58894 4.21352 7.29738 6.42471C4.50318 9.12338 2.58854 12.1688 1.5533 15.566C0.518003 18.9632 0.000431061 23.5967 0.000431061 29.4764V41.4873C0.000431061 42.8742 1.12618 44 2.51315 44Z" fill="#F4A641"/>
<path d="M43.6712 0.967079C40.3845 2.39933 37.5904 4.21849 35.2837 6.42472C32.4644 9.12338 30.5397 12.1588 29.5044 15.5308C28.4692 18.9029 27.9516 23.5514 27.9516 29.4765V41.4873C27.9516 42.8743 29.0773 44 30.4643 44H45.7417C47.1287 44 48.2544 42.8743 48.2544 41.4873V26.2099C48.2544 24.8228 47.1287 23.6972 45.7417 23.6972H38.4297C38.5251 19.6969 39.4549 16.4957 41.2138 14.0885C42.6008 12.1889 44.7014 10.6159 47.5107 9.37465C48.8022 8.80678 49.36 7.27905 48.757 6.00253L46.9528 2.19324C46.3698 0.967075 44.9175 0.424278 43.6712 0.967079Z" fill="#F4A641"/>
</svg>
