<svg width="81" height="81" viewBox="0 0 81 81" fill="none" xmlns="http://www.w3.org/2000/svg">
<path d="M56.8694 73.9745C49.2287 77.6926 40.5345 78.6435 32.2708 76.6648C24.0071 74.6861 16.6864 69.9004 11.5585 63.1249C6.43062 56.3493 3.81341 48.004 4.15372 39.5135C4.49403 31.0231 7.77076 22.914 13.4245 16.5706L12.4239 21.7573C12.3354 22.1996 12.4263 22.6589 12.6765 23.0343C12.9267 23.4096 13.3157 23.6701 13.7581 23.7586C14.2004 23.8471 14.6597 23.7562 15.035 23.506C15.4103 23.2558 15.6709 22.8667 15.7593 22.4244C17.1936 15.2531 17.8774 11.7341 17.8607 11.9009C17.9024 11.6594 17.8904 11.4117 17.8254 11.1754C17.7605 10.939 17.6443 10.7199 17.485 10.5336C17.3258 10.3473 17.1275 10.1984 16.9042 10.0975C16.6808 9.99655 16.438 9.94607 16.193 9.94964L5.51937 10.1998C5.07706 10.1998 4.65286 10.3755 4.3401 10.6883C4.02733 11.001 3.85163 11.4252 3.85163 11.8676C3.85163 12.3099 4.02733 12.7341 4.3401 13.0468C4.65286 13.3596 5.07706 13.5353 5.51937 13.5353L11.8735 13.3852C5.41902 20.1803 1.55365 29.0249 0.951033 38.3774C0.348421 47.73 3.04679 56.9975 8.57585 64.5647C14.1049 72.132 22.1141 77.5191 31.2074 79.7872C40.3008 82.0553 49.9017 81.0606 58.337 76.9764C58.735 76.7818 59.0395 76.437 59.1834 76.0179C59.3273 75.5988 59.2988 75.1397 59.1041 74.7417C58.9095 74.3436 58.5647 74.0391 58.1456 73.8952C57.7265 73.7514 57.2674 73.7799 56.8694 73.9745Z" fill="#F4A641"/>
<path d="M76.0651 68.4709L69.711 68.621C94.1435 43.2212 75.7983 0.977118 40.7755 0.977118C34.6887 0.965921 28.6806 2.35242 23.2142 5.02975C23.0153 5.12431 22.8372 5.2573 22.69 5.42106C22.5429 5.58482 22.4296 5.77609 22.3567 5.98385C22.2838 6.19161 22.2528 6.41174 22.2654 6.63155C22.2781 6.85136 22.3341 7.06649 22.4303 7.26453C24.0981 10.4499 27.4336 4.31261 40.7755 4.31261C72.2293 4.31261 89.307 41.7869 68.1266 65.4356L69.1273 60.2489C69.2157 59.8066 69.1249 59.3472 68.8746 58.9719C68.6244 58.5966 68.2354 58.3361 67.7931 58.2476C67.3508 58.1591 66.8914 58.25 66.5161 58.5002C66.1408 58.7504 65.8802 59.1395 65.7918 59.5818C63.507 71.0059 63.607 70.3388 63.7238 70.8224C64.174 72.4902 64.8412 72.0732 76.0484 71.8064C76.2674 71.8075 76.4845 71.7654 76.6873 71.6826C76.89 71.5998 77.0745 71.4779 77.2301 71.3238C77.3858 71.1697 77.5095 70.9865 77.5944 70.7846C77.6792 70.5826 77.7234 70.366 77.7245 70.147C77.7256 69.928 77.6835 69.7109 77.6007 69.5081C77.5179 69.3054 77.396 69.1209 77.2419 68.9653C77.0878 68.8096 76.9046 68.6859 76.7027 68.601C76.5008 68.5162 76.2841 68.472 76.0651 68.4709Z" fill="white"/>
<path d="M29.1009 37.6676H35.7719C36.2142 37.6676 36.6384 37.4919 36.9512 37.1791C37.2639 36.8663 37.4396 36.4421 37.4396 35.9998C37.4396 35.5575 37.2639 35.1333 36.9512 34.8205C36.6384 34.5078 36.2142 34.3321 35.7719 34.3321H32.4364V32.6643C32.4364 32.222 32.2607 31.7978 31.9479 31.4851C31.6352 31.1723 31.211 30.9966 30.7686 30.9966C30.3263 30.9966 29.9021 31.1723 29.5894 31.4851C29.2766 31.7978 29.1009 32.222 29.1009 32.6643V34.3321C27.774 34.3321 26.5014 34.8592 25.5631 35.7975C24.6248 36.7358 24.0977 38.0084 24.0977 39.3353C24.0977 40.6623 24.6248 41.9349 25.5631 42.8732C26.5014 43.8114 27.774 44.3386 29.1009 44.3386H32.4364C32.8787 44.3386 33.3029 44.5143 33.6157 44.827C33.9284 45.1398 34.1041 45.564 34.1041 46.0063C34.1041 46.4486 33.9284 46.8728 33.6157 47.1856C33.3029 47.4984 32.8787 47.6741 32.4364 47.6741H25.7654C25.3231 47.6741 24.8989 47.8498 24.5861 48.1625C24.2734 48.4753 24.0977 48.8995 24.0977 49.3418C24.0977 49.7841 24.2734 50.2083 24.5861 50.5211C24.8989 50.8339 25.3231 51.0096 25.7654 51.0096H29.1009V52.6773C29.1009 53.1196 29.2766 53.5438 29.5894 53.8566C29.9021 54.1694 30.3263 54.3451 30.7686 54.3451C31.211 54.3451 31.6352 54.1694 31.9479 53.8566C32.2607 53.5438 32.4364 53.1196 32.4364 52.6773V51.0096C33.7633 51.0096 35.0359 50.4824 35.9742 49.5441C36.9125 48.6059 37.4396 47.3333 37.4396 46.0063C37.4396 44.6794 36.9125 43.4068 35.9742 42.4685C35.0359 41.5302 33.7633 41.0031 32.4364 41.0031H29.1009C28.6586 41.0031 28.2344 40.8274 27.9216 40.5146C27.6089 40.2018 27.4332 39.7776 27.4332 39.3353C27.4332 38.893 27.6089 38.4688 27.9216 38.156C28.2344 37.8433 28.6586 37.6676 29.1009 37.6676Z" fill="white"/>
<path d="M58.2874 17.6547H39.9422C38.8364 17.6547 37.7759 18.0939 36.994 18.8758C36.2121 19.6578 35.7728 20.7182 35.7728 21.824V25.0428C32.984 24.2426 30.0452 24.1153 27.1977 24.6713C24.3502 25.2274 21.6751 26.4508 19.3922 28.2413C17.1092 30.0317 15.2835 32.3381 14.0649 34.9711C12.8462 37.6041 12.2695 40.4886 12.382 43.3877C12.4944 46.2868 13.2929 49.1179 14.7118 51.6486C16.1308 54.1792 18.1297 56.3373 20.5445 57.9455C22.9593 59.5537 25.7211 60.5663 28.6031 60.9C31.4852 61.2337 34.4053 60.8792 37.1237 59.8654C38.7915 61.4164 38.3578 61.0161 58.2874 61.0161C59.3932 61.0161 60.4537 60.5768 61.2356 59.7949C62.0175 59.013 62.4568 57.9525 62.4568 56.8467C62.4568 51.1931 62.6403 50.7094 61.6063 49.3419C62.6736 47.9243 62.4568 47.2405 62.4568 41.837C62.4484 40.9336 62.1503 40.0567 61.6063 39.3354C62.1503 38.6141 62.4484 37.7372 62.4568 36.8338C62.4568 31.1801 62.6403 30.6965 61.6063 29.3289C62.6736 27.9113 62.4568 27.2275 62.4568 21.824C62.4524 20.7196 62.0117 19.6617 61.2308 18.8807C60.4498 18.0997 59.3919 17.6591 58.2874 17.6547ZM39.1083 21.824C39.1126 21.6042 39.2018 21.3946 39.3573 21.2391C39.5127 21.0837 39.7224 20.9944 39.9422 20.9902H58.2874C59.3881 20.9902 59.1213 21.8741 59.1213 26.8273C59.117 27.0471 59.0278 27.2567 58.8723 27.4122C58.7169 27.5677 58.5072 27.6569 58.2874 27.6612C37.8242 27.6612 42.5105 28.0948 39.1083 26.3436V21.824ZM59.1213 31.8305V36.8338C59.117 37.0536 59.0278 37.2632 58.8723 37.4187C58.7169 37.5741 58.5072 37.6634 58.2874 37.6676H48.3977C47.7094 35.227 46.5225 32.9555 44.9121 30.9966H58.2541C58.3658 30.9944 58.4768 31.0143 58.5809 31.055C58.6849 31.0957 58.7799 31.1565 58.8604 31.2339C58.941 31.3114 59.0055 31.4039 59.0502 31.5063C59.095 31.6086 59.1191 31.7188 59.1213 31.8305ZM59.1213 41.837V46.8403C59.117 47.0601 59.0278 47.2697 58.8723 47.4252C58.7169 47.5806 58.5072 47.6699 58.2874 47.6741H48.3977C49.0649 45.5176 49.3084 43.2522 49.1148 41.0031H58.2874C58.5072 41.0074 58.7169 41.0966 58.8723 41.2521C59.0278 41.4076 59.117 41.6172 59.1213 41.837ZM15.7598 42.6709C15.7598 39.7022 16.6402 36.8003 18.2894 34.3319C19.9387 31.8636 22.2829 29.9397 25.0256 28.8037C27.7683 27.6676 30.7862 27.3704 33.6978 27.9496C36.6094 28.5287 39.2839 29.9583 41.3831 32.0574C43.4822 34.1566 44.9118 36.831 45.4909 39.7426C46.0701 42.6542 45.7728 45.6722 44.6368 48.4149C43.5007 51.1575 41.5769 53.5017 39.1085 55.151C36.6402 56.8003 33.7382 57.6806 30.7696 57.6806C26.7888 57.6806 22.971 56.0992 20.1561 53.2844C17.3412 50.4695 15.7598 46.6517 15.7598 42.6709ZM59.1213 56.8467C59.117 57.0666 59.0278 57.2762 58.8723 57.4317C58.7169 57.5871 58.5072 57.6763 58.2874 57.6806H41.2764C43.7266 55.9594 45.7237 53.6706 47.0968 51.0096H58.2874C58.5072 51.0139 58.7169 51.1031 58.8723 51.2586C59.0278 51.4141 59.117 51.6237 59.1213 51.8435V56.8467Z" fill="#F4A641"/>
</svg>
