<svg width="85" height="82" viewBox="0 0 85 82" fill="none" xmlns="http://www.w3.org/2000/svg">
<path d="M83.7781 28.3947C83.7781 34.0867 82.0484 39.5448 78.7762 44.1787C76.21 47.813 72.8528 50.7289 68.955 52.7398L69.2779 52.7957C70.0045 52.9213 70.4915 53.6123 70.366 54.3387C70.2537 54.9884 69.6894 55.4465 69.0521 55.4465C68.9765 55.4465 68.8999 55.4402 68.823 55.4268L63.9494 54.5839C63.5115 54.5081 63.1399 54.2194 62.9585 53.8137C62.7769 53.408 62.8089 52.9385 63.0444 52.5615L65.4136 48.7653C65.8043 48.1399 66.6275 47.949 67.253 48.3394C67.8785 48.7299 68.0693 49.5533 67.6789 50.1788L67.4863 50.4876C75.7295 46.3295 81.108 37.7603 81.108 28.3947C81.108 27.6574 81.7058 27.0596 82.4431 27.0596C83.1805 27.0596 83.7781 27.6574 83.7781 28.3947ZM30.324 29.7299C31.0614 29.7299 31.6592 29.1321 31.6592 28.3947C31.6592 18.995 37.029 10.4508 45.2844 6.29607L45.0881 6.61049C44.6977 7.23599 44.8885 8.05959 45.514 8.44995C45.7338 8.58713 45.9781 8.65255 46.2196 8.65255C46.665 8.65255 47.1003 8.42975 47.3536 8.02405L49.7228 4.22781C49.9579 3.85081 49.9903 3.38135 49.8087 2.97564C49.6271 2.56976 49.2558 2.28121 48.8177 2.20544L43.9444 1.36248C43.2191 1.23615 42.5268 1.7238 42.4013 2.4506C42.2757 3.17724 42.7628 3.868 43.4895 3.99366L43.8136 4.04974C34.8212 8.70262 28.9893 18.084 28.9893 28.3946C28.9889 29.1321 29.5867 29.7299 30.324 29.7299ZM56.3835 3.67023C65.7811 3.67023 74.3275 9.04074 78.4822 17.2956L78.1676 17.0993C77.5421 16.7091 76.7187 16.8997 76.3281 17.5252C75.9378 18.1507 76.1285 18.9743 76.754 19.3647L80.5503 21.7339C80.7654 21.8682 81.0109 21.9363 81.2571 21.9363C81.4423 21.9363 81.6284 21.8977 81.8024 21.8198C82.2083 21.6382 82.4969 21.2667 82.5726 20.8288L83.4156 15.9553C83.5413 15.2287 83.0541 14.5379 82.3275 14.4122C81.6025 14.2861 80.9099 14.7736 80.7844 15.5004L80.7283 15.8246C76.0751 6.83279 66.6918 1 56.3835 1C55.6462 1 55.0484 1.5978 55.0484 2.33512C55.0484 3.07243 55.6462 3.67023 56.3835 3.67023ZM36.4389 39.2643C36.8292 38.6388 36.6385 37.815 36.013 37.4248L32.2166 35.0558C31.8396 34.8207 31.3703 34.7881 30.9642 34.9699C30.5585 35.1514 30.27 35.5229 30.1942 35.9608L29.3514 40.8342C29.2257 41.5608 29.7129 42.2516 30.4395 42.3773C30.5165 42.3906 30.5931 42.3969 30.6687 42.3969C31.306 42.3969 31.8703 41.9388 31.9826 41.2891L32.0382 40.9682C36.6885 49.9651 46.0514 55.7893 56.3835 55.7893C57.1208 55.7893 57.7186 55.1915 57.7186 54.4542C57.7186 53.7169 57.1208 53.1191 56.3835 53.1191C46.9631 53.1191 38.4362 47.7546 34.2843 39.4934L34.5994 39.69C35.2251 40.0805 36.0487 39.8898 36.4389 39.2643ZM49.0996 9.97548C49.4903 9.58513 50.0806 9.47515 50.5856 9.69945L51.6545 10.1744C52.1869 9.89605 52.7418 9.66607 53.3142 9.48617L53.7341 8.39538C53.9324 7.88002 54.4277 7.5399 54.9801 7.5399H57.7867C58.3391 7.5399 58.8343 7.88002 59.0327 8.39538L59.4526 9.48617C60.0252 9.66607 60.5799 9.89605 61.1123 10.1744L62.1811 9.69945C62.6861 9.47565 63.2764 9.58513 63.6672 9.97548L65.6519 11.9601C66.0424 12.3508 66.1521 12.9414 65.9279 13.4461L65.4533 14.5144C65.7317 15.0469 65.9618 15.6023 66.1417 16.1749L67.232 16.5947C67.7473 16.7929 68.0875 17.2882 68.0875 17.8407V20.6472C68.0875 21.1996 67.7473 21.6948 67.232 21.8932L66.1412 22.3131C65.9615 22.8856 65.7313 23.4403 65.4531 23.9727L65.9279 25.0418C66.1521 25.5464 66.0424 26.1371 65.6519 26.5276L63.6674 28.5122C63.2769 28.9029 62.6863 29.0129 62.1814 28.7884L61.1128 28.3138C60.5801 28.5923 60.0249 28.8223 59.4524 29.0022L59.0327 30.0923C58.8344 30.6079 58.3391 30.948 57.7867 30.948H54.9801C54.4277 30.948 53.9326 30.6079 53.7341 30.0925L53.3142 29.0017C52.7418 28.8218 52.1871 28.5918 51.6547 28.3136L50.5856 28.7884C50.0806 29.0129 49.4903 28.9029 49.0996 28.5124L47.115 26.5278C46.7244 26.1371 46.6148 25.5464 46.8389 25.0418L47.3136 23.9733C47.0352 23.4408 46.8052 22.8856 46.6253 22.313L45.535 21.8932C45.0195 21.695 44.6794 21.1996 44.6794 20.6472V17.8407C44.6794 17.2882 45.0195 16.7931 45.5349 16.5947L46.6255 16.1748C46.8054 15.6023 47.0354 15.0474 47.3137 14.5149L46.8389 13.4461C46.6148 12.9414 46.7244 12.3508 47.115 11.9601L49.0996 9.97548ZM49.6514 13.2001L50.027 14.0461C50.2056 14.4485 50.1745 14.9131 49.9436 15.2881C49.5232 15.9707 49.2164 16.7108 49.0312 17.4885C48.9294 17.9166 48.623 18.2672 48.2121 18.4253L47.3494 18.7574V19.7305L48.2118 20.0625C48.6228 20.2205 48.9292 20.5711 49.031 20.9994C49.2161 21.7771 49.5232 22.5177 49.9436 23.2003C50.1744 23.5751 50.2054 24.0398 50.0269 24.4421L49.6514 25.2876L50.3396 25.9757L51.1856 25.6C51.5876 25.4213 52.0522 25.4523 52.4274 25.6833C53.1101 26.1037 53.8505 26.4104 54.6278 26.5957C55.0561 26.6975 55.4065 27.0041 55.5646 27.4148L55.8967 28.2776H56.8698L57.2018 27.4153C57.3598 27.0042 57.7106 26.6976 58.1388 26.5958C58.9161 26.4111 59.6567 26.1042 60.3398 25.6835C60.7151 25.4525 61.1796 25.4214 61.5816 25.6002L62.4271 25.9757L63.1153 25.2876L62.7395 24.4415C62.5609 24.0391 62.592 23.5746 62.8228 23.1996C63.2432 22.5167 63.5501 21.7766 63.7352 20.9992C63.837 20.5711 64.1435 20.2205 64.5542 20.0625L65.4171 19.7303V18.7572L64.5547 18.4253C64.1439 18.2672 63.8375 17.9166 63.7357 17.4883C63.5506 16.7105 63.2435 15.97 62.8231 15.2874C62.5921 14.9124 62.5611 14.4478 62.7397 14.0454L63.1152 13.2L62.4271 12.5119L61.5813 12.8877C61.1787 13.0659 60.7141 13.0356 60.3391 12.8043C59.6567 12.3839 58.9164 12.0771 58.1387 11.8919C57.7104 11.7901 57.36 11.4835 57.2019 11.0728L56.8698 10.21H55.8967L55.5646 11.0728C55.4065 11.4835 55.0561 11.7901 54.6278 11.8919C53.8503 12.077 53.11 12.3839 52.4276 12.8043C52.0524 13.0352 51.5876 13.0663 51.1856 12.8877L50.3394 12.5119L49.6514 13.2001ZM50.1537 19.2442C50.1537 15.8091 52.9484 13.0144 56.3835 13.0144C59.8186 13.0144 62.6132 15.8091 62.6132 19.2442C62.6132 22.6793 59.8186 25.4738 56.3835 25.4738C52.9484 25.4738 50.1537 22.6793 50.1537 19.2442ZM52.8239 19.2442C52.8239 21.207 54.4207 22.8036 56.3835 22.8036C58.3463 22.8036 59.9429 21.207 59.9429 19.2442C59.9429 17.2814 58.3463 15.6846 56.3835 15.6846C54.4207 15.6846 52.8239 17.2814 52.8239 19.2442ZM41.1834 47.0401C40.4461 47.0401 39.8483 46.4423 39.8483 45.705V31.9927C39.8483 31.2554 40.4461 30.6576 41.1834 30.6576H48.0387C48.776 30.6576 49.3738 31.2554 49.3738 31.9927V45.705C49.3738 46.4423 48.776 47.0401 48.0387 47.0401H41.1834ZM42.5185 44.3699H46.7036V33.3278H42.5185V44.3699ZM59.9009 48.709H53.0456C52.3082 48.709 51.7104 48.1112 51.7104 47.3739V33.6618C51.7104 32.9245 52.3082 32.3267 53.0456 32.3267H59.9009C60.6382 32.3267 61.236 32.9245 61.236 33.6618V47.3739C61.236 48.1112 60.6382 48.709 59.9009 48.709ZM58.5658 34.9969H54.3807V46.0388H58.5658V34.9969ZM71.5835 30.6576C72.3208 30.6576 72.9186 31.2554 72.9186 31.9927V45.705C72.9186 46.4423 72.3208 47.0401 71.5835 47.0401H64.7281C63.9908 47.0401 63.393 46.4423 63.393 45.705V31.9927C63.393 31.2554 63.9908 30.6576 64.7281 30.6576H71.5835ZM70.2484 33.3278H66.0633V44.3699H70.2484V33.3278Z" fill="white" stroke="#242A34"/>
<path d="M77.7687 64.7512C78.5986 67.6608 76.9072 71.0409 74.2203 71.8429L45.1323 80.5271C44.0742 80.8429 43.0098 80.9997 41.9545 80.9999C40.0412 80.9999 38.157 80.4841 36.3881 79.4627L20.0571 70.0339L17.4595 70.7299L18.1775 73.5042C18.6516 75.3365 17.5466 77.213 15.7143 77.687L11.2686 78.8374C10.9835 78.911 10.6945 78.9475 10.4071 78.9475C9.80228 78.9475 9.20499 78.7858 8.66844 78.4699C7.87705 78.0039 7.31513 77.2596 7.08599 76.3742L1.10984 53.2801C0.63571 51.4478 1.74069 49.5716 3.57297 49.0975L8.0189 47.9469C9.85135 47.473 11.7274 48.5778 12.2015 50.4101L12.5731 51.8462L24.3267 48.6778C27.4025 47.8486 30.9837 47.2846 34.2252 49.3874C35.0251 49.9062 35.9545 50.5541 36.9387 51.2402C39.7688 53.2126 43.291 55.6678 47.0492 57.4381C47.1036 57.4637 47.1563 57.493 47.2066 57.5257C49.6996 59.1426 50.5353 62.343 49.1094 64.8123C48.8454 65.2696 48.539 65.6704 48.1967 66.0122C48.9097 66.0214 49.6256 65.9245 50.3574 65.7254L66.2633 61.3982C75.347 58.9278 77.3663 63.34 77.7687 64.7512ZM15.5922 74.1731L9.61637 51.079C9.52875 50.7403 9.21016 50.5087 8.87171 50.5087C8.81079 50.5087 8.74904 50.5164 8.68763 50.5322L4.24169 51.6828C3.84182 51.7862 3.59149 52.2115 3.69496 52.6113L9.67111 75.7057C9.72151 75.9004 9.84668 76.0652 10.0234 76.1691C10.2003 76.2734 10.4048 76.303 10.5997 76.2524L15.0455 75.102C15.4453 74.9986 15.6957 74.5732 15.5922 74.1731ZM33.5313 62.0089C32.8928 61.6402 32.6738 60.8236 33.0425 60.185C33.4113 59.5466 34.2272 59.3278 34.8664 59.6961C35.79 60.2293 41.3374 63.5409 43.4684 64.5813C44.5632 64.9465 45.9294 64.9802 46.7969 63.477C47.511 62.2404 47.0904 60.6784 45.8219 59.8113C41.8945 57.9493 38.3022 55.4453 35.4116 53.4306C34.4043 52.7285 33.5345 52.1222 32.772 51.6275C30.4168 50.0997 27.6553 50.5459 25.0214 51.2559L13.242 54.4313L16.7904 68.1446L19.9001 67.3115C20.2419 67.2197 20.6065 67.2676 20.9131 67.445L37.7234 77.1503C39.8456 78.3756 42.0814 78.6511 44.3683 77.9682L73.4563 69.2839C74.7473 68.8986 75.6278 66.9805 75.2008 65.4834C74.5793 63.3048 71.5005 62.7405 66.9641 63.9748L51.0582 68.302C48.6013 68.97 46.2082 68.7592 43.7433 67.6574C43.2952 67.4572 42.8609 67.2544 42.438 67.0496M7.38155 52.5915C6.59884 52.4999 5.88989 53.0599 5.79827 53.8427C5.70665 54.6254 6.26673 55.3341 7.04944 55.4259C7.83215 55.5176 8.54093 54.9575 8.63272 54.1748C8.72434 53.392 8.1641 52.6833 7.38155 52.5915Z" fill="#F4A641"/>
<path d="M33.5313 62.0089C32.8928 61.6402 32.6738 60.8236 33.0425 60.185C33.4113 59.5466 34.2272 59.3278 34.8664 59.6961C35.79 60.2293 41.3374 63.5409 43.4684 64.5813C44.5632 64.9465 45.9294 64.9802 46.7969 63.477C47.511 62.2404 47.0904 60.6784 45.8219 59.8113C41.8945 57.9493 38.3022 55.4453 35.4116 53.4306C34.4043 52.7285 33.5345 52.1222 32.772 51.6275C30.4168 50.0997 27.6553 50.5459 25.0214 51.2559L13.242 54.4313L16.7904 68.1446L19.9001 67.3115C20.2419 67.2197 20.6065 67.2676 20.9131 67.445L37.7234 77.1503C39.8456 78.3756 42.0814 78.6511 44.3683 77.9682L73.4563 69.2839C74.7473 68.8986 75.6278 66.9805 75.2008 65.4834C74.5793 63.3048 71.5005 62.7405 66.9641 63.9748L51.0582 68.302C48.6013 68.97 46.2082 68.7592 43.7433 67.6574C43.2952 67.4572 42.8609 67.2544 42.438 67.0496M77.7687 64.7512C78.5986 67.6608 76.9072 71.0409 74.2203 71.8429L45.1323 80.5271C44.0742 80.8429 43.0098 80.9997 41.9545 80.9999C40.0412 80.9999 38.157 80.4841 36.3881 79.4627L20.0571 70.0339L17.4595 70.7299L18.1775 73.5042C18.6516 75.3365 17.5466 77.213 15.7143 77.687L11.2686 78.8374C10.9835 78.911 10.6945 78.9475 10.4071 78.9475C9.80228 78.9475 9.20499 78.7858 8.66844 78.4699C7.87705 78.0039 7.31513 77.2596 7.08599 76.3742L1.10984 53.2801C0.63571 51.4478 1.74069 49.5716 3.57297 49.0975L8.0189 47.9469C9.85135 47.473 11.7274 48.5778 12.2015 50.4101L12.5731 51.8462L24.3267 48.6778C27.4025 47.8486 30.9837 47.2846 34.2252 49.3874C35.0251 49.9062 35.9545 50.5541 36.9387 51.2402C39.7688 53.2126 43.291 55.6678 47.0492 57.4381C47.1036 57.4637 47.1563 57.493 47.2066 57.5257C49.6996 59.1426 50.5353 62.343 49.1094 64.8123C48.8454 65.2696 48.539 65.6704 48.1967 66.0122C48.9097 66.0214 49.6256 65.9245 50.3574 65.7254L66.2633 61.3982C75.347 58.9278 77.3663 63.34 77.7687 64.7512ZM15.5922 74.1731L9.61637 51.079C9.52875 50.7403 9.21016 50.5087 8.87171 50.5087C8.81079 50.5087 8.74904 50.5164 8.68763 50.5322L4.24169 51.6828C3.84182 51.7862 3.59149 52.2115 3.69496 52.6113L9.67111 75.7057C9.72151 75.9004 9.84668 76.0652 10.0234 76.1691C10.2003 76.2734 10.4048 76.303 10.5997 76.2524L15.0455 75.102C15.4453 74.9986 15.6957 74.5732 15.5922 74.1731ZM7.38155 52.5915C6.59884 52.4999 5.88989 53.0599 5.79827 53.8427C5.70665 54.6254 6.26673 55.3341 7.04944 55.4259C7.83215 55.5176 8.54093 54.9575 8.63272 54.1748C8.72434 53.392 8.1641 52.6833 7.38155 52.5915Z" stroke="#242A34"/>
</svg>
