<svg width="167" height="40" viewBox="0 0 167 40" fill="none" xmlns="http://www.w3.org/2000/svg">
<path d="M48.96 28.0296H60.912V24.4296H53.208V10.8696H48.96V28.0296Z" fill="#C3C4C3"/>
<path d="M67.9934 25.6298C66.2894 25.6298 65.4014 24.1418 65.4014 21.9098C65.4014 19.6778 66.2894 18.1658 67.9934 18.1658C69.6974 18.1658 70.6094 19.6778 70.6094 21.9098C70.6094 24.1418 69.6974 25.6298 67.9934 25.6298ZM68.0174 28.4138C71.9774 28.4138 74.5694 25.6058 74.5694 21.9098C74.5694 18.2138 71.9774 15.4058 68.0174 15.4058C64.0814 15.4058 61.4414 18.2138 61.4414 21.9098C61.4414 25.6058 64.0814 28.4138 68.0174 28.4138Z" fill="#C3C4C3"/>
<path d="M81.4242 32.2773C83.2482 32.2773 84.8562 31.8693 85.9362 30.9093C86.9202 30.0213 87.5682 28.6773 87.5682 26.8293V15.7413H83.8242V17.0613H83.7762C83.0562 16.0293 81.9522 15.3813 80.3202 15.3813C77.2722 15.3813 75.1602 17.9253 75.1602 21.5253C75.1602 25.2933 77.7282 27.3573 80.4882 27.3573C81.9762 27.3573 82.9122 26.7573 83.6322 25.9413H83.7282V27.1653C83.7282 28.6533 83.0322 29.5173 81.3762 29.5173C80.0802 29.5173 79.4322 28.9653 79.2162 28.3173H75.4242C75.8082 30.8853 78.0402 32.2773 81.4242 32.2773ZM81.4002 24.4533C79.9362 24.4533 78.9762 23.2533 78.9762 21.4053C78.9762 19.5333 79.9362 18.3333 81.4002 18.3333C83.0322 18.3333 83.8962 19.7253 83.8962 21.3813C83.8962 23.1093 83.1042 24.4533 81.4002 24.4533Z" fill="#C3C4C3"/>
<path d="M95.2659 25.6298C93.5619 25.6298 92.6739 24.1418 92.6739 21.9098C92.6739 19.6778 93.5619 18.1658 95.2659 18.1658C96.9699 18.1658 97.8819 19.6778 97.8819 21.9098C97.8819 24.1418 96.9699 25.6298 95.2659 25.6298ZM95.2899 28.4138C99.2499 28.4138 101.841 25.6058 101.841 21.9098C101.841 18.2138 99.2499 15.4058 95.2899 15.4058C91.3539 15.4058 88.7139 18.2138 88.7139 21.9098C88.7139 25.6058 91.3539 28.4138 95.2899 28.4138Z" fill="#C3C4C3"/>
<path d="M102.984 28.0296H106.896V15.7416H102.984V28.0296ZM102.984 14.0376H106.896V10.8696H102.984V14.0376Z" fill="#C3C4C3"/>
<path d="M108.594 32.0853H112.506V26.7573H112.554C113.322 27.7893 114.45 28.4133 116.034 28.4133C119.25 28.4133 121.386 25.8693 121.386 21.8853C121.386 18.1893 119.394 15.3813 116.13 15.3813C114.45 15.3813 113.25 16.1253 112.41 17.2293H112.338V15.7413H108.594V32.0853ZM115.026 25.3893C113.346 25.3893 112.386 24.0213 112.386 22.0293C112.386 20.0373 113.25 18.5253 114.954 18.5253C116.634 18.5253 117.426 19.9173 117.426 22.0293C117.426 24.1173 116.514 25.3893 115.026 25.3893Z" fill="#C3C4C3"/>
<path d="M127.755 28.4133C130.971 28.4133 133.347 27.0213 133.347 24.3333C133.347 21.1893 130.803 20.6373 128.643 20.2773C127.083 19.9893 125.691 19.8693 125.691 19.0053C125.691 18.2373 126.435 17.8773 127.395 17.8773C128.475 17.8773 129.219 18.2133 129.363 19.3173H132.963C132.771 16.8933 130.899 15.3813 127.419 15.3813C124.515 15.3813 122.115 16.7253 122.115 19.3173C122.115 22.1973 124.395 22.7733 126.531 23.1333C128.163 23.4213 129.651 23.5413 129.651 24.6453C129.651 25.4373 128.907 25.8693 127.731 25.8693C126.435 25.8693 125.619 25.2693 125.475 24.0453H121.779C121.899 26.7573 124.155 28.4133 127.755 28.4133Z" fill="#C3C4C3"/>
<path d="M138.661 28.3897C140.365 28.3897 141.445 27.7177 142.333 26.5177H142.405V28.0297H146.149V15.7417H142.237V22.6057C142.237 24.0697 141.421 25.0777 140.077 25.0777C138.829 25.0777 138.229 24.3337 138.229 22.9897V15.7417H134.341V23.8057C134.341 26.5417 135.829 28.3897 138.661 28.3897Z" fill="#C3C4C3"/>
<path d="M147.851 28.0293H151.763V21.1413C151.763 19.6773 152.483 18.6453 153.707 18.6453C154.883 18.6453 155.435 19.4133 155.435 20.7333V28.0293H159.347V21.1413C159.347 19.6773 160.043 18.6453 161.291 18.6453C162.467 18.6453 163.019 19.4133 163.019 20.7333V28.0293H166.931V20.0373C166.931 17.2773 165.539 15.3813 162.755 15.3813C161.171 15.3813 159.851 16.0533 158.891 17.5413H158.843C158.219 16.2213 156.995 15.3813 155.387 15.3813C153.611 15.3813 152.435 16.2213 151.667 17.4933H151.595V15.7413H147.851V28.0293Z" fill="#C3C4C3"/>
<path d="M25.0925 1.05386L21.1595 0L17.8451 12.3696L14.8528 1.20224L10.9197 2.2561L14.1527 14.3216L6.10008 6.26898L3.22089 9.14817L12.0536 17.981L1.05386 15.0336L0 18.9666L12.0186 22.187C11.881 21.5935 11.8082 20.9751 11.8082 20.3397C11.8082 15.8421 15.4542 12.1961 19.9518 12.1961C24.4494 12.1961 28.0954 15.8421 28.0954 20.3397C28.0954 20.971 28.0235 21.5856 27.8876 22.1756L38.8103 25.1023L39.8641 21.1693L27.7977 17.9361L38.7982 14.9885L37.7443 11.0555L25.6784 14.2885L33.731 6.23592L30.8518 3.35673L22.1416 12.067L25.0925 1.05386Z" fill="#F4A641"/>
<path d="M27.8775 22.2217C27.5403 23.6473 26.8284 24.928 25.8516 25.9541L33.7646 33.8672L36.6438 30.988L27.8775 22.2217Z" fill="#F4A641"/>
<path d="M25.7717 26.0366C24.7831 27.0463 23.5338 27.7998 22.1328 28.1881L25.0122 38.9341L28.9452 37.8802L25.7717 26.0366Z" fill="#F4A641"/>
<path d="M21.985 28.2274C21.335 28.3945 20.6537 28.4833 19.9516 28.4833C19.1994 28.4833 18.471 28.3813 17.7795 28.1904L14.8975 38.9462L18.8305 40L21.985 28.2274Z" fill="#F4A641"/>
<path d="M17.6404 28.1511C16.2608 27.7435 15.0337 26.9804 14.0653 25.9678L6.13281 33.9003L9.012 36.7795L17.6404 28.1511Z" fill="#F4A641"/>
<path d="M13.9999 25.8976C13.0481 24.8786 12.3548 23.615 12.0248 22.2114L1.06641 25.1477L2.12026 29.0807L13.9999 25.8976Z" fill="#F4A641"/>
</svg>
