<svg width="84" height="81" viewBox="0 0 84 81" fill="none" xmlns="http://www.w3.org/2000/svg">
<path d="M25.2693 47.9334C24.9164 47.8087 24.5553 47.6778 24.1953 47.5415V41.7928C25.1001 42.0095 25.6393 42.4669 25.6873 42.5087C26.1812 42.956 26.9442 42.9224 27.397 42.4317C27.8521 41.9382 27.821 41.1691 27.3275 40.7139C27.2583 40.6501 26.0969 39.6036 24.1953 39.3183V38.1443C24.1953 37.473 23.6509 36.9287 22.9796 36.9287C22.3083 36.9287 21.764 37.473 21.764 38.1443V39.4117C21.5836 39.4514 21.4006 39.4971 21.2135 39.5536C19.4745 40.0775 18.1752 41.5657 17.8224 43.4376C17.5009 45.1443 18.0475 46.79 19.2494 47.7327C19.8861 48.2321 20.6787 48.6896 21.7642 49.1728V56.4618C20.8251 56.3926 20.1746 56.1634 19.1088 55.466C18.5469 55.0984 17.7934 55.256 17.426 55.8178C17.0585 56.3797 17.216 57.1331 17.7778 57.5006C19.3318 58.5171 20.3936 58.8203 21.7642 58.8974V60.212C21.7642 60.8833 22.3085 61.4277 22.9798 61.4277C23.6511 61.4277 24.1954 60.8833 24.1954 60.212V58.8008C26.9228 58.2656 28.5159 56.0167 28.869 53.916C29.3227 51.2152 27.91 48.8669 25.2693 47.9334ZM20.7494 45.8197C20.2648 45.4394 20.0585 44.6993 20.2114 43.8879C20.3483 43.1609 20.8283 42.2874 21.7639 41.9341V46.4681C21.3821 46.261 21.0368 46.045 20.7494 45.8197ZM26.471 53.5131C26.2839 54.626 25.5089 55.8055 24.1951 56.2756V50.1313C24.2828 50.1628 24.3686 50.1939 24.4589 50.2259C26.7053 51.0197 26.567 52.9425 26.471 53.5131Z" fill="white"/>
<path d="M83.8256 46.3691C83.6166 45.419 82.9469 44.6517 82.0339 44.3162L78.5545 43.0373C77.9246 42.8058 77.2258 43.1287 76.9941 43.7589C76.7626 44.3891 77.0856 45.0877 77.7159 45.3193L81.1953 46.5981C81.3764 46.6647 81.4334 46.8105 81.4511 46.8914C81.4689 46.9724 81.4784 47.1285 81.3418 47.265L50.2827 78.3243C50.1459 78.4611 49.9895 78.4513 49.9089 78.4336C49.828 78.4157 49.6823 78.3589 49.6158 78.1775L45.2509 66.3016C44.9632 65.519 44.3494 64.9054 43.567 64.6179L31.6913 60.2531C31.51 60.1865 31.4532 60.0408 31.4353 59.9598C31.4175 59.8789 31.408 59.7227 31.5445 59.5863L62.6039 28.527C62.7406 28.3903 62.8964 28.4 62.9775 28.4177C63.0584 28.4355 63.2041 28.4924 63.2706 28.6736L67.6353 40.5493C67.9229 41.3321 68.5369 41.9457 69.3194 42.2333L72.3399 43.3434C72.9701 43.5752 73.6687 43.2519 73.9003 42.6217C74.1318 41.9916 73.8088 41.2929 73.1785 41.0614L70.1579 39.9511C70.0463 39.9101 69.9586 39.8225 69.9176 39.7107L65.5529 27.835C65.2174 26.922 64.45 26.2524 63.5002 26.0433C62.5507 25.834 61.5728 26.1201 60.8848 26.8078L59.709 27.9836V15.9231C59.709 14.3591 58.4365 13.0866 56.8725 13.0866H44.4911C45.6238 10.8844 45.2699 8.1091 43.4272 6.26658C41.8497 4.689 39.5619 4.17074 37.5123 4.82615C36.7207 2.52991 34.5395 0.875 31.9778 0.875C29.4163 0.875 27.2353 2.52959 26.4436 4.82549C24.3941 4.16893 22.1087 4.68622 20.5286 6.26641C19.423 7.37193 18.8141 8.84185 18.8141 10.4055C18.8141 11.3539 19.0395 12.2674 19.4626 13.0865H18.4428C17.7715 13.0865 17.2272 13.6308 17.2272 14.3021C17.2272 14.9734 17.7715 15.5177 18.4428 15.5177H27.1057V27.0233C25.7608 26.7785 24.3916 26.6518 23.0151 26.6518C20.4813 26.6518 18.0969 27.0467 15.8151 27.8067L6.67831 27.807V15.9229C6.67831 15.6994 6.86003 15.5177 7.08352 15.5177H12.6258C13.2971 15.5177 13.8415 14.9734 13.8415 14.3021C13.8415 13.6308 13.2971 13.0865 12.6258 13.0865H7.08319C5.51922 13.0865 4.24674 14.3589 4.24674 15.9229V36.3364C4.24674 36.3437 4.24772 36.3509 4.24788 36.3585C1.57381 40.1182 0 44.7122 0 49.6668C0 54.6102 1.55038 59.3249 4.48351 63.3013C4.72191 63.6244 5.08976 63.7953 5.46269 63.7953C5.71338 63.7953 5.96621 63.7181 6.18331 63.5579C6.7237 63.1594 6.83856 62.3983 6.43991 61.8579C3.81728 58.3026 2.43108 54.0869 2.43108 49.6666C2.43108 38.3168 11.6648 29.0832 23.0146 29.0832C32.5279 29.0832 40.706 35.4925 42.9915 44.7007L40.9336 46.7587C40.318 42.9367 38.4962 39.4166 35.6711 36.6655C32.2597 33.3439 27.7649 31.5145 23.0146 31.5145C13.0055 31.5145 4.86233 39.6575 4.86233 49.6666C4.86233 59.6757 13.0053 67.8189 23.0146 67.8189C27.1457 67.8189 31.1469 66.405 34.3617 63.825L36.9673 64.7825C33.1795 68.2757 28.1886 70.2501 23.0146 70.2501C18.3186 70.2501 13.722 68.62 10.0717 65.6601C9.55033 65.2372 8.78481 65.3172 8.3619 65.8387C7.939 66.3603 8.01896 67.1256 8.5405 67.5487C12.6224 70.8587 17.7628 72.6815 23.0146 72.6815C29.2114 72.6815 35.1725 70.1502 39.4969 65.7122L42.7282 66.8998C42.84 66.9409 42.9276 67.0286 42.9686 67.1404L47.3333 79.0161C47.6689 79.9291 48.4362 80.5987 49.3859 80.8078C49.5907 80.8529 49.7968 80.875 50.001 80.875C50.7439 80.875 51.4618 80.5828 52.0015 80.0433L83.0609 48.9842C83.7486 48.2965 84.0346 47.3189 83.8256 46.3691ZM6.67799 33.4729V30.2386H10.6901C9.2336 31.1658 7.8882 32.252 6.67799 33.4729ZM57.2775 15.9231V27.8072H36.85V15.5179H56.8723C57.0958 15.5179 57.2775 15.6997 57.2775 15.9231ZM41.7081 7.98572C43.0423 9.32014 43.0423 11.4914 41.7082 12.8254C41.655 12.8789 41.5516 12.9673 41.3722 13.0866H35.4494C37.2139 9.76746 37.6714 8.14335 37.7895 7.32736C39.0918 6.69063 40.6652 6.9428 41.7081 7.98572ZM31.9777 3.30625C33.8648 3.30625 35.4001 4.84155 35.4001 6.72848C35.4001 7.07978 35.2002 8.56953 32.6803 13.0865H31.2752C28.7558 8.57068 28.5555 7.08043 28.5555 6.72848C28.5555 4.84155 30.0906 3.30625 31.9777 3.30625ZM22.2476 12.8256C21.6012 12.1792 21.2452 11.3198 21.2452 10.4057C21.2452 9.49153 21.6012 8.63212 22.2476 7.98572C23.2923 6.941 24.8634 6.6903 26.166 7.32802C26.2843 8.14433 26.7414 9.76762 28.506 13.0866H22.5835C22.4041 12.9675 22.301 12.879 22.2476 12.8256ZM29.5366 15.5179H34.4188V27.8072H30.2095C30.2041 27.8072 30.1991 27.8078 30.1937 27.808C29.9757 27.7362 29.7565 27.6687 29.5366 27.6035V15.5179ZM37.3989 31.7124C36.7376 31.1817 36.0483 30.6903 35.336 30.2386H57.2777V30.4149L52.5719 35.1207H40.8326C39.8144 33.8733 38.6645 32.7283 37.3989 31.7124ZM42.5688 37.552H50.1404L44.9597 42.7327C44.3818 40.9133 43.5757 39.1718 42.5688 37.552ZM23.0148 65.3878C14.3461 65.3878 7.29391 58.3354 7.29391 49.6669C7.29391 40.9985 14.3463 33.9461 23.0148 33.9461C31.36 33.9461 38.354 40.6654 38.7194 48.9733L29.8255 57.8673C29.1378 58.555 28.8519 59.5327 29.0609 60.4825C29.27 61.4324 29.9398 62.1997 30.8527 62.5353L31.619 62.8169C29.0732 64.4858 26.0852 65.3878 23.0148 65.3878Z" fill="#F4A641"/>
<path d="M59.6067 63.6673C59.7597 63.6673 59.9157 63.6381 60.0661 63.5765C60.6876 63.3225 60.9855 62.6127 60.7314 61.9912L53.7319 44.8679C53.4781 44.2466 52.7684 43.9482 52.1466 44.2027C51.5251 44.4567 51.2272 45.1665 51.4814 45.788L58.4808 62.9112C58.6734 63.3821 59.1274 63.6673 59.6067 63.6673Z" fill="white"/>
<path d="M45.154 49.937C44.3023 50.7887 43.8858 51.9583 43.9812 53.2303C44.0714 54.4336 44.6167 55.5921 45.5165 56.4918C46.4163 57.3917 47.5746 57.937 48.7781 58.0271C48.8974 58.0361 49.0159 58.0405 49.1332 58.0405C50.2667 58.0405 51.2995 57.626 52.0714 56.8542C52.9231 56.0025 53.3396 54.8329 53.2443 53.5609C53.154 52.3574 52.6087 51.1992 51.709 50.2993C50.8091 49.3994 49.6508 48.8541 48.4473 48.764C47.1743 48.6681 46.0056 49.0853 45.154 49.937ZM49.9898 52.0186C50.4783 52.5072 50.7732 53.1195 50.8199 53.7428C50.8615 54.2975 50.6954 54.792 50.3521 55.1352C50.009 55.4783 49.514 55.6438 48.9598 55.6029C48.3365 55.5562 47.7242 55.2614 47.2356 54.7728C46.7472 54.2842 46.4522 53.6719 46.4055 53.0487C46.3639 52.4941 46.5301 51.9996 46.8733 51.6563C47.1819 51.3478 47.6126 51.1825 48.0998 51.1825C48.1543 51.1825 48.2097 51.1846 48.2656 51.1887C48.8889 51.2352 49.5012 51.53 49.9898 52.0186C49.9896 52.0186 49.9896 52.0186 49.9898 52.0186Z" fill="white"/>
<path d="M64.2159 59.4509C65.3496 59.4509 66.3824 59.0363 67.1541 58.2646C68.8613 56.5574 68.6988 53.6169 66.7919 51.7097C64.8849 49.8026 61.9443 49.6402 60.2369 51.3472C58.5298 53.0544 58.6923 55.9949 60.5994 57.902C61.4993 58.8019 62.6575 59.3472 63.861 59.4373C63.9805 59.4465 64.0988 59.4509 64.2159 59.4509ZM61.9562 53.0665C62.2782 52.7446 62.7149 52.5884 63.1845 52.5884C63.822 52.5884 64.5202 52.8766 65.0726 53.429C66.0318 54.3882 66.1943 55.7863 65.4348 56.5456C65.0917 56.8886 64.5971 57.0547 64.0427 57.0133C63.4194 56.9666 62.807 56.6718 62.3185 56.1832C61.3595 55.2238 61.1969 53.8258 61.9562 53.0665Z" fill="white"/>
</svg>
