<svg width="73" height="80" viewBox="0 0 73 80" fill="none" xmlns="http://www.w3.org/2000/svg">
<path d="M4.27551 12.9561C8.29468 11.5754 11.5143 8.33752 12.8888 4.29456C13.7628 1.72375 16.1694 -0.00292969 18.8782 -0.00292969H53.7781C56.4862 -0.00292969 58.8934 1.72375 59.7675 4.29456C61.142 8.33752 64.3616 11.5754 68.3807 12.9561C70.9381 13.835 72.6562 16.2489 72.6562 18.9631V27.7919C72.6562 39.3129 69.2041 50.406 62.6727 59.8726C56.6968 68.5341 48.4619 75.312 38.8574 79.4746C38.0536 79.8231 37.1912 79.9971 36.3281 79.9971C35.4657 79.9971 34.6033 79.8231 33.7994 79.4746C24.1949 75.3126 15.9601 68.5341 9.98413 59.8726C3.45276 50.406 0 39.3123 0 27.7919V18.9631C0 16.2489 1.71814 13.835 4.27551 12.9561ZM4.6875 27.7919C4.6875 38.3571 7.85339 48.5298 13.8428 57.2108C19.3195 65.149 26.8652 71.3606 35.6635 75.1735C36.0852 75.3566 36.5704 75.3572 36.9934 75.1735C45.7922 71.3606 53.3374 65.149 58.8141 57.2108C64.8029 48.5304 67.9688 38.3577 67.9688 27.7919V18.9631C67.9688 18.2502 67.522 17.6179 66.8573 17.3896C61.4771 15.5409 57.1674 11.2098 55.3296 5.80334C55.1019 5.1344 54.4788 4.68457 53.7781 4.68457H18.8782C18.1781 4.68457 17.5543 5.1344 17.3267 5.80334C15.4889 11.2098 11.1792 15.5409 5.79895 17.3896C5.13428 17.6179 4.6875 18.2502 4.6875 18.9631V27.7919Z" fill="#F4A641"/>
<path d="M26.3685 30.3853H26.5278V23.7105C26.5278 18.307 30.9242 13.9106 36.3276 13.9106C41.7311 13.9106 46.1274 18.307 46.1274 23.7105V30.3853H46.2867C49.3989 30.3853 51.9307 32.9176 51.9307 36.0298V49.5186C51.9307 55.3145 47.2151 60.0306 41.4198 60.0306H31.2355C25.4396 60.0306 20.7246 55.3145 20.7246 49.5186V36.0298C20.7246 32.9176 23.2563 30.3853 26.3685 30.3853ZM41.4399 23.7105C41.4399 20.8918 39.1462 18.5981 36.3276 18.5981C33.509 18.5981 31.2153 20.8918 31.2153 23.7105V30.3859H41.4399V23.7105ZM25.4121 49.5186C25.4121 52.7302 28.0244 55.3425 31.2355 55.3425H41.4198C44.6309 55.3425 47.2432 52.7302 47.2432 49.5186V36.0298C47.2432 35.5024 46.8141 35.0734 46.2867 35.0734H26.3685C25.8412 35.0734 25.4121 35.5024 25.4121 36.0298V49.5186Z" fill="white"/>
<path d="M36.3281 40.6504C37.6227 40.6504 38.6719 41.6996 38.6719 42.9941V47.4222C38.6719 48.7168 37.6227 49.766 36.3281 49.766C35.0336 49.766 33.9844 48.7168 33.9844 47.4222V42.9941C33.9844 41.6996 35.0336 40.6504 36.3281 40.6504Z" fill="#F4A641"/>
</svg>
