<svg width="61" height="61" viewBox="0 0 61 61" fill="none" xmlns="http://www.w3.org/2000/svg">
<mask id="mask0_1004_659" style="mask-type:alpha" maskUnits="userSpaceOnUse" x="0" y="0" width="61" height="61">
<rect x="0.105469" y="0.402344" width="60" height="60" fill="black"/>
</mask>
<g mask="url(#mask0_1004_659)">
<path d="M56.6399 2.85352H16.1265C14.7655 2.8551 13.6625 3.95806 13.6609 5.31913V16.4937L11.8083 13.7148C10.9603 12.4356 9.25489 12.0519 7.94073 12.8446L4.12923 15.1361C2.88101 15.8686 1.96536 17.0563 1.57467 18.4498C0.184251 23.5125 1.21593 32.235 14.0188 45.0397C24.2002 55.2106 31.7913 57.9499 37.0233 57.9499C38.2346 57.9554 39.4412 57.798 40.6105 57.4819C42.0035 57.0912 43.1912 56.1768 43.9251 54.9303L46.2137 51.1148C47.0032 49.8017 46.6198 48.0998 45.3435 47.252L36.2169 41.1682C34.9649 40.3401 33.2868 40.6124 32.3608 41.7938L29.7037 45.2098C29.426 45.5753 28.9222 45.6819 28.5202 45.4602L28.0145 45.1817C26.3504 44.2748 24.2794 43.1454 20.0966 38.9626C19.644 38.5101 19.234 38.0866 18.8493 37.6814H56.6399C57.9975 37.6824 59.1001 36.585 59.1055 35.2274V5.31913C59.1039 3.95806 58.0009 2.8551 56.6399 2.85352ZM27.0892 46.8798L27.5804 47.1496C28.8152 47.8399 30.3694 47.5196 31.2305 46.3973L33.8876 42.9812C34.1896 42.5964 34.7362 42.5077 35.1445 42.7772L44.2711 48.861C44.6857 49.1373 44.8104 49.6905 44.5544 50.1179L42.2658 53.9334C41.7878 54.753 41.0113 55.3558 40.099 55.6158C35.5284 56.8727 27.5292 55.8092 15.3887 43.6678C3.24814 31.5263 2.18858 23.5279 3.44258 18.9612C3.70239 18.049 4.30486 17.2726 5.12397 16.7944L8.93944 14.5048C9.36696 14.2494 9.91979 14.3739 10.1964 14.7881L16.283 23.9147C16.5529 24.3228 16.4642 24.8699 16.0789 25.1716L12.6619 27.8296C11.5398 28.6904 11.2193 30.2444 11.9096 31.4787L12.1803 31.97C13.1472 33.7432 14.3491 35.9497 18.7302 40.3298C23.1114 44.71 25.3169 45.9128 27.0892 46.8798ZM57.1717 35.2275C57.1686 35.5183 56.9307 35.7518 56.64 35.7496H17.105C15.8492 34.3135 14.7663 32.7351 13.8784 31.0466L13.5999 30.539C13.3778 30.1378 13.4841 29.6345 13.8494 29.3574L17.2664 26.6994C18.4482 25.7736 18.7205 24.0953 17.892 22.8433L15.5947 19.3953V5.31913C15.5931 5.1776 15.6486 5.04141 15.7487 4.94135C15.8487 4.8413 15.9849 4.78578 16.1264 4.78737H56.6399C56.7814 4.78578 56.9176 4.8413 57.0176 4.94135C57.1177 5.04141 57.1732 5.1776 57.1716 5.31913V35.2275H57.1717Z" fill="#F4A641" stroke="#F4A641" stroke-width="0.5"/>
<path d="M53.3112 7.33139L37.1513 19.5869C36.6941 19.9192 36.075 19.9192 35.6178 19.5869L19.4638 7.33139C19.0382 7.00857 18.4314 7.09197 18.1087 7.51756C17.7859 7.94315 17.8693 8.54992 18.2949 8.87263L34.4509 21.1271C35.6003 21.9763 37.1691 21.9763 38.3185 21.1271L54.4793 8.87263C54.6839 8.71762 54.8184 8.4876 54.8532 8.23333C54.8879 7.97907 54.8203 7.7214 54.6649 7.51711C54.3422 7.09231 53.7365 7.00925 53.3112 7.33139Z" fill="white"/>
<path d="M28.1295 21.2055L18.2246 31.8125C17.8604 32.203 17.8818 32.815 18.2724 33.1792C18.663 33.5434 19.2749 33.522 19.6391 33.1314L29.5442 22.5196C29.8714 22.1249 29.8334 21.5432 29.4578 21.1941C29.0821 20.845 28.4992 20.85 28.1295 21.2055Z" fill="white"/>
<path d="M44.6997 21.208C44.3355 20.8174 43.7237 20.7959 43.333 21.1602C42.9424 21.5243 42.9209 22.1362 43.2852 22.5269L53.1873 33.1339C53.5514 33.5245 54.1633 33.546 54.554 33.1817C54.9446 32.8175 54.9661 32.2057 54.6018 31.815L44.6997 21.208Z" fill="white"/>
</g>
</svg>
