<svg width="84" height="84" viewBox="0 0 84 84" fill="none" xmlns="http://www.w3.org/2000/svg">
<path d="M72.7486 37.1743V62.4924C72.7486 63.1572 73.2862 63.6964 73.951 63.6964H79.316C80.388 63.6964 80.924 64.9905 80.1675 65.7487L64.504 81.4121C63.7201 82.196 62.4517 82.196 61.6678 81.4121L46.0044 65.7487C45.2479 64.9905 45.7839 63.6964 46.8559 63.6964H52.2209C52.8856 63.6964 53.4233 63.1572 53.4233 62.4924V37.1743" stroke="white" stroke-width="3" stroke-miterlimit="10" stroke-linecap="round" stroke-linejoin="round"/>
<path d="M30.5758 46.8257V21.5077C30.5758 20.8429 31.1134 20.3036 31.7782 20.3036H37.1431C38.2151 20.3036 38.7511 19.0095 37.9946 18.2513L22.3312 2.58792C21.5473 1.80403 20.2789 1.80403 19.495 2.58792L3.83156 18.2513C3.07503 19.0095 3.61104 20.3036 4.68306 20.3036H10.048C10.7128 20.3036 11.2504 20.8429 11.2504 21.5077V46" stroke="#F4A641" stroke-width="3" stroke-miterlimit="10" stroke-linecap="round" stroke-linejoin="round"/>
<path d="M77.3027 8.43938C73.8365 4.49205 68.7522 2.00049 63.0861 2.00049C52.6407 2.00049 44.1729 10.4683 44.1729 20.9138C44.1729 31.3592 52.6407 39.8271 63.0861 39.8271C73.5316 39.8271 81.9994 31.3592 81.9994 20.9138C81.9994 18.1481 81.4058 15.521 80.3391 13.1532" stroke="#F4A641" stroke-width="3" stroke-miterlimit="10" stroke-linecap="round" stroke-linejoin="round"/>
<path d="M66.7139 16.5454V25.2744C66.8104 25.291 69.773 25.2744 69.773 25.2744" stroke="white" stroke-width="3" stroke-miterlimit="10" stroke-linecap="round" stroke-linejoin="round"/>
<path d="M73.7539 16.5454V25.2744C73.8505 25.291 76.8131 25.2744 76.8131 25.2744" stroke="white" stroke-width="3" stroke-miterlimit="10" stroke-linecap="round" stroke-linejoin="round"/>
<path d="M62.6406 16.5854H58.9932V25.242H62.6406" stroke="white" stroke-width="3" stroke-miterlimit="10" stroke-linecap="round" stroke-linejoin="round"/>
<path d="M62.3718 20.9136H58.9932" stroke="white" stroke-width="3" stroke-miterlimit="10" stroke-linecap="round" stroke-linejoin="round"/>
<path d="M54.743 17.4436C54.743 17.4436 53.1754 16.1257 51.3267 16.6827C49.6293 17.1941 49.3919 19.1512 50.6199 19.9519C50.6199 19.9519 51.8249 20.4895 53.1615 20.9826C56.3789 22.1694 54.993 25.2819 52.4029 25.2819C51.1058 25.2819 50.0174 24.7139 49.3584 23.987" stroke="white" stroke-width="3" stroke-miterlimit="10" stroke-linecap="round" stroke-linejoin="round"/>
<path d="M20.9133 81.9997C31.3588 81.9997 39.8266 73.5319 39.8266 63.0864C39.8266 52.6409 31.3588 44.1731 20.9133 44.1731C10.4678 44.1731 2 52.6409 2 63.0864C2 73.5319 10.4678 81.9997 20.9133 81.9997Z" stroke="#DDDDDD" stroke-width="3" stroke-miterlimit="10" stroke-linecap="round" stroke-linejoin="round"/>
<path d="M13.0666 60.7283C13.0666 61.8385 12.1667 62.7386 11.0563 62.7386C10.5057 62.7386 8.51855 62.7475 8.51855 62.7475C8.51855 62.7475 8.51855 61.288 8.51855 60.7283C8.51855 60.2688 8.51855 58.718 8.51855 58.718C8.51855 58.718 10.4057 58.718 11.0563 58.718C12.1667 58.718 13.0666 59.618 13.0666 60.7283Z" stroke="#F4A641" stroke-width="3" stroke-miterlimit="10" stroke-linecap="round" stroke-linejoin="round"/>
<path d="M13.851 65.0925C13.851 66.3912 12.7982 67.4441 11.4995 67.4441C10.8555 67.4441 8.51855 67.4545 8.51855 67.4545C8.51855 67.4545 8.51855 65.7472 8.51855 65.0925C8.51855 64.5549 8.51855 62.741 8.51855 62.741C8.51855 62.741 10.7384 62.741 11.4995 62.741C12.7982 62.741 13.851 63.7938 13.851 65.0925Z" stroke="#F4A641" stroke-width="3" stroke-miterlimit="10" stroke-linecap="round" stroke-linejoin="round"/>
<path d="M27.749 58.718L30.5397 62.9918L33.3073 58.7401" stroke="#F4A641" stroke-width="3" stroke-miterlimit="10" stroke-linecap="round" stroke-linejoin="round"/>
<path d="M30.5293 67.4546L30.5402 62.9919" stroke="#F4A641" stroke-width="3" stroke-miterlimit="10" stroke-linecap="round" stroke-linejoin="round"/>
<path d="M17.6523 58.7182V64.7298C17.6523 65.7535 18.1602 66.4428 19.023 66.9941C19.4431 67.2626 19.9738 67.4538 20.6333 67.4546C21.2044 67.4554 21.6818 67.3231 22.0765 67.1243C23.0819 66.6179 23.723 65.8491 23.723 64.7233V58.718" stroke="#F4A641" stroke-width="3" stroke-miterlimit="10" stroke-linecap="round" stroke-linejoin="round"/>
</svg>
