<svg width="81" height="80" viewBox="0 0 81 80" fill="none" xmlns="http://www.w3.org/2000/svg">
<path d="M80.0546 75.1416C80.0546 76.443 79.5504 77.6641 78.6348 78.5798C77.7191 79.4956 76.498 79.9999 75.1966 79.9999C73.895 79.9996 72.6739 79.4956 71.7583 78.5798L60.8861 67.7078C60.6359 67.4573 60.4954 67.1179 60.4954 66.7641C60.4954 66.4103 60.6361 66.0709 60.8861 65.8207L61.0269 65.6799L59.8771 64.5304C56.7532 66.7261 52.9494 68.0172 48.8493 68.0172C41.8695 68.0172 35.7471 64.2775 32.3793 58.6968H1.33424C0.597427 58.6968 0 58.0995 0 57.3625V1.33449C0 0.597672 0.597427 0.000244141 1.33424 0.000244141H5.99154C6.72836 0.000244141 7.32578 0.597672 7.32578 1.33449V51.371H29.7999C29.6865 50.5279 29.6266 49.668 29.6266 48.7945C29.6266 48.5804 29.6315 48.3674 29.6384 48.155H25.0166C24.2798 48.155 23.6824 47.5577 23.6824 46.8207V26.7149C23.6824 25.9781 24.2798 25.3807 25.0166 25.3807H32.68C33.4168 25.3807 34.0143 25.9781 34.0143 26.7149V36.5833C34.9187 35.4866 35.9426 34.492 37.0651 33.6185V19.6995C37.0651 18.9627 37.6626 18.3652 38.3994 18.3652H46.0628C46.7996 18.3652 47.3971 18.9627 47.3971 19.6995V29.6266C47.8766 29.5906 48.3608 29.572 48.8493 29.572C49.3876 29.572 49.9205 29.5953 50.4478 29.639V12.6842C50.4478 11.9474 51.0452 11.35 51.782 11.35H59.4454C60.1823 11.35 60.7797 11.9474 60.7797 12.6842V33.7331C65.2196 37.2574 68.0722 42.6989 68.0722 48.7946C68.0722 52.8947 66.781 56.6985 64.5853 59.8226L65.7349 60.9722L65.8757 60.8314C66.1259 60.5812 66.4653 60.4406 66.8193 60.4406C67.1731 60.4406 67.5124 60.5812 67.7626 60.8314L78.6348 71.7038C79.5503 72.6191 80.0546 73.8401 80.0546 75.1416ZM66.8193 63.6616L63.7164 66.7642L64.1822 67.23L67.2848 64.1273L66.8193 63.6616ZM53.1163 30.0498C54.8859 30.4524 56.5633 31.1001 58.1112 31.9549V14.0184H53.1163V30.0498ZM39.7336 31.8744C41.2834 31.036 42.9611 30.4055 44.7286 30.0179V21.0336H39.7336V31.8744ZM29.9125 45.4865C30.1954 43.863 30.682 42.3088 31.3459 40.8515V28.0492H26.351V45.4865H29.9125ZM31.0408 56.0283C30.7772 55.3819 30.5468 54.7185 30.354 54.0395H5.99154C5.25472 54.0395 4.6573 53.4422 4.6573 52.7052V2.66873H2.66849V56.0283H31.0408ZM48.8493 65.3487C57.9775 65.3487 65.4037 57.9226 65.4037 48.7945C65.4037 39.6665 57.9775 32.2403 48.8493 32.2403C39.7214 32.2403 32.2951 39.6665 32.2951 48.7945C32.2951 57.9228 39.7214 65.3487 48.8493 65.3487ZM62.9138 63.7931L63.848 62.859L62.8937 61.9048C62.593 62.2267 62.2814 62.5383 61.9595 62.8389L62.9138 63.7931ZM77.3861 75.1416C77.3861 74.5529 77.1596 74.002 76.7479 73.5905L69.1716 66.0139L66.0691 69.1169L73.6452 76.6929C74.0568 77.1046 74.6078 77.3315 75.1966 77.3315C75.7852 77.3315 76.3363 77.1046 76.7479 76.6929C77.1596 76.2815 77.3861 75.7302 77.3861 75.1416Z" fill="#F4A641"/>
<path d="M14.4358 24.2904C14.0674 23.6524 14.2861 22.8363 14.9241 22.4679L48.1655 3.27594L44.971 2.64335C44.2481 2.50019 43.778 1.79822 43.9212 1.07538C44.0643 0.352529 44.7665 -0.117596 45.4892 0.0257178L52.1659 1.34772C52.5431 1.42244 52.8697 1.65632 53.0622 1.98941C53.2546 2.3225 53.2937 2.7223 53.1698 3.08647L50.9764 9.52962C50.7875 10.0847 50.2689 10.4342 49.7135 10.4342C49.5708 10.4342 49.4258 10.4112 49.2834 10.3627C48.5859 10.1252 48.2129 9.36715 48.4502 8.66958L49.4997 5.58669L16.2582 24.7788C16.0482 24.9 15.8187 24.9577 15.5924 24.9577C15.1313 24.9579 14.683 24.7185 14.4358 24.2904ZM10.2998 46.8208V33.7301C10.2998 32.9933 10.8972 32.3959 11.634 32.3959H19.2975C20.0343 32.3959 20.6317 32.9933 20.6317 33.7301V46.8208C20.6317 47.5578 20.0343 48.155 19.2975 48.155H11.634C10.8972 48.155 10.2998 47.5578 10.2998 46.8208ZM12.9683 45.4865H17.9632V35.0644H12.9683V45.4865ZM63.6085 48.7945C63.6085 56.9328 56.9877 63.5533 48.8496 63.5533C40.7115 63.5533 34.0908 56.9326 34.0908 48.7945C34.0908 40.6564 40.7116 34.0356 48.8496 34.0356C56.9877 34.0356 63.6085 40.6566 63.6085 48.7945ZM60.94 48.7945C60.94 42.1279 55.5162 36.7041 48.8496 36.7041C42.1829 36.7041 36.7593 42.1279 36.7593 48.7945C36.7593 55.4612 42.1831 60.8848 48.8496 60.8848C55.5162 60.885 60.94 55.4612 60.94 48.7945Z" fill="white"/>
</svg>
