<svg width="81" height="80" viewBox="0 0 81 80" fill="none" xmlns="http://www.w3.org/2000/svg">
<path d="M33.333 80C26.4434 80 20.833 74.3933 20.833 67.5C20.833 66.12 21.953 65 23.333 65C24.713 65 25.833 66.12 25.833 67.5C25.833 71.637 29.1997 75 33.333 75C37.4663 75 40.833 71.637 40.833 67.5C40.833 66.12 41.953 65 43.333 65C44.713 65 45.833 66.12 45.833 67.5C45.833 74.3933 40.2233 80 33.333 80Z" fill="white"/>
<path d="M60.8331 70.0001H5.83313C2.61658 70.0001 0 67.3835 0 64.167C0 62.4598 0.743408 60.8436 2.03979 59.7334C2.12341 59.6601 2.21313 59.5936 2.30652 59.5332C7.19971 55.2631 10 49.1199 10 42.6331V33.3332C10 22.4769 17.3566 13.1568 27.89 10.6666C29.2364 10.3565 30.5835 11.1799 30.9003 12.5269C31.2164 13.8703 30.3833 15.2168 29.0436 15.5335C20.7733 17.4867 15 24.8066 15 33.3332V42.6331C15 50.6867 11.4697 58.307 5.32349 63.5365C5.27344 63.5767 5.2301 63.6134 5.17639 63.65C5.08667 63.7635 5 63.9368 5 64.167C5 64.6198 5.38025 65.0001 5.83313 65.0001H60.8331C61.2866 65.0001 61.6669 64.6198 61.6669 64.167C61.6669 63.9332 61.5802 63.7635 61.4868 63.65C61.4368 63.6134 61.3898 63.5767 61.3434 63.5365C58.3569 60.9901 55.9998 57.917 54.3402 54.4001C53.7469 53.1532 54.2798 51.6633 55.5298 51.07C56.7902 50.4768 58.2666 51.0169 58.8568 52.2633C60.1764 55.0501 62.0264 57.497 64.3664 59.5435C64.4531 59.6034 64.5434 59.6668 64.6197 59.7334C65.9235 60.8436 66.6669 62.4598 66.6669 64.167C66.6669 67.3835 64.0503 70.0001 60.8331 70.0001Z" fill="#F4A641"/>
<path d="M58.6663 43.3331C46.7198 43.3331 37 33.6133 37 21.6669C37 9.71985 46.7198 0 58.6663 0C70.6133 0 80.3331 9.71985 80.3331 21.6669C80.3331 33.6133 70.6133 43.3331 58.6663 43.3331ZM58.6663 5C49.4762 5 42 12.4768 42 21.6669C42 30.8569 49.4762 38.3331 58.6663 38.3331C67.8563 38.3331 75.3331 30.8569 75.3331 21.6669C75.3331 12.4768 67.8563 5 58.6663 5Z" fill="#F4A641"/>
<path d="M59.2996 31C59.0709 31.0002 58.8515 30.905 58.6897 30.7354C58.5278 30.5658 58.4367 30.3356 58.4363 30.0955V28.7483C58.4363 28.631 58.392 28.5186 58.313 28.4357C58.2341 28.3528 58.127 28.3062 58.0154 28.3062H56.7343C56.6226 28.3062 56.5154 28.3528 56.4364 28.4357C56.3573 28.5185 56.3128 28.631 56.3127 28.7483V30.0955C56.3066 30.3312 56.2132 30.5552 56.0522 30.7197C55.8913 30.8842 55.6756 30.9762 55.451 30.9762C55.2264 30.9762 55.0106 30.8842 54.8497 30.7197C54.6888 30.5552 54.5953 30.3312 54.5892 30.0955V28.7483C54.5892 28.631 54.5449 28.5186 54.4659 28.4357C54.387 28.3528 54.2799 28.3062 54.1683 28.3062H52.8853C52.6567 28.3062 52.4374 28.2109 52.2758 28.0411C52.1141 27.8714 52.0233 27.6411 52.0233 27.4011C52.0233 27.161 52.1141 26.9308 52.2758 26.761C52.4374 26.5912 52.6567 26.4959 52.8853 26.4959H54.1683C54.2236 26.4959 54.2783 26.4844 54.3294 26.4622C54.3805 26.44 54.4269 26.4075 54.4659 26.3664C54.505 26.3254 54.536 26.2766 54.5572 26.223C54.5784 26.1694 54.5892 26.1119 54.5892 26.0538V17.9712C54.5893 17.9131 54.5785 17.8556 54.5574 17.8019C54.5363 17.7482 54.5053 17.6994 54.4662 17.6583C54.4271 17.6171 54.3806 17.5845 54.3295 17.5623C54.2784 17.54 54.2236 17.5286 54.1683 17.5286H52.8853C52.7702 17.5318 52.6556 17.5108 52.5483 17.4668C52.4411 17.4228 52.3433 17.3567 52.2608 17.2723C52.1782 17.188 52.1126 17.0871 52.0679 16.9757C52.0231 16.8643 52 16.7446 52 16.6237C52 16.5028 52.0231 16.3831 52.0679 16.2717C52.1126 16.1603 52.1782 16.0594 52.2608 15.9751C52.3433 15.8907 52.4411 15.8246 52.5483 15.7806C52.6556 15.7366 52.7702 15.7156 52.8853 15.7189H54.1683C54.2799 15.7189 54.387 15.6723 54.4659 15.5894C54.5449 15.5065 54.5892 15.3941 54.5892 15.2768V13.9296C54.5861 13.8087 54.6061 13.6884 54.648 13.5758C54.6899 13.4631 54.7529 13.3605 54.8332 13.2738C54.9136 13.1872 55.0096 13.1183 55.1157 13.0713C55.2218 13.0242 55.3358 13 55.451 13C55.5661 13 55.6801 13.0242 55.7862 13.0713C55.8923 13.1183 55.9884 13.1872 56.0687 13.2738C56.149 13.3605 56.212 13.4631 56.2539 13.5758C56.2958 13.6884 56.3158 13.8087 56.3127 13.9296V15.2768C56.3128 15.3941 56.3573 15.5066 56.4364 15.5894C56.5154 15.6723 56.6226 15.7189 56.7343 15.7189H58.0172C58.1286 15.7183 58.2352 15.6715 58.3137 15.5887C58.3922 15.5059 58.4363 15.3937 58.4363 15.2768V13.9296C58.4332 13.8087 58.4532 13.6884 58.4951 13.5758C58.537 13.4631 58.6 13.3605 58.6803 13.2738C58.7606 13.1872 58.8567 13.1183 58.9628 13.0713C59.0689 13.0242 59.1829 13 59.298 13C59.4132 13 59.5272 13.0242 59.6333 13.0713C59.7394 13.1183 59.8354 13.1872 59.9158 13.2738C59.9961 13.3605 60.0591 13.4631 60.101 13.5758C60.1429 13.6884 60.1629 13.8087 60.1597 13.9296V15.5249C60.1598 15.6161 60.1866 15.7051 60.2367 15.7796C60.2867 15.8541 60.3575 15.9106 60.4393 15.9412C60.911 16.113 61.3408 16.392 61.6979 16.7582C62.0551 17.1245 62.3309 17.569 62.5057 18.0601C62.6804 18.5511 62.7498 19.0767 62.7089 19.5991C62.668 20.1216 62.5178 20.6281 62.269 21.0826C62.2149 21.1816 62.1994 21.2986 62.2257 21.4092C62.2519 21.5199 62.3178 21.6156 62.4097 21.6764C63.0354 22.0932 63.5155 22.7118 63.778 23.4394C64.0404 24.167 64.0711 24.9644 63.8653 25.7118C63.6596 26.4593 63.2285 27.1165 62.6369 27.5849C62.0452 28.0533 61.3248 28.3076 60.5839 28.3095C60.4722 28.3095 60.3651 28.3561 60.2862 28.439C60.2072 28.5219 60.1629 28.6343 60.1629 28.7516V30.0988C60.1617 30.3383 60.0702 30.5677 59.9085 30.7366C59.7467 30.9055 59.5277 31.0002 59.2996 31ZM56.7343 22.9174C56.6226 22.9174 56.5154 22.9639 56.4364 23.0468C56.3573 23.1297 56.3128 23.2421 56.3127 23.3594V26.0538C56.3128 26.1711 56.3573 26.2836 56.4364 26.3665C56.5154 26.4493 56.6226 26.4959 56.7343 26.4959H60.5826C62.8382 26.4959 62.8357 22.9174 60.5826 22.9174H56.7343ZM56.7343 17.5286C56.6224 17.5286 56.5152 17.5752 56.4362 17.6582C56.3571 17.7412 56.3127 17.8538 56.3127 17.9712V20.665C56.3128 20.7824 56.3573 20.8949 56.4363 20.9778C56.5154 21.0608 56.6225 21.1075 56.7343 21.1077H59.2996C61.5552 21.1077 61.5527 17.5286 59.2996 17.5286H56.7343Z" fill="white"/>
</svg>
