<svg width="89" height="80" viewBox="0 0 89 80" fill="none" xmlns="http://www.w3.org/2000/svg">
<path d="M87.0525 80.0001H1.26163C0.927026 80.0001 0.606125 79.8671 0.369523 79.6305C0.132921 79.3939 0 79.073 0 78.7384C0 78.4038 0.132921 78.0829 0.369523 77.8463C0.606125 77.6097 0.927026 77.4768 1.26163 77.4768H87.0525C87.3871 77.4768 87.708 77.6097 87.9446 77.8463C88.1813 78.0829 88.3142 78.4038 88.3142 78.7384C88.3142 79.073 88.1813 79.3939 87.9446 79.6305C87.708 79.8671 87.3871 80.0001 87.0525 80.0001Z" fill="#F4A641"/>
<path d="M20.6021 72.3421H10.0927C9.75808 72.3421 9.43718 72.2091 9.20058 71.9725C8.96398 71.7359 8.83105 71.415 8.83105 71.0804V56.6852C8.83105 56.3506 8.96398 56.0297 9.20058 55.7931C9.43718 55.5565 9.75808 55.4236 10.0927 55.4236H20.6525C20.9871 55.4236 21.308 55.5565 21.5446 55.7931C21.7812 56.0297 21.9142 56.3506 21.9142 56.6852V71.0804C21.9143 71.2504 21.8801 71.4187 21.8135 71.5752C21.747 71.7316 21.6495 71.873 21.527 71.9909C21.4044 72.1087 21.2593 72.2006 21.1004 72.2609C20.9414 72.3213 20.7719 72.3489 20.6021 72.3421ZM11.3543 69.8188H19.3909V57.9468H11.3543V69.8188Z" fill="#F4A641"/>
<path d="M39.8292 72.3418H29.2567C28.9221 72.3418 28.6012 72.2089 28.3646 71.9723C28.128 71.7357 27.9951 71.4148 27.9951 71.0802V37.5461C27.9951 37.2114 28.128 36.8905 28.3646 36.6539C28.6012 36.4173 28.9221 36.2844 29.2567 36.2844H39.8292C40.1638 36.2844 40.4847 36.4173 40.7213 36.6539C40.9579 36.8905 41.0908 37.2114 41.0908 37.5461V71.0802C41.0908 71.4148 40.9579 71.7357 40.7213 71.9723C40.4847 72.2089 40.1638 72.3418 39.8292 72.3418ZM30.5184 69.8186H38.5676V38.8077H30.5184V69.8186Z" fill="white"/>
<path d="M59.0568 72.3419H48.4843C48.1497 72.3419 47.8288 72.209 47.5922 71.9724C47.3556 71.7358 47.2227 71.4149 47.2227 71.0803V43.173C47.2227 42.8384 47.3556 42.5175 47.5922 42.2809C47.8288 42.0443 48.1497 41.9114 48.4843 41.9114H59.0568C59.3914 41.9114 59.7123 42.0443 59.9489 42.2809C60.1855 42.5175 60.3184 42.8384 60.3184 43.173V71.0803C60.3184 71.4149 60.1855 71.7358 59.9489 71.9724C59.7123 72.209 59.3914 72.3419 59.0568 72.3419ZM49.7459 69.8187H57.7951V44.4346H49.7459V69.8187Z" fill="#F4A641"/>
<path d="M78.2212 72.342H67.7118C67.3772 72.342 67.0563 72.2091 66.8197 71.9725C66.5831 71.7359 66.4502 71.415 66.4502 71.0803V20.8044C66.4502 20.4698 66.5831 20.1489 66.8197 19.9122C67.0563 19.6756 67.3772 19.5427 67.7118 19.5427H78.2212C78.5558 19.5427 78.8767 19.6756 79.1133 19.9122C79.3499 20.1489 79.4828 20.4698 79.4828 20.8044V71.0803C79.4828 71.415 79.3499 71.7359 79.1133 71.9725C78.8767 72.2091 78.5558 72.342 78.2212 72.342ZM68.923 69.8187H76.9596V22.066H68.9735L68.923 69.8187Z" fill="white"/>
<path d="M56.9248 26.0905C56.6836 26.0905 56.4475 26.0214 56.2444 25.8913C56.0413 25.7613 55.8797 25.5757 55.7788 25.3566C55.6779 25.1376 55.6419 24.8942 55.6751 24.6553C55.7082 24.4164 55.8092 24.192 55.966 24.0088L68.8851 8.90705C68.9873 8.76515 69.1179 8.64606 69.2685 8.55732C69.4192 8.46858 69.5867 8.41213 69.7604 8.39157C69.934 8.371 70.1101 8.38676 70.2773 8.43785C70.4446 8.48894 70.5994 8.57424 70.7319 8.68833C70.8644 8.80243 70.9718 8.94283 71.0472 9.10062C71.1225 9.25842 71.1643 9.43016 71.1698 9.60495C71.1753 9.77973 71.1443 9.95375 71.079 10.116C71.0136 10.2782 70.9153 10.425 70.7901 10.5472L57.8836 25.611C57.7688 25.7565 57.6234 25.8748 57.4577 25.9577C57.292 26.0405 57.11 26.0859 56.9248 26.0905Z" fill="white"/>
<path d="M50.0743 26.5953C49.7736 26.5953 49.4828 26.4879 49.2543 26.2925L37.4202 16.1994C37.2943 16.0918 37.1908 15.9603 37.1156 15.8126C37.0405 15.665 36.9952 15.5039 36.9823 15.3387C36.9695 15.1735 36.9892 15.0074 37.0405 14.8499C37.0919 14.6923 37.1737 14.5465 37.2814 14.4205C37.3923 14.2897 37.5286 14.1829 37.6821 14.1066C37.8357 14.0302 38.0032 13.986 38.1744 13.9765C38.3456 13.9671 38.5169 13.9926 38.6779 14.0516C38.8389 14.1106 38.9862 14.2018 39.1108 14.3196L50.9449 24.4127C51.1409 24.5803 51.2808 24.804 51.3458 25.0535C51.4108 25.3031 51.3977 25.5666 51.3084 25.8086C51.219 26.0505 51.0577 26.2593 50.8461 26.4067C50.6344 26.5541 50.3827 26.6332 50.1248 26.6331L50.0743 26.5953Z" fill="white"/>
<path d="M18.6342 30.418C18.3155 30.4169 18.009 30.2952 17.7763 30.0774C17.6503 29.9678 17.5474 29.8343 17.4734 29.6846C17.3994 29.5349 17.3559 29.372 17.3453 29.2053C17.3347 29.0387 17.3574 28.8716 17.4119 28.7138C17.4664 28.5559 17.5516 28.4105 17.6628 28.2859L30.2791 14.8243C30.5083 14.5783 30.8258 14.4335 31.1618 14.4217C31.4978 14.4099 31.8247 14.532 32.0706 14.7612C32.3165 14.9904 32.4614 15.3079 32.4732 15.6439C32.485 15.9798 32.3629 16.3068 32.1337 16.5527L19.5174 30.0143C19.4041 30.1366 19.2678 30.2352 19.1162 30.3045C18.9646 30.3738 18.8008 30.4124 18.6342 30.418Z" fill="white"/>
<path d="M15.3163 38.8079C14.1066 38.8054 12.9248 38.4444 11.9202 37.7705C10.9156 37.0967 10.1333 36.1401 9.67212 35.0218C9.21093 33.9035 9.09156 32.6736 9.32908 31.4875C9.5666 30.3014 10.1504 29.2123 11.0066 28.3578C11.8629 27.5033 12.9532 26.9218 14.1398 26.6867C15.3264 26.4516 16.556 26.5736 17.6734 27.037C18.7907 27.5005 19.7456 28.2848 20.4174 29.2908C21.0892 30.2968 21.4478 31.4793 21.4478 32.689C21.4478 33.4936 21.2891 34.2903 20.9808 35.0335C20.6725 35.7767 20.2207 36.4518 19.6511 37.0202C19.0816 37.5885 18.4056 38.039 17.6617 38.3457C16.9179 38.6525 16.1209 38.8095 15.3163 38.8079ZM15.3163 29.1059C14.6051 29.1084 13.9107 29.3218 13.3208 29.7189C12.7309 30.1161 12.272 30.6793 12.0021 31.3372C11.7323 31.9952 11.6636 32.7184 11.8048 33.4154C11.946 34.1124 12.2907 34.7519 12.7953 35.253C13.2999 35.7541 13.9418 36.0943 14.6398 36.2306C15.3378 36.3669 16.0605 36.2931 16.7165 36.0187C17.3726 35.7442 17.9325 35.2814 18.3256 34.6887C18.7186 34.096 18.927 33.4001 18.9245 32.689C18.9229 32.2168 18.8282 31.7495 18.646 31.3139C18.4638 30.8783 18.1975 30.4829 17.8625 30.1501C17.5274 29.8174 17.1301 29.554 16.6932 29.3748C16.2563 29.1956 15.7884 29.1043 15.3163 29.1059Z" fill="#F4A641"/>
<path d="M34.5432 18.2556C33.3298 18.2556 32.1439 17.8947 31.136 17.2189C30.1282 16.5432 29.3441 15.583 28.8832 14.4605C28.4224 13.338 28.3057 12.1039 28.548 10.9149C28.7903 9.72591 29.3807 8.63582 30.244 7.78317C31.1073 6.93051 32.2047 6.3538 33.3966 6.12631C34.5885 5.89883 35.8211 6.03086 36.9378 6.50562C38.0545 6.98037 39.0048 7.77641 39.6679 8.79257C40.3311 9.80873 40.6772 10.9991 40.6622 12.2124C40.6455 13.8232 39.9931 15.3621 38.847 16.494C37.701 17.6259 36.1541 18.2591 34.5432 18.2556ZM34.5432 8.5537C33.8348 8.55381 33.1422 8.7632 32.5523 9.15557C31.9625 9.54795 31.5017 10.1058 31.2278 10.7592C30.9539 11.4125 30.8791 12.1322 31.0128 12.828C31.1465 13.5237 31.4827 14.1644 31.9793 14.6697C32.4759 15.1749 33.1106 15.5223 33.8039 15.668C34.4972 15.8138 35.2181 15.7516 35.8761 15.4891C36.5341 15.2266 37.0999 14.7755 37.5025 14.1926C37.9051 13.6096 38.1265 12.9208 38.1389 12.2124C38.1473 11.735 38.0605 11.2606 37.8835 10.8171C37.7066 10.3735 37.443 9.96965 37.1083 9.62905C36.7736 9.28845 36.3744 9.01794 35.934 8.83331C35.4936 8.64868 35.0208 8.55363 34.5432 8.5537Z" fill="#F4A641"/>
<path d="M53.7712 34.5813C52.5599 34.5838 51.3751 34.2267 50.3669 33.5554C49.3588 32.884 48.5725 31.9284 48.1078 30.8098C47.6432 29.6912 47.5209 28.4599 47.7566 27.2718C47.9923 26.0836 48.5753 24.9922 49.4318 24.1357C50.2883 23.2792 51.3798 22.6962 52.5679 22.4605C53.756 22.2248 54.9874 22.347 56.106 22.8117C57.2246 23.2764 58.1801 24.0626 58.8515 25.0708C59.5229 26.079 59.88 27.2637 59.8775 28.475C59.8741 30.0935 59.2297 31.6447 58.0853 32.7891C56.9409 33.9336 55.3896 34.578 53.7712 34.5813ZM53.7712 24.8794C53.0595 24.8769 52.3631 25.0856 51.7701 25.4792C51.1771 25.8728 50.7143 26.4335 50.4402 27.0903C50.1662 27.7471 50.0931 28.4704 50.2305 29.1687C50.3678 29.867 50.7092 30.5089 51.2116 31.013C51.7139 31.5172 52.3546 31.8609 53.0524 32.0006C53.7502 32.1404 54.4739 32.0699 55.1316 31.7982C55.7894 31.5264 56.3517 31.0655 56.7473 30.474C57.143 29.8824 57.3542 29.1867 57.3542 28.475C57.3592 28.0001 57.2704 27.5289 57.0929 27.0884C56.9153 26.6479 56.6526 26.2468 56.3197 25.908C55.9868 25.5693 55.5904 25.2996 55.153 25.1144C54.7157 24.9292 54.2461 24.8322 53.7712 24.8289V24.8794Z" fill="#F4A641"/>
<path d="M72.9976 12.2126C71.7926 12.2125 70.6145 11.8559 69.6117 11.1877C68.609 10.5195 67.8263 9.56952 67.3624 8.45741C66.8984 7.3453 66.7739 6.12078 67.0044 4.93803C67.2349 3.75528 67.8103 2.66718 68.658 1.81074C69.5056 0.954301 70.5878 0.367813 71.7681 0.125125C72.9484 -0.117563 74.1742 -0.00560207 75.291 0.446911C76.4078 0.899424 77.3658 1.67226 78.0442 2.6681C78.7227 3.66394 79.0914 4.83827 79.1039 6.04321C79.1105 6.84994 78.9576 7.65001 78.6538 8.3974C78.3501 9.14479 77.9016 9.82474 77.3341 10.3981C76.7665 10.9715 76.0912 11.427 75.347 11.7384C74.6028 12.0498 73.8043 12.211 72.9976 12.2126ZM72.9976 2.52326C72.2863 2.52337 71.5911 2.7352 71.0005 3.13177C70.41 3.52834 69.9509 4.0917 69.6817 4.7501C69.4124 5.4085 69.3453 6.13213 69.4887 6.82884C69.6321 7.52554 69.9797 8.16379 70.4871 8.66228C70.9946 9.16077 71.6389 9.49695 72.338 9.628C73.0372 9.75904 73.7595 9.67903 74.413 9.39814C75.0665 9.11725 75.6216 8.6482 76.0077 8.05073C76.3937 7.45327 76.5931 6.75442 76.5806 6.04321C76.5773 5.09396 76.1987 4.18453 75.5275 3.5133C74.8563 2.84207 73.9468 2.46351 72.9976 2.46018V2.52326Z" fill="#F4A641"/>
</svg>
