<svg width="76" height="81" viewBox="0 0 76 81" fill="none" xmlns="http://www.w3.org/2000/svg">
<path d="M36.2538 55.1331H24.838C24.2886 55.1331 23.8422 55.5795 23.8422 56.1289V79.9812C23.8422 80.5306 24.2886 80.9771 24.838 80.9771H36.2538C36.8032 80.9771 37.2496 80.5306 37.2496 79.9812V56.1289C37.2496 55.5795 36.8048 55.1331 36.2538 55.1331ZM35.2579 78.9854H25.8339V57.1248H35.2579V78.9854ZM73.7708 49.5364H62.355C61.8056 49.5364 61.3592 49.9829 61.3592 50.5322V79.9812C61.3592 80.5306 61.8056 80.9771 62.355 80.9771H73.7708C74.3202 80.9771 74.7666 80.5306 74.7666 79.9812V50.5322C74.7666 49.9829 74.3202 49.5364 73.7708 49.5364ZM72.7749 78.9854H63.3509V51.5281H72.7749V78.9854ZM10.76 60.6916C14.0845 60.6916 16.7899 57.9862 16.7899 54.6617C16.7899 53.8551 16.6289 53.0833 16.3401 52.3795L25.6729 46.6036C26.7783 47.8634 28.3998 48.66 30.2023 48.66C32.0115 48.66 33.638 47.8567 34.7434 46.5903L43.711 52.104C43.4256 52.8044 43.2679 53.5696 43.2679 54.3696C43.2679 57.6941 45.9733 60.3995 49.2978 60.3995C52.6222 60.3995 55.3276 57.6941 55.3276 54.3696C55.3276 53.2127 55.0007 52.1322 54.433 51.2144L65.2596 41.7771C66.3019 42.6351 67.6347 43.1513 69.087 43.1513C72.4115 43.1513 75.1169 40.4459 75.1169 37.1215C75.1169 33.797 72.4115 31.0916 69.087 31.0916C65.7625 31.0916 63.0571 33.797 63.0571 37.1215C63.0571 38.2783 63.3857 39.3588 63.9517 40.2783L53.1252 49.7156C52.0828 48.8575 50.75 48.3414 49.2978 48.3414C47.487 48.3414 45.8621 49.1447 44.7567 50.4111L35.789 44.8974C36.0745 44.197 36.2322 43.4318 36.2322 42.6318C36.2322 39.3073 33.5268 36.6019 30.2023 36.6019C26.8778 36.6019 24.1725 39.3073 24.1725 42.6318C24.1725 43.4401 24.3334 44.2102 24.6222 44.914L15.2895 50.6899C14.1841 49.4302 12.5625 48.6335 10.76 48.6335C7.43553 48.6335 4.73013 51.3389 4.73013 54.6634C4.73013 57.9878 7.43553 60.6916 10.76 60.6916ZM69.0903 33.0816C71.3177 33.0816 73.1285 34.8941 73.1285 37.1198C73.1285 39.3455 71.316 41.158 69.0903 41.158C66.8646 41.158 65.0521 39.3455 65.0521 37.1198C65.0521 34.8941 66.8629 33.0816 69.0903 33.0816ZM49.3011 50.3331C51.5285 50.3331 53.3393 52.1455 53.3393 54.3712C53.3393 56.597 51.5268 58.4094 49.3011 58.4094C47.0754 58.4094 45.2612 56.5986 45.2612 54.3712C45.2612 52.1439 47.0737 50.3331 49.3011 50.3331ZM30.204 38.5903C32.4314 38.5903 34.2422 40.4028 34.2422 42.6285C34.2422 44.8542 32.4297 46.6667 30.204 46.6667C27.9783 46.6667 26.1658 44.8542 26.1658 42.6285C26.1658 40.4028 27.9766 38.5903 30.204 38.5903ZM10.76 50.6219C12.9874 50.6219 14.7982 52.4343 14.7982 54.66C14.7982 56.8858 12.9857 58.6982 10.76 58.6982C8.53428 58.6982 6.72183 56.8874 6.72183 54.6617C6.72183 52.436 8.53428 50.6219 10.76 50.6219ZM24.1476 23.2858H26.994C27.0787 23.2858 27.1351 23.3273 27.1617 23.4069C27.3741 24.0559 27.6397 24.6932 27.9484 25.3057C27.9866 25.382 27.9766 25.4501 27.9152 25.5115L25.9003 27.5264C25.492 27.9347 25.2662 28.4808 25.2662 29.06C25.2662 29.6393 25.492 30.1854 25.9003 30.5936L28.692 33.3853C29.1003 33.7936 29.6463 34.0194 30.2256 34.0194C30.8048 34.0194 31.3509 33.7936 31.7592 33.3853L33.7741 31.3704C33.8339 31.3107 33.9036 31.299 33.9799 31.3372C34.5907 31.6476 35.2297 31.9115 35.877 32.1239C35.9583 32.1505 35.9982 32.2069 35.9982 32.2916V35.1397C35.9982 36.3364 36.9708 37.309 38.1675 37.309H42.116C43.3127 37.309 44.2853 36.3364 44.2853 35.1397V32.2932C44.2853 32.2086 44.3268 32.1522 44.4065 32.1256C45.0554 31.9132 45.6928 31.6476 46.3052 31.3389C46.3816 31.3007 46.4496 31.3107 46.511 31.3721L48.526 33.387C48.9343 33.7953 49.4803 34.021 50.0596 34.021C50.6388 34.021 51.1849 33.7953 51.5932 33.387L54.3849 30.5953C54.7949 30.187 55.0189 29.641 55.0189 29.0617C55.0189 28.4824 54.7932 27.9364 54.3849 27.5281L52.37 25.5132C52.3102 25.4534 52.2986 25.3837 52.3368 25.3073C52.6455 24.6966 52.911 24.0576 53.1235 23.4102C53.15 23.3289 53.2065 23.2891 53.2911 23.2891H56.1393C57.3359 23.2891 58.3086 22.3165 58.3086 21.1198V17.1712C58.3086 15.9746 57.3359 15.0019 56.1393 15.0019H53.2944C53.2098 15.0019 53.1534 14.9605 53.1268 14.8808C52.9144 14.2318 52.6488 13.5928 52.3401 12.982C52.3019 12.9057 52.3119 12.8376 52.3733 12.7762L54.3882 10.7613C54.7965 10.353 55.0222 9.80693 55.0222 9.22767C55.0222 8.64842 54.7965 8.10236 54.3882 7.69406L51.5965 4.90236C51.1882 4.49406 50.6422 4.26834 50.0629 4.26834C49.4837 4.26834 48.9376 4.49406 48.5293 4.90236L46.5144 6.9173C46.4546 6.97705 46.3849 6.98867 46.3086 6.9505C45.6978 6.64178 45.0604 6.37622 44.4098 6.16377C44.3285 6.13722 44.2886 6.08079 44.2886 5.99614V3.14635C44.2886 1.94966 43.316 0.977051 42.1193 0.977051H38.1708C36.9741 0.977051 36.0015 1.94966 36.0015 3.14635V5.99282C36.0015 6.07747 35.96 6.1339 35.8803 6.16045C35.2314 6.3729 34.594 6.63846 33.9832 6.94718C33.9069 6.98535 33.8388 6.97539 33.7774 6.91398L31.7642 4.89904C31.3559 4.49074 30.8098 4.26502 30.2305 4.26502C29.6513 4.26502 29.1052 4.49074 28.6969 4.89904L25.9052 7.69074C25.0604 8.53556 25.0604 9.91315 25.9052 10.758L27.9202 12.7729C27.9799 12.8327 27.9915 12.9024 27.9534 12.9787C27.6447 13.5895 27.3791 14.2268 27.1666 14.8775C27.1401 14.9588 27.0837 14.9986 26.999 14.9986H24.1509C22.9542 14.9986 21.9816 15.9712 21.9816 17.1679V21.1165C21.9783 22.3132 22.9509 23.2858 24.1476 23.2858ZM23.97 17.1696C23.97 17.0733 24.0513 16.992 24.1476 16.992H26.9957C27.9351 16.992 28.7633 16.3928 29.0554 15.4999C29.238 14.9455 29.4637 14.4011 29.7276 13.88C30.1525 13.0418 29.9915 12.031 29.326 11.3671L27.3127 9.35382C27.2447 9.28576 27.2447 9.17124 27.3127 9.10319L30.1044 6.31149C30.1459 6.27 30.1957 6.26004 30.2305 6.26004C30.2637 6.26004 30.3135 6.26834 30.355 6.31149L32.37 8.32643C33.0339 8.99199 34.0447 9.15298 34.8845 8.72809C35.4056 8.46419 35.95 8.23846 36.5044 8.05589C37.3974 7.76211 37.9965 6.9339 37.9965 5.99614V3.14635C37.9965 3.05008 38.0778 2.96875 38.1741 2.96875H42.1227C42.2189 2.96875 42.3003 3.05008 42.3003 3.14635V5.99448C42.3003 6.9339 42.8994 7.76211 43.7924 8.05423C44.3467 8.2368 44.8911 8.46253 45.4123 8.72643C46.2505 9.15132 47.2612 8.99033 47.9268 8.32477L49.9417 6.30983C49.9832 6.26834 50.033 6.25838 50.0662 6.25838C50.0994 6.25838 50.1492 6.26668 50.1924 6.30983L52.9841 9.10153C53.0256 9.14303 53.0355 9.19282 53.0355 9.22601C53.0355 9.25921 53.0272 9.309 52.9841 9.35215L50.9625 11.3671C50.2969 12.0327 50.1359 13.0418 50.5608 13.8816C50.8247 14.4028 51.0505 14.9472 51.233 15.5015C51.5268 16.3945 52.355 16.9936 53.2928 16.9936H56.1393C56.2355 16.9936 56.3168 17.075 56.3168 17.1712V21.1198C56.3168 21.2161 56.2355 21.2974 56.1393 21.2974H53.2944C52.355 21.2974 51.5268 21.8966 51.2347 22.7895C51.0538 23.3422 50.8264 23.8866 50.5625 24.4094C50.1376 25.2476 50.2986 26.2584 50.9642 26.9239L52.9791 28.9389C53.0206 28.9804 53.0305 29.0302 53.0305 29.0634C53.0305 29.0966 53.0222 29.1463 52.9791 29.1878L50.1874 31.9795C50.1459 32.021 50.0961 32.031 50.0629 32.031C50.0297 32.031 49.9799 32.0227 49.9384 31.9795L47.9235 29.9646C47.2579 29.299 46.2488 29.138 45.4106 29.5629C44.8895 29.8268 44.3434 30.0526 43.7907 30.2351C42.8978 30.5289 42.2986 31.3555 42.2986 32.2949V35.1414C42.2986 35.2376 42.2173 35.319 42.121 35.319H38.1725C38.0762 35.319 37.9949 35.2376 37.9949 35.1414V32.2932C37.9949 31.3538 37.3957 30.5256 36.5027 30.2318C35.95 30.0509 35.4056 29.8235 34.8828 29.5596C34.5708 29.4019 34.2355 29.3239 33.9019 29.3239C33.3409 29.3239 32.7866 29.543 32.37 29.9596L30.355 31.9746C30.3135 32.0161 30.2637 32.026 30.2305 32.026C30.1973 32.026 30.1476 32.0177 30.1044 31.9746L27.3127 29.1829C27.2447 29.1148 27.2447 29.0003 27.3127 28.9322L29.326 26.9173C29.9915 26.2517 30.1525 25.2426 29.7276 24.4028C29.4637 23.8816 29.238 23.3372 29.0554 22.7829C28.7617 21.8899 27.9334 21.2907 26.994 21.2907H24.1476C24.0513 21.2907 23.97 21.2094 23.97 21.1132V17.1696ZM40.1442 29.1845C45.6812 29.1845 50.1857 24.68 50.1857 19.143C50.1857 13.6061 45.6812 9.10153 40.1442 9.10153C34.6073 9.10153 30.1027 13.6061 30.1027 19.143C30.1027 24.68 34.6073 29.1845 40.1442 29.1845ZM40.1442 11.0932C44.5824 11.0932 48.194 14.7049 48.194 19.143C48.194 23.5812 44.5824 27.1928 40.1442 27.1928C35.7061 27.1928 32.0944 23.5812 32.0944 19.143C32.0944 14.7049 35.7061 11.0932 40.1442 11.0932ZM6.55918 39.0219C6.85793 39.2824 7.1766 39.5248 7.50689 39.7472L7.03387 41.5148C6.90938 41.9795 6.97411 42.4658 7.21478 42.8841C7.45544 43.3024 7.84548 43.6011 8.31021 43.7256L10.9409 44.431C11.0969 44.4725 11.253 44.4924 11.4106 44.4924C11.7227 44.4924 12.033 44.4094 12.3102 44.2501C12.7285 44.0094 13.0272 43.6194 13.1517 43.1546L13.6247 41.387C14.0214 41.3588 14.4181 41.3073 14.8081 41.2327L15.7227 42.8177C16.2206 43.6791 17.326 43.9762 18.1874 43.4783L20.5459 42.1173C21.4073 41.6194 21.7044 40.514 21.2065 39.6509L20.292 38.0658C20.5525 37.7671 20.7949 37.4484 21.0173 37.1181L22.7849 37.5912C23.2496 37.7156 23.7359 37.6526 24.1542 37.4102C24.5725 37.1696 24.8712 36.7795 24.9957 36.3148L25.7011 33.6841C25.8256 33.2194 25.7608 32.7331 25.5202 32.3148C25.2795 31.8966 24.8895 31.5978 24.4247 31.4733L22.6571 31.0003C22.6305 30.6036 22.5774 30.2069 22.5027 29.8169L24.0878 28.9024C24.5044 28.6617 24.8032 28.2717 24.9276 27.8069C25.0521 27.3405 24.9891 26.8542 24.7484 26.4376L23.3874 24.0791C22.8895 23.2177 21.7841 22.9206 20.9227 23.4185L19.3376 24.3331C19.0388 24.0725 18.7202 23.8285 18.3899 23.6078L18.8629 21.8401C18.9874 21.3754 18.9227 20.8891 18.682 20.4708C18.4413 20.0526 18.0513 19.7538 17.5866 19.6293L14.9559 18.9239C13.9949 18.665 13.0023 19.2393 12.7451 20.2003L12.272 21.9679C11.8754 21.9945 11.4787 22.0476 11.0886 22.1223L10.1741 20.5372C9.93345 20.1206 9.54341 19.8219 9.07868 19.6974C8.61229 19.5729 8.12598 19.636 7.70938 19.8766L5.35088 21.2376C4.93428 21.4783 4.63553 21.8683 4.51104 22.3331C4.38656 22.7995 4.44963 23.2858 4.6903 23.7024L5.60482 25.2874C5.34424 25.5878 5.10026 25.9049 4.87951 26.2351L3.11187 25.7621C2.15088 25.5049 1.15835 26.0775 0.901086 27.0385L0.195692 29.6692C0.0712104 30.1339 0.135941 30.6202 0.376605 31.0385C0.617269 31.4567 1.00731 31.7555 1.47204 31.88L3.23967 32.353C3.26623 32.7497 3.31934 33.1463 3.39403 33.5364L1.80897 34.4509C1.39237 34.6916 1.09362 35.0816 0.969136 35.5463C0.844654 36.0127 0.907725 36.499 1.14839 36.9156L2.50938 39.2741C2.75005 39.6907 3.14009 39.9895 3.60482 40.114C4.07121 40.2385 4.55752 40.1754 4.97411 39.9347L6.55918 39.0219ZM2.96582 36.0841L4.50441 35.1961C5.18158 34.8061 5.52847 34.0293 5.36914 33.2642C5.28947 32.8858 5.23968 32.499 5.2181 32.1107C5.17494 31.3289 4.63884 30.6683 3.88366 30.4658L2.16582 30.0061L2.77328 27.7372L4.49113 28.197C5.24797 28.3995 6.04299 28.0957 6.46955 27.4401C6.68034 27.1165 6.91934 26.8061 7.1766 26.5173C7.69777 25.9347 7.78573 25.0883 7.39403 24.4111L6.50606 22.8725L8.54092 21.6974L9.42889 23.236C9.81893 23.9132 10.5957 24.26 11.3608 24.1007C11.7393 24.021 12.1276 23.9712 12.5127 23.9497C13.2944 23.9065 13.955 23.3704 14.1575 22.6152L14.6173 20.8974L16.8861 21.5049L16.4264 23.2227C16.2239 23.9779 16.5276 24.7729 17.1832 25.2011C17.5069 25.4136 17.8173 25.6509 18.1061 25.9082C18.6886 26.4293 19.5351 26.5173 20.2123 26.1256L21.7509 25.2376L22.926 27.2725L21.3874 28.1605C20.7102 28.5505 20.3633 29.3273 20.5227 30.0924C20.6023 30.4708 20.6521 30.8592 20.6737 31.2459C20.7169 32.0277 21.253 32.6883 22.0081 32.8907L23.726 33.3505L23.1185 35.6194L21.4007 35.1596C20.6455 34.9571 19.8505 35.2609 19.4222 35.9165C19.2098 36.2418 18.9725 36.5522 18.7152 36.8393C18.194 37.4219 18.1061 38.2683 18.4978 38.9455L19.3857 40.4841L17.3509 41.6592L16.4629 40.1206C16.0729 39.4434 15.2961 39.0966 14.531 39.2559C14.1525 39.3356 13.7658 39.3853 13.3791 39.4069C12.5974 39.4501 11.9368 39.9862 11.7343 40.7414L11.2745 42.4592L9.00565 41.8517L9.4654 40.1339C9.66789 39.3787 9.36416 38.5837 8.70855 38.1555C8.38324 37.943 8.07287 37.7057 7.78573 37.4484C7.20316 36.9273 6.35669 36.8393 5.67951 37.231L4.14092 38.119L2.96582 36.0841Z" fill="#F4A641"/>
<path d="M17.4973 63.8268H6.08151C5.53213 63.8268 5.08566 64.2733 5.08566 64.8227V79.9812C5.08566 80.5306 5.53213 80.977 6.08151 80.977H17.4973C18.0467 80.977 18.4931 80.5306 18.4931 79.9812V64.8227C18.4931 64.2716 18.0467 63.8268 17.4973 63.8268ZM16.5014 78.9853H7.07736V65.8185H16.5014V78.9853ZM54.679 63.8268H43.2633C42.7139 63.8268 42.2674 64.2733 42.2674 64.8227V79.9812C42.2674 80.5306 42.7139 80.977 43.2633 80.977H54.679C55.2284 80.977 55.6749 80.5306 55.6749 79.9812V64.8227C55.6749 64.2716 55.2284 63.8268 54.679 63.8268ZM53.6832 78.9853H44.2591V65.8185H53.6832V78.9853ZM10.7603 60.6916C14.0848 60.6916 16.7902 57.9862 16.7902 54.6617C16.7902 53.855 16.6292 53.0833 16.3404 52.3795L25.6732 46.6036C26.7786 47.8633 28.4002 48.66 30.2027 48.66C32.0118 48.66 33.6384 47.8567 34.7437 46.5903L43.7114 52.104C43.4259 52.8044 43.2682 53.5696 43.2682 54.3696C43.2682 57.694 45.9736 60.3994 49.2981 60.3994C52.6226 60.3994 55.328 57.694 55.328 54.3696C55.328 53.2127 55.001 52.1322 54.4334 51.2144L65.2599 41.777C66.3023 42.6351 67.635 43.1513 69.0873 43.1513C72.4118 43.1513 75.1172 40.4459 75.1172 37.1214C75.1172 33.797 72.4118 31.0916 69.0873 31.0916C65.7628 31.0916 63.0574 33.797 63.0574 37.1214C63.0574 38.2783 63.3861 39.3588 63.952 40.2783L53.1255 49.7156C52.0832 48.8575 50.7504 48.3414 49.2981 48.3414C47.4873 48.3414 45.8624 49.1447 44.757 50.4111L35.7894 44.8974C36.0749 44.197 36.2325 43.4318 36.2325 42.6318C36.2325 39.3073 33.5272 36.6019 30.2027 36.6019C26.8782 36.6019 24.1728 39.3073 24.1728 42.6318C24.1728 43.4401 24.3338 44.2102 24.6226 44.914L15.2898 50.6899C14.1844 49.4301 12.5628 48.6335 10.7603 48.6335C7.43586 48.6335 4.73047 51.3389 4.73047 54.6633C4.73047 57.9878 7.43586 60.6916 10.7603 60.6916ZM69.0906 33.0816C71.318 33.0816 73.1288 34.894 73.1288 37.1198C73.1288 39.3455 71.3164 41.1579 69.0906 41.1579C66.8649 41.1579 65.0525 39.3455 65.0525 37.1198C65.0525 34.894 66.8633 33.0816 69.0906 33.0816ZM49.3014 50.3331C51.5288 50.3331 53.3396 52.1455 53.3396 54.3712C53.3396 56.597 51.5272 58.4094 49.3014 58.4094C47.0757 58.4094 45.2616 56.5986 45.2616 54.3712C45.2616 52.1438 47.074 50.3331 49.3014 50.3331ZM30.2043 38.5903C32.4317 38.5903 34.2425 40.4028 34.2425 42.6285C34.2425 44.8542 32.4301 46.6667 30.2043 46.6667C27.9786 46.6667 26.1662 44.8542 26.1662 42.6285C26.1662 40.4028 27.9769 38.5903 30.2043 38.5903ZM10.7603 50.6218C12.9877 50.6218 14.7985 52.4343 14.7985 54.66C14.7985 56.8857 12.9861 58.6982 10.7603 58.6982C8.53462 58.6982 6.72217 56.8874 6.72217 54.6617C6.72217 52.436 8.53462 50.6218 10.7603 50.6218ZM34.9047 19.294C34.5164 18.9057 34.5164 18.275 34.9047 17.8849C35.2931 17.4965 35.9238 17.4965 36.3139 17.8849L39.0027 20.5737L43.9769 15.6011C44.3653 15.2127 44.996 15.2127 45.3861 15.6011C45.7745 15.9895 45.7745 16.6202 45.3861 17.0102L39.7081 22.6882C39.5139 22.8824 39.2583 22.9804 39.0043 22.9804C38.7504 22.9804 38.4948 22.8824 38.3006 22.6882L34.9047 19.294ZM12.9579 37.5231C13.9487 37.5231 14.9529 37.2708 15.8707 36.7414C18.6624 35.1297 19.6218 31.548 18.0101 28.7563C16.3985 25.9646 12.8168 25.0052 10.0251 26.6169C7.23337 28.2285 6.27404 31.8102 7.88566 34.6019C8.96615 36.4741 10.9346 37.5231 12.9579 37.5231ZM11.0209 28.3397C11.9122 27.8252 12.9512 27.6874 13.9454 27.9546C14.9396 28.2218 15.7711 28.8592 16.2857 29.7505C17.3479 31.5911 16.7155 33.953 14.8749 35.0152C13.0342 36.0774 10.6724 35.4451 9.61014 33.6044C8.5479 31.7638 9.18026 29.4019 11.0209 28.3397Z" fill="white"/>
</svg>
