<svg width="757" height="246" viewBox="0 0 757 246" fill="none" xmlns="http://www.w3.org/2000/svg">
<path d="M508.35 123.003C508.35 190.949 453.269 245.98 385.373 245.98C317.478 245.98 262.447 190.949 262.447 123.003C262.447 55.0564 317.478 0.0255737 385.373 0.0255737C453.269 0.0255737 508.35 55.0564 508.35 123.003Z" fill="#F4A641"/>
<path d="M477.263 123.003C477.263 173.796 436.117 214.942 385.374 214.942C334.632 214.942 293.537 173.796 293.537 123.003C293.537 72.2089 334.632 31.0634 385.374 31.0634C436.117 31.0634 477.263 72.2089 477.263 123.003Z" fill="#FFC06E"/>
<mask id="mask0_9651_7681" style="mask-type:luminance" maskUnits="userSpaceOnUse" x="293" y="31" width="185" height="184">
<path d="M477.277 123.003C477.277 173.776 436.136 214.932 385.394 214.932C334.651 214.932 293.516 173.776 293.516 123.003C293.516 72.2293 334.651 31.0736 385.394 31.0736C436.136 31.0736 477.277 72.2293 477.277 123.003Z" fill="white"/>
</mask>
<g mask="url(#mask0_9651_7681)">
<path d="M446.174 121.063C446.174 177.727 400.281 223.62 343.616 223.62C287.003 223.62 241.059 177.727 241.059 121.063C241.059 64.3474 287.003 18.4543 343.616 18.4543C400.281 18.4543 446.174 64.3474 446.174 121.063Z" fill="#F9B55D"/>
</g>
<path d="M317.784 135.408C317.784 89.9229 354.59 53.0655 400.024 53.0655C417.993 53.0655 434.635 58.834 448.163 68.6354C433.155 52.8102 411.918 42.9067 388.436 42.9067C343.002 42.9067 306.145 79.7641 306.145 125.249C306.145 152.713 319.621 177.064 340.296 192.021C326.36 177.268 317.784 157.308 317.784 135.408Z" fill="#F4A641"/>
<path fill-rule="evenodd" clip-rule="evenodd" d="M422.487 141.993C422.487 150.127 419.764 156.27 414.319 160.422C408.874 164.574 400.74 166.65 389.917 166.65H385.272V175.992H376.594V166.65H368.936V175.992H360.207V166.65H348.312V79.3558H360.207V70.0138H368.936V79.3558H376.594V70.0138H385.272V79.3558H390.02C399.038 79.3558 406.032 81.4318 411.001 85.5837C415.969 89.7357 418.454 95.6064 418.454 103.196C418.454 108.062 417.297 112.044 414.983 115.141C412.668 118.238 409.316 120.263 404.926 121.216C416.633 123.666 422.487 130.592 422.487 141.993ZM381.852 100.133H377.717V112.333H381.852C387.059 112.333 389.662 110.291 389.662 106.208C389.662 102.158 387.059 100.133 381.852 100.133ZM392.725 138.062C392.725 133.434 389.475 131.119 382.975 131.119H377.717V145.005H382.975C386.14 145.005 388.556 144.409 390.224 143.218C391.891 141.993 392.725 140.274 392.725 138.062Z" fill="white"/>
<path fill-rule="evenodd" clip-rule="evenodd" d="M105.728 197.126H0.515625V132.804L93.0165 0.0255737H189.959V132.804H216.453V197.126H189.959V245.98H105.728V197.126ZM112.262 132.804V99.418C112.262 93.0199 112.381 87.6938 112.619 83.4397C112.823 79.1856 113.283 75.3399 113.998 71.9026C112.16 76.2588 110.033 80.683 107.616 85.1753C105.2 89.6336 101.712 95.4192 97.1514 102.532L77.1913 132.804H112.262Z" fill="#FFDD4B"/>
<mask id="mask1_9651_7681" style="mask-type:luminance" maskUnits="userSpaceOnUse" x="0" y="0" width="217" height="247">
<path d="M105.727 197.146H0.5V132.809L93.0059 6.10352e-05H189.979V132.809H216.458V197.146H189.979V246.005H105.727V197.146ZM112.262 132.804V99.4333C112.262 93.0148 112.376 87.6819 112.604 83.4346C112.832 79.1907 113.291 75.3484 113.982 71.9077C112.144 76.2673 110.024 80.683 107.621 85.1549C105.212 89.6268 101.715 95.4175 97.1307 102.527L77.1858 132.804H112.262Z" fill="white"/>
</mask>
<g mask="url(#mask1_9651_7681)">
<path opacity="0.7" fill-rule="evenodd" clip-rule="evenodd" d="M105.726 197.126H0.513672V132.804L93.0145 0.0255127H189.957V132.804H216.451V197.126H189.957V245.98H105.726V197.126ZM112.26 132.804V99.418C112.26 93.0198 112.379 87.6937 112.617 83.4396C112.822 79.1855 113.281 75.3398 113.996 71.9025C112.158 76.2587 110.031 80.683 107.615 85.1753C105.198 89.6336 101.71 95.4191 97.1495 102.532L77.1893 132.804H112.26Z" fill="#F9B55D"/>
<path opacity="0.7" fill-rule="evenodd" clip-rule="evenodd" d="M120.071 205.243H14.8594V140.921L107.36 8.14227H204.302V140.921H230.797V205.243H204.302V254.096H120.071V205.243ZM126.606 140.921V107.535C126.606 101.137 126.725 95.8105 126.963 91.5564C127.167 87.3023 127.627 83.4566 128.341 80.0193C126.504 84.3755 124.377 88.7997 121.96 93.292C119.544 97.7503 116.039 103.536 111.444 110.649L91.535 140.921H126.606Z" fill="#F9B55D"/>
<path fill-rule="evenodd" clip-rule="evenodd" d="M117.162 197.126H11.8984V132.804L104.399 0.0255127H201.392V132.804H227.887V197.126H201.392V245.98H117.162V197.126ZM123.696 132.804V99.418C123.662 93.0198 123.764 87.6937 124.002 83.4396C124.24 79.1855 124.7 75.3398 125.38 71.9025C123.543 76.2587 121.433 80.683 119.05 85.1753C116.634 89.6336 113.129 95.4191 108.534 102.532L88.5741 132.804H123.696Z" fill="#F4A641"/>
<path opacity="0.7" d="M90.2058 247.715H35.3281L164.737 -23.0486H219.666L90.2058 247.715Z" fill="#F9B55D"/>
<path opacity="0.7" d="M108.484 280.438H91.127L220.536 9.62274H235.8L108.484 280.438Z" fill="#F9B55D"/>
</g>
<path fill-rule="evenodd" clip-rule="evenodd" d="M645.724 197.126H540.512V132.804L633.013 0.0255737H730.006V132.804H756.5V197.126H730.006V245.98H645.724V197.126ZM652.258 132.804V99.418C652.258 93.0199 652.377 87.6938 652.615 83.4397C652.854 79.1856 653.313 75.3399 653.994 71.9026C652.156 76.2588 650.046 80.683 647.664 85.1753C645.247 89.6336 641.742 95.4192 637.148 102.532L617.187 132.804H652.258Z" fill="#FFDD4B"/>
<mask id="mask2_9651_7681" style="mask-type:luminance" maskUnits="userSpaceOnUse" x="540" y="0" width="217" height="247">
<path d="M645.509 197.146H540.281V132.809L632.787 0H729.76V132.809H756.239V197.146H729.76V246.005H645.509V197.146ZM652.043 132.804V99.4333C652.043 93.0147 652.157 87.6818 652.385 83.4345C652.613 79.1907 653.072 75.3484 653.763 71.9077C651.925 76.2672 649.805 80.683 647.403 85.1549C644.993 89.6268 641.496 95.4174 636.912 102.527L616.967 132.804H652.043Z" fill="white"/>
</mask>
<g mask="url(#mask2_9651_7681)">
<path opacity="0.7" fill-rule="evenodd" clip-rule="evenodd" d="M645.507 197.126H540.295V132.804L632.796 0.0254517H729.738V132.804H756.232V197.126H729.738V245.98H645.507V197.126ZM652.041 132.804V99.4179C652.041 93.0198 652.16 87.6936 652.399 83.4396C652.603 79.1855 653.062 75.3398 653.777 71.9025C651.939 76.2587 649.812 80.6829 647.396 85.1752C644.979 89.6335 641.491 95.4191 636.931 102.532L616.971 132.804H652.041Z" fill="#F9B55D"/>
<path opacity="0.7" fill-rule="evenodd" clip-rule="evenodd" d="M659.853 205.242H554.641V140.921L647.141 8.14221H744.084V140.921H770.578V205.242H744.084V254.096H659.853V205.242ZM666.387 140.921V107.535C666.387 101.137 666.506 95.8104 666.744 91.5563C666.948 87.3022 667.408 83.4565 668.123 80.0192C666.285 84.3754 664.158 88.7997 661.741 93.292C659.325 97.7503 655.82 103.536 651.225 110.649L631.316 140.921H666.387Z" fill="#F9B55D"/>
<path fill-rule="evenodd" clip-rule="evenodd" d="M656.943 197.126H551.68V132.804L644.181 0.0254517H741.174V132.804H767.668V197.126H741.174V245.98H656.943V197.126ZM663.477 132.804V99.4179C663.443 93.0198 663.545 87.6936 663.783 83.4396C664.022 79.1855 664.481 75.3398 665.162 71.9025C663.324 76.2587 661.214 80.6829 658.832 85.1752C656.415 89.6335 652.91 95.4191 648.315 102.532L628.355 132.804H663.477Z" fill="#F4A641"/>
<path opacity="0.7" d="M629.987 247.715H575.109L704.519 -23.0487H759.447L629.987 247.715Z" fill="#F9B55D"/>
<path opacity="0.7" d="M648.265 280.438H630.908L760.317 9.62268H775.581L648.265 280.438Z" fill="#F9B55D"/>
</g>
</svg>
