<svg width="55" height="55" viewBox="0 0 55 55" fill="none" xmlns="http://www.w3.org/2000/svg">
<path fill-rule="evenodd" clip-rule="evenodd" d="M0.00234666 27.3597C-0.038903 11.9791 12.3222 0.503434 26.4214 0.0166879C41.6728 -0.511308 54.2264 11.5611 54.8479 26.1002C55.5326 42.1353 43.0395 54.1775 28.7286 54.9612C13.5762 55.789 -0.206652 43.2573 0.00234666 27.3597ZM27.3069 2.12042C13.2132 2.12042 2.00433 13.6318 2.00433 27.4395C2.00433 41.3131 13.359 52.8355 27.1721 52.8602C41.3758 52.885 52.8212 41.5441 52.8679 27.5825C52.9174 13.3761 41.2658 1.97192 27.3069 2.12042Z" fill="#F4A641"/>
<path fill-rule="evenodd" clip-rule="evenodd" d="M7.12801 27.1755C7.09501 15.0316 16.9922 7.49662 26.9003 7.36737C37.8975 7.22713 47.1704 16.1426 47.1677 27.0105C47.1649 38.1396 38.8435 46.7223 27.9151 47.1375C17.3112 47.539 7.24076 39.2616 7.12801 27.1755ZM34.24 25.8692C34.6113 25.6355 34.867 25.4622 35.1365 25.3082C37.8673 23.7325 37.826 19.371 36.187 17.5835C35.1393 16.4395 33.7973 15.9528 32.3481 15.6861C31.3993 15.5101 30.4341 15.4221 29.4056 15.2846C29.4056 13.9618 29.4056 12.6473 29.4056 11.3356C28.3881 11.3356 27.4421 11.3356 26.4191 11.3356C26.4191 12.6308 26.4191 13.9013 26.4191 15.1663C25.4979 15.1663 24.6536 15.1663 23.7571 15.1663C23.7571 13.8656 23.7571 12.6061 23.7571 11.3383C22.7644 11.3383 21.8211 11.3383 20.8146 11.3383C20.8146 12.6363 20.8146 13.9096 20.8146 15.2323C18.7549 15.2323 16.7584 15.2323 14.6657 15.2323C14.6657 15.7466 14.63 16.2113 14.6739 16.6678C14.7317 17.2618 15.1992 17.6605 15.8207 17.6935C16.4422 17.7265 17.0664 17.721 17.6879 17.776C17.8584 17.7925 18.1142 17.9328 18.1609 18.073C18.3534 18.6368 18.6064 19.2198 18.6119 19.8C18.6477 24.3952 18.6449 28.9877 18.6119 33.5829C18.6092 34.0559 18.3534 34.5371 18.1664 34.9936C18.0399 35.3016 17.7814 35.4171 17.4102 35.3951C16.7914 35.3566 16.1644 35.3649 15.5484 35.4199C15.0314 35.4666 14.6932 35.8104 14.6684 36.2779C14.6354 36.8719 14.6602 37.4714 14.6602 38.1314C16.7502 38.1314 18.7632 38.1314 20.8366 38.1314C20.8366 39.6246 20.8366 41.0573 20.8366 42.4928C21.8376 42.4928 22.7781 42.4928 23.7819 42.4928C23.7819 41.0216 23.7819 39.5889 23.7819 38.1589C24.6894 38.1589 25.5336 38.1589 26.4384 38.1589C26.4384 39.6301 26.4384 41.0628 26.4384 42.5093C27.4448 42.5093 28.3881 42.5093 29.4028 42.5093C29.4028 41.0546 29.4028 39.6274 29.4028 38.1754C29.6613 38.1534 29.8538 38.1506 30.0436 38.1149C31.5313 37.8481 33.0383 37.6611 34.4958 37.2789C36.0248 36.8774 37.3888 36.0881 38.2385 34.6856C39.7317 32.2217 39.4567 27.8245 35.186 26.213C34.9 26.1057 34.614 26.0067 34.24 25.8692Z" fill="#F4A641"/>
<path d="M48.2344 20.7515C48.7046 20.5865 49.1749 20.4215 49.7249 20.229C50.2694 21.8625 50.5829 23.5345 50.7754 25.3027C50.1621 25.3027 49.6121 25.3027 49.0786 25.3027C48.8009 23.8067 48.5231 22.308 48.2344 20.7515Z" fill="#F4A641"/>
<path d="M48.5586 32.6094C48.7593 31.1464 48.9518 29.7467 49.1498 28.292C49.6888 28.3332 50.2443 28.3772 50.8631 28.4267C50.8108 30.0162 50.4836 31.5342 50.0931 33.0852C49.5376 32.9119 49.0288 32.7552 48.5586 32.6094Z" fill="white"/>
<path d="M8.89824 39.2011C8.46924 39.5174 8.03199 39.8391 7.548 40.1939C6.61851 38.8849 5.92551 37.4576 5.35352 35.9259C5.81826 35.7279 6.27751 35.5299 6.76425 35.3209C7.46825 36.6024 8.16674 37.8701 8.89824 39.2011Z" fill="white"/>
<path d="M41.634 46.0761C41.5625 46.0156 41.5212 45.9963 41.5047 45.9661C41.2737 45.5646 40.8365 45.1383 40.8777 44.7671C40.9162 44.4123 41.4525 44.1071 41.777 43.7881C42.5085 43.0703 43.2427 42.3553 44.0017 41.6156C44.3812 41.9318 44.7662 42.2536 45.1897 42.6056C44.1639 43.9421 42.965 45.0476 41.634 46.0761Z" fill="white"/>
<path d="M4.8064 20.2373C5.33439 20.4215 5.82114 20.592 6.28864 20.7543C5.97789 22.2365 5.67264 23.6802 5.36739 25.1322C4.8669 25.1322 4.36915 25.1322 3.81641 25.1322C3.95391 23.4382 4.30315 21.8378 4.8064 20.2373Z" fill="white"/>
<path d="M47.6074 35.5739C48.1216 35.8021 48.6304 36.0304 49.2244 36.2944C48.5231 37.6171 47.8411 38.9069 47.1536 40.2021C46.6476 39.8501 46.2049 39.5421 45.7539 39.2286C46.3617 38.0269 46.9694 36.8306 47.6074 35.5739Z" fill="#F4A641"/>
<path d="M5.9453 32.4664C5.46406 32.6259 4.97456 32.7882 4.44381 32.9642C4.00382 31.4214 3.78382 29.8814 3.77832 28.3002C4.32465 28.3002 4.83339 28.3002 5.30456 28.3002C5.51906 29.7109 5.72805 31.0639 5.9453 32.4664Z" fill="#F4A641"/>
<path d="M43.2483 12.2761C42.3353 11.4291 41.3261 10.4941 40.2783 9.52336C40.5616 9.12461 40.8696 8.69287 41.2518 8.15937C42.3738 9.17136 43.449 10.1366 44.571 11.1486C44.065 11.5803 43.6553 11.9268 43.2483 12.2761Z" fill="#F4A641"/>
<path d="M13.6672 44.6103C13.3509 45.0448 13.0292 45.4793 12.6552 45.9936C11.6074 44.9293 10.5652 43.8706 9.4707 42.7596C9.89695 42.3966 10.3012 42.0528 10.6834 41.7256C11.6872 42.6963 12.6634 43.6396 13.6672 44.6103Z" fill="#F4A641"/>
<path d="M45.1133 14.5448C45.5423 14.2368 45.9768 13.9206 46.5075 13.5383C47.2143 14.7538 47.9073 15.9446 48.6333 17.193C48.0695 17.468 47.591 17.699 47.1015 17.9355C46.4278 16.7888 45.776 15.6778 45.1133 14.5448Z" fill="white"/>
<path d="M32.3533 48.617C32.466 49.1863 32.565 49.6923 32.6888 50.3303C31.3881 50.5118 30.1341 50.685 28.7728 50.8748C28.7371 50.2698 28.7068 49.7198 28.6738 49.134C29.9086 48.9608 31.1048 48.793 32.3533 48.617Z" fill="white"/>
<path d="M25.6321 49.0845C25.6321 49.6923 25.6321 50.2093 25.6321 50.8363C24.3479 50.652 23.1159 50.476 21.8262 50.289C21.9224 49.695 22.0077 49.1753 22.0984 48.6088C23.3112 48.7738 24.4717 48.9278 25.6321 49.0845Z" fill="#F4A641"/>
<path d="M25.6377 5.56614C24.4414 5.75864 23.3222 5.94014 22.1672 6.12439C22.0654 5.55239 21.9719 5.02715 21.8564 4.37815C23.0829 4.18565 24.2654 4.0014 25.4974 3.80616C25.5469 4.4524 25.5909 4.9859 25.6377 5.56614Z" fill="white"/>
<path d="M28.5469 3.81441C29.8394 4.00416 31.0356 4.1829 32.2868 4.36715C32.1631 4.9969 32.0586 5.53314 31.9541 6.06939C30.7881 5.89339 29.6826 5.72564 28.5469 5.55239C28.5469 5.0189 28.5469 4.4854 28.5469 3.81441Z" fill="#F4A641"/>
<path d="M12.757 8.63236C13.12 9.15486 13.4225 9.5921 13.714 10.0129C12.8395 10.8158 11.987 11.5968 11.0877 12.4218C10.7302 12.1056 10.3425 11.7646 9.875 11.3493C10.8457 10.4363 11.7862 9.55085 12.757 8.63236Z" fill="white"/>
<path d="M7.78998 13.7583C8.29598 14.1433 8.72498 14.4678 9.14847 14.7896C8.55448 15.7961 7.97698 16.7778 7.37474 17.8035C6.89899 17.5863 6.437 17.3718 5.90625 17.127C6.54149 15.9941 7.15199 14.8996 7.78998 13.7583Z" fill="#F4A641"/>
<path d="M38.367 46.2686C38.5733 46.7855 38.7603 47.2475 38.9803 47.7975C37.883 48.3173 36.8023 48.8343 35.6803 49.3678C35.463 48.7793 35.2843 48.2953 35.0918 47.7755C36.1753 47.2723 37.2395 46.7855 38.367 46.2686Z" fill="#F4A641"/>
<path d="M19.2141 7.00438C18.1498 7.52413 17.1433 8.01362 16.0791 8.53062C15.8646 8.05212 15.6473 7.56813 15.3916 6.99613C16.4943 6.46539 17.5476 5.95389 18.6668 5.41489C18.8621 5.98964 19.0353 6.48739 19.2141 7.00438Z" fill="#F4A641"/>
<path d="M15.9821 46.1338C17.0216 46.6536 18.0033 47.143 19.0263 47.6518C18.8778 48.177 18.7321 48.6885 18.5643 49.2743C17.4616 48.7325 16.4111 48.2155 15.3193 47.6793C15.5531 47.132 15.7621 46.6453 15.9821 46.1338Z" fill="white"/>
<path d="M35.2795 5.28015C36.385 5.7559 37.4438 6.20964 38.5273 6.67714C38.2385 7.23263 37.9883 7.70838 37.7298 8.20338C36.7535 7.75788 35.791 7.32063 34.79 6.86414C34.9468 6.36364 35.1035 5.85764 35.2795 5.28015Z" fill="white"/>
<path d="M24.0732 34.4904C24.0732 32.3014 24.0732 30.1702 24.0732 28.028C24.0897 28.0142 24.12 27.973 24.1502 27.973C26.1302 27.9867 28.124 27.7475 30.0764 28.1984C30.7199 28.3469 31.3607 28.6439 31.9134 29.0124C33.3104 29.9447 33.4754 32.7029 31.3634 33.6187C30.3322 34.0669 29.2377 34.2182 28.1322 34.2924C26.7985 34.3804 25.462 34.4244 24.0732 34.4904Z" fill="white"/>
<path d="M24.0566 24.1312C24.0566 22.275 24.0566 20.5535 24.0566 18.8403C24.1061 18.8045 24.1391 18.766 24.1694 18.766C25.9954 18.7083 27.8269 18.645 29.6171 19.0795C30.1698 19.2143 30.7308 19.459 31.1901 19.7863C32.4688 20.702 32.4166 22.4593 31.0746 23.2925C30.5466 23.6197 29.9031 23.8837 29.2926 23.9305C27.5739 24.068 25.8441 24.0735 24.0566 24.1312Z" fill="white"/>
</svg>
