<svg width="20" height="20" viewBox="0 0 20 20" fill="none" xmlns="http://www.w3.org/2000/svg">
<path fill-rule="evenodd" clip-rule="evenodd" d="M0.00085333 9.94899C-0.0141465 4.35603 4.48082 0.183067 9.60777 0.00606832C15.1537 -0.18593 19.7187 4.20403 19.9447 9.49099C20.1937 15.3219 15.6507 19.7009 10.4468 19.9859C4.93681 20.2869 -0.075146 15.7299 0.00085333 9.94899ZM9.92977 0.771062C4.80481 0.771062 0.728847 4.95703 0.728847 9.97799C0.728847 15.0229 4.85781 19.2129 9.88077 19.2219C15.0457 19.2309 19.2077 15.1069 19.2247 10.03C19.2427 4.86403 15.0057 0.717062 9.92977 0.771062Z" fill="#F4A641"/>
<path fill-rule="evenodd" clip-rule="evenodd" d="M2.59183 9.882C2.57983 5.46604 6.1788 2.72606 9.78177 2.67906C13.7807 2.62806 17.1527 5.87003 17.1517 9.822C17.1507 13.869 14.1247 16.9899 10.1508 17.1409C6.2948 17.2869 2.63283 14.277 2.59183 9.882ZM12.4507 9.407C12.5857 9.322 12.6787 9.25901 12.7767 9.20301C13.7697 8.63001 13.7547 7.04402 13.1587 6.39403C12.7777 5.97803 12.2897 5.80103 11.7628 5.70404C11.4178 5.64004 11.0668 5.60804 10.6928 5.55804C10.6928 5.07704 10.6928 4.59904 10.6928 4.12205C10.3228 4.12205 9.97877 4.12205 9.60677 4.12205C9.60677 4.59304 9.60677 5.05504 9.60677 5.51504C9.27177 5.51504 8.96477 5.51504 8.63878 5.51504C8.63878 5.04204 8.63878 4.58404 8.63878 4.12305C8.27778 4.12305 7.93478 4.12305 7.56879 4.12305C7.56879 4.59504 7.56879 5.05804 7.56879 5.53904C6.81979 5.53904 6.0938 5.53904 5.3328 5.53904C5.3328 5.72603 5.3198 5.89503 5.3358 6.06103C5.3568 6.27703 5.5268 6.42203 5.7528 6.43403C5.9788 6.44603 6.2058 6.44403 6.43179 6.46403C6.49379 6.47003 6.58679 6.52103 6.60379 6.57203C6.67379 6.77703 6.76579 6.98902 6.76779 7.20002C6.78079 8.87101 6.77979 10.541 6.76779 12.212C6.76679 12.384 6.67379 12.559 6.60579 12.725C6.55979 12.837 6.46579 12.879 6.3308 12.871C6.1058 12.857 5.8778 12.86 5.6538 12.88C5.4658 12.897 5.3428 13.022 5.3338 13.192C5.3218 13.408 5.3308 13.626 5.3308 13.866C6.0908 13.866 6.82279 13.866 7.57679 13.866C7.57679 14.409 7.57679 14.93 7.57679 15.452C7.94078 15.452 8.28278 15.452 8.64778 15.452C8.64778 14.917 8.64778 14.396 8.64778 13.876C8.97777 13.876 9.28477 13.876 9.61377 13.876C9.61377 14.411 9.61377 14.932 9.61377 15.458C9.97977 15.458 10.3228 15.458 10.6918 15.458C10.6918 14.929 10.6918 14.41 10.6918 13.882C10.7858 13.874 10.8558 13.873 10.9248 13.86C11.4658 13.763 12.0137 13.695 12.5437 13.556C13.0997 13.41 13.5957 13.123 13.9047 12.613C14.4477 11.717 14.3477 10.118 12.7947 9.532C12.6907 9.493 12.5867 9.457 12.4507 9.407Z" fill="#F4A641"/>
<path d="M17.54 7.54596C17.711 7.48596 17.882 7.42596 18.082 7.35596C18.28 7.94995 18.394 8.55795 18.464 9.20094C18.241 9.20094 18.041 9.20094 17.847 9.20094C17.746 8.65695 17.645 8.11195 17.54 7.54596Z" fill="#F4A641"/>
<path d="M17.6572 11.858C17.7302 11.326 17.8002 10.817 17.8722 10.288C18.0682 10.303 18.2702 10.319 18.4952 10.337C18.4762 10.915 18.3572 11.467 18.2152 12.0309C18.0132 11.968 17.8282 11.911 17.6572 11.858Z" fill="white"/>
<path d="M3.23625 14.255C3.08026 14.37 2.92126 14.487 2.74526 14.616C2.40726 14.14 2.15526 13.621 1.94727 13.064C2.11626 12.992 2.28326 12.92 2.46026 12.844C2.71626 13.31 2.97026 13.771 3.23625 14.255Z" fill="white"/>
<path d="M15.1402 16.7549C15.1142 16.7329 15.0992 16.7259 15.0932 16.7149C15.0092 16.5689 14.8502 16.4139 14.8652 16.2789C14.8792 16.1499 15.0742 16.0389 15.1922 15.9229C15.4582 15.6619 15.7252 15.4019 16.0012 15.1329C16.1392 15.2479 16.2792 15.3649 16.4332 15.4929C16.0602 15.9789 15.6242 16.3809 15.1402 16.7549Z" fill="white"/>
<path d="M1.74769 7.35901C1.93969 7.42601 2.11669 7.48801 2.28669 7.54701C2.17369 8.086 2.06269 8.611 1.95169 9.13899C1.76969 9.13899 1.58869 9.13899 1.3877 9.13899C1.43769 8.523 1.56469 7.941 1.74769 7.35901Z" fill="white"/>
<path d="M17.3107 12.936C17.4977 13.019 17.6827 13.102 17.8987 13.198C17.6437 13.679 17.3957 14.148 17.1457 14.619C16.9617 14.491 16.8007 14.379 16.6367 14.265C16.8577 13.828 17.0787 13.393 17.3107 12.936Z" fill="#F4A641"/>
<path d="M2.16104 11.8059C1.98604 11.8639 1.80804 11.9229 1.61504 11.9869C1.45505 11.4259 1.37505 10.8659 1.37305 10.2909C1.57171 10.2909 1.75671 10.2909 1.92804 10.2909C2.00604 10.8039 2.08204 11.2959 2.16104 11.8059Z" fill="#F4A641"/>
<path d="M15.7275 4.46403C15.3955 4.15603 15.0285 3.81603 14.6475 3.46304C14.7505 3.31804 14.8625 3.16104 15.0015 2.96704C15.4095 3.33504 15.8005 3.68604 16.2084 4.05403C16.0244 4.21103 15.8755 4.33703 15.7275 4.46403Z" fill="#F4A641"/>
<path d="M4.96935 16.222C4.85435 16.38 4.73735 16.538 4.60135 16.725C4.22035 16.338 3.84136 15.953 3.44336 15.549C3.59836 15.417 3.74536 15.292 3.88436 15.173C4.24935 15.526 4.60435 15.869 4.96935 16.222Z" fill="#F4A641"/>
<path d="M16.4053 5.28909C16.5613 5.17709 16.7193 5.06209 16.9123 4.9231C17.1693 5.36509 17.4213 5.79809 17.6853 6.25208C17.4803 6.35208 17.3063 6.43608 17.1283 6.52208C16.8833 6.10509 16.6463 5.70109 16.4053 5.28909Z" fill="white"/>
<path d="M11.7638 17.6788C11.8048 17.8858 11.8408 18.0698 11.8858 18.3018C11.4128 18.3678 10.9568 18.4308 10.4618 18.4998C10.4488 18.2798 10.4378 18.0798 10.4258 17.8668C10.8748 17.8038 11.3098 17.7428 11.7638 17.6788Z" fill="white"/>
<path d="M9.31954 17.8489C9.31954 18.0699 9.31954 18.2579 9.31954 18.4859C8.85254 18.4189 8.40454 18.3549 7.93555 18.2869C7.97055 18.0709 8.00155 17.8819 8.03455 17.6759C8.47554 17.7359 8.89754 17.7919 9.31954 17.8489Z" fill="#F4A641"/>
<path d="M9.32323 2.02403C8.88823 2.09403 8.48124 2.16003 8.06124 2.22703C8.02424 2.01903 7.99024 1.82803 7.94824 1.59203C8.39424 1.52203 8.82423 1.45503 9.27223 1.38403C9.29023 1.61903 9.30623 1.81303 9.32323 2.02403Z" fill="white"/>
<path d="M10.3809 1.38708C10.8509 1.45608 11.2859 1.52108 11.7408 1.58808C11.6958 1.81708 11.6578 2.01208 11.6198 2.20708C11.1959 2.14308 10.7939 2.08208 10.3809 2.01908C10.3809 1.82508 10.3809 1.63108 10.3809 1.38708Z" fill="#F4A641"/>
<path d="M4.63783 3.13904C4.76983 3.32904 4.87983 3.48803 4.98583 3.64103C4.66783 3.93303 4.35784 4.21703 4.03084 4.51703C3.90084 4.40203 3.75984 4.27803 3.58984 4.12703C3.94284 3.79503 4.28484 3.47304 4.63783 3.13904Z" fill="white"/>
<path d="M2.83246 5.00305C3.01645 5.14305 3.17245 5.26105 3.32645 5.37805C3.11045 5.74405 2.90045 6.10104 2.68146 6.47404C2.50846 6.39504 2.34046 6.31704 2.14746 6.22804C2.37846 5.81604 2.60046 5.41805 2.83246 5.00305Z" fill="#F4A641"/>
<path d="M13.9508 16.825C14.0258 17.0129 14.0938 17.1809 14.1738 17.3809C13.7748 17.5699 13.3818 17.7579 12.9738 17.9519C12.8948 17.7379 12.8298 17.5619 12.7598 17.3729C13.1538 17.1899 13.5408 17.0129 13.9508 16.825Z" fill="#F4A641"/>
<path d="M6.98667 2.54699C6.59967 2.73599 6.23367 2.91399 5.84668 3.10198C5.76868 2.92799 5.68968 2.75199 5.59668 2.54399C5.99768 2.35099 6.38067 2.16499 6.78767 1.96899C6.85867 2.17799 6.92167 2.35899 6.98667 2.54699Z" fill="#F4A641"/>
<path d="M5.81229 16.7759C6.19028 16.9649 6.54728 17.1429 6.91928 17.3279C6.86528 17.5189 6.81228 17.7049 6.75128 17.9179C6.35028 17.7209 5.96829 17.5329 5.57129 17.3379C5.65629 17.1389 5.73229 16.9619 5.81229 16.7759Z" fill="white"/>
<path d="M12.8284 1.92004C13.2304 2.09304 13.6154 2.25804 14.0094 2.42804C13.9044 2.63004 13.8134 2.80304 13.7194 2.98304C13.3644 2.82104 13.0144 2.66204 12.6504 2.49604C12.7074 2.31404 12.7644 2.13004 12.8284 1.92004Z" fill="white"/>
<path d="M8.75391 12.5419C8.75391 11.7459 8.75391 10.971 8.75391 10.192C8.75991 10.187 8.77091 10.172 8.78191 10.172C9.5019 10.177 10.2269 10.09 10.9369 10.254C11.1709 10.308 11.4039 10.416 11.6049 10.55C12.1129 10.889 12.1729 11.8919 11.4049 12.2249C11.0299 12.3879 10.6319 12.4429 10.2299 12.4699C9.7449 12.5019 9.2589 12.5179 8.75391 12.5419Z" fill="white"/>
<path d="M8.74902 8.775C8.74902 8.10001 8.74902 7.47402 8.74902 6.85102C8.76702 6.83802 8.77902 6.82402 8.79002 6.82402C9.45402 6.80302 10.12 6.78002 10.771 6.93802C10.972 6.98702 11.176 7.07602 11.343 7.19502C11.808 7.52801 11.789 8.16701 11.301 8.47001C11.109 8.58901 10.875 8.68501 10.653 8.70201C10.028 8.752 9.39902 8.754 8.74902 8.775Z" fill="white"/>
</svg>
